<mxfile host="Electron" modified="2024-06-09T21:04:26.439Z" agent="Mozilla/5.0 (Windows NT 10.0; Win64; x64) AppleWebKit/537.36 (KHTML, like Gecko) draw.io/24.4.6 Chrome/124.0.6367.207 Electron/30.0.6 Safari/537.36" etag="8qKXfK8-YFu7UyvYXcTj" version="24.4.6" type="device">
  <diagram name="Seite-1" id="hNxyPPcNrrGnz1mHNyKa">
    <mxGraphModel dx="1231" dy="1180" grid="1" gridSize="10" guides="1" tooltips="1" connect="1" arrows="1" fold="1" page="1" pageScale="1" pageWidth="827" pageHeight="1169" math="0" shadow="0">
      <root>
        <mxCell id="0" />
        <mxCell id="1" parent="0" />
        <mxCell id="VRnodTBKfb1ULuzcWVuv-7" value="" style="group" parent="1" vertex="1" connectable="0">
          <mxGeometry x="1030" y="170" width="864.2258086362222" height="553.6455938697319" as="geometry" />
        </mxCell>
        <mxCell id="VRnodTBKfb1ULuzcWVuv-1" value="" style="shape=image;verticalLabelPosition=bottom;labelBackgroundColor=default;verticalAlign=top;aspect=fixed;imageAspect=0;image=data:image/svg+xml,PHN2ZyB4bWxucz0iaHR0cDovL3d3dy53My5vcmcvMjAwMC9zdmciIHhtbG5zOnhsaW5rPSJodHRwOi8vd3d3LnczLm9yZy8xOTk5L3hsaW5rIiB2ZXJzaW9uPSIxLjEiIHZpZXdCb3g9IjAgMCA3NjguMjQgNDkyLjQ4IiBoZWlnaHQ9IjQ5Mi40OHB0IiB3aWR0aD0iNzY4LjI0cHQiPiYjeGE7IDxtZXRhZGF0YT4mI3hhOyAgJiN4YTsgICAmI3hhOyAgICAmI3hhOyAgICAyMDI0LTA1LTE0VDIzOjU1OjM3LjY3MjA0NCYjeGE7ICAgIGltYWdlL3N2Zyt4bWwmI3hhOyAgICAmI3hhOyAgICAgJiN4YTsgICAgICBNYXRwbG90bGliIHYzLjguNCwgaHR0cHM6Ly9tYXRwbG90bGliLm9yZy8mI3hhOyAgICAgJiN4YTsgICAgJiN4YTsgICAmI3hhOyAgJiN4YTsgPC9tZXRhZGF0YT4mI3hhOyA8ZGVmcz4mI3hhOyAgPHN0eWxlIHR5cGU9InRleHQvY3NzIj4qe3N0cm9rZS1saW5lam9pbjogcm91bmQ7IHN0cm9rZS1saW5lY2FwOiBidXR0fTwvc3R5bGU+JiN4YTsgPC9kZWZzPiYjeGE7IDxnIGlkPSJmaWd1cmVfMSI+JiN4YTsgIDxnIGlkPSJwYXRjaF8xIj4mI3hhOyAgIDxwYXRoIHN0eWxlPSJmaWxsOiAjZmZmZmZmIiBkPSJNIDAgNDkyLjQ4ICYjMTA7TCA3NjguMjQgNDkyLjQ4ICYjMTA7TCA3NjguMjQgMCAmIzEwO0wgMCAwICYjMTA7eiIvPiYjeGE7ICA8L2c+JiN4YTsgIDxnIGlkPSJheGVzXzEiPiYjeGE7ICAgPGcgaWQ9InBhdGNoXzIiPiYjeGE7ICAgIDxwYXRoIHN0eWxlPSJmaWxsOiAjZmZmZmZmIiBkPSJNIDYyLjMgMjEyLjYzMDM3NSAmIzEwO0wgNzU3LjQ0IDIxMi42MzAzNzUgJiMxMDtMIDc1Ny40NCAyNi44OCAmIzEwO0wgNjIuMyAyNi44OCAmIzEwO3oiLz4mI3hhOyAgIDwvZz4mI3hhOyAgIDxnIGlkPSJtYXRwbG90bGliLmF4aXNfMSI+JiN4YTsgICAgPGcgaWQ9Inh0aWNrXzEiPiYjeGE7ICAgICA8ZyBpZD0ibGluZTJkXzEiPiYjeGE7ICAgICAgPHBhdGggc3R5bGU9ImZpbGw6IG5vbmU7IHN0cm9rZTogI2IwYjBiMDsgc3Ryb2tlLXdpZHRoOiAwLjg7IHN0cm9rZS1saW5lY2FwOiBzcXVhcmUiIGNsaXAtcGF0aD0idXJsKCNwZDM5OGRmZTg5ZCkiIGQ9Ik0gOTUuNDAxOTA1IDIxMi42MzAzNzUgJiMxMDtMIDk1LjQwMTkwNSAyNi44OCIvPiYjeGE7ICAgICA8L2c+JiN4YTsgICAgIDxnIGlkPSJsaW5lMmRfMiI+JiN4YTsgICAgICA8ZGVmcz4mI3hhOyAgICAgICA8cGF0aCBzdHlsZT0ic3Ryb2tlOiAjMDAwMDAwOyBzdHJva2Utd2lkdGg6IDAuOCIgZD0iTSAwIDAgJiMxMDtMIDAgMy41IiBpZD0ibTlmYzVkNzRkOTIiLz4mI3hhOyAgICAgIDwvZGVmcz4mI3hhOyAgICAgIDxnPiYjeGE7ICAgICAgIDx1c2Ugc3R5bGU9InN0cm9rZTogIzAwMDAwMDsgc3Ryb2tlLXdpZHRoOiAwLjgiIHk9IjIxMi42MzAzNzUiIHg9Ijk1LjQwMTkwNSIgeGxpbms6aHJlZj0iI205ZmM1ZDc0ZDkyIi8+JiN4YTsgICAgICA8L2c+JiN4YTsgICAgIDwvZz4mI3hhOyAgICAgPGcgaWQ9InRleHRfMSI+JiN4YTsgICAgICAmI3hhOyAgICAgIDxnIHRyYW5zZm9ybT0idHJhbnNsYXRlKDkyLjIyMDY1NSAyMjcuMjI4ODEzKSBzY2FsZSgwLjEgLTAuMSkiPiYjeGE7ICAgICAgIDxkZWZzPiYjeGE7ICAgICAgICA8cGF0aCB0cmFuc2Zvcm09InNjYWxlKDAuMDE1NjI1KSIgZD0iTSAyMDM0IDQyNTAgJiMxMDtRIDE1NDcgNDI1MCAxMzAxIDM3NzAgJiMxMDtRIDEwNTYgMzI5MSAxMDU2IDIzMjggJiMxMDtRIDEwNTYgMTM2OSAxMzAxIDg4OSAmIzEwO1EgMTU0NyA0MDkgMjAzNCA0MDkgJiMxMDtRIDI1MjUgNDA5IDI3NzAgODg5ICYjMTA7USAzMDE2IDEzNjkgMzAxNiAyMzI4ICYjMTA7USAzMDE2IDMyOTEgMjc3MCAzNzcwICYjMTA7USAyNTI1IDQyNTAgMjAzNCA0MjUwICYjMTA7eiYjMTA7TSAyMDM0IDQ3NTAgJiMxMDtRIDI4MTkgNDc1MCAzMjMzIDQxMjkgJiMxMDtRIDM2NDcgMzUwOSAzNjQ3IDIzMjggJiMxMDtRIDM2NDcgMTE1MCAzMjMzIDUyOSAmIzEwO1EgMjgxOSAtOTEgMjAzNCAtOTEgJiMxMDtRIDEyNTAgLTkxIDgzNiA1MjkgJiMxMDtRIDQyMiAxMTUwIDQyMiAyMzI4ICYjMTA7USA0MjIgMzUwOSA4MzYgNDEyOSAmIzEwO1EgMTI1MCA0NzUwIDIwMzQgNDc1MCAmIzEwO3oiIGlkPSJEZWphVnVTYW5zLTMwIi8+JiN4YTsgICAgICAgPC9kZWZzPiYjeGE7ICAgICAgIDx1c2UgeGxpbms6aHJlZj0iI0RlamFWdVNhbnMtMzAiLz4mI3hhOyAgICAgIDwvZz4mI3hhOyAgICAgPC9nPiYjeGE7ICAgIDwvZz4mI3hhOyAgICA8ZyBpZD0ieHRpY2tfMiI+JiN4YTsgICAgIDxnIGlkPSJsaW5lMmRfMyI+JiN4YTsgICAgICA8cGF0aCBzdHlsZT0iZmlsbDogbm9uZTsgc3Ryb2tlOiAjYjBiMGIwOyBzdHJva2Utd2lkdGg6IDAuODsgc3Ryb2tlLWxpbmVjYXA6IHNxdWFyZSIgY2xpcC1wYXRoPSJ1cmwoI3BkMzk4ZGZlODlkKSIgZD0iTSAyNDIuNTIxNDgxIDIxMi42MzAzNzUgJiMxMDtMIDI0Mi41MjE0ODEgMjYuODgiLz4mI3hhOyAgICAgPC9nPiYjeGE7ICAgICA8ZyBpZD0ibGluZTJkXzQiPiYjeGE7ICAgICAgPGc+JiN4YTsgICAgICAgPHVzZSBzdHlsZT0ic3Ryb2tlOiAjMDAwMDAwOyBzdHJva2Utd2lkdGg6IDAuOCIgeT0iMjEyLjYzMDM3NSIgeD0iMjQyLjUyMTQ4MSIgeGxpbms6aHJlZj0iI205ZmM1ZDc0ZDkyIi8+JiN4YTsgICAgICA8L2c+JiN4YTsgICAgIDwvZz4mI3hhOyAgICAgPGcgaWQ9InRleHRfMiI+JiN4YTsgICAgICAmI3hhOyAgICAgIDxnIHRyYW5zZm9ybT0idHJhbnNsYXRlKDIzNi4xNTg5ODEgMjI3LjIyODgxMykgc2NhbGUoMC4xIC0wLjEpIj4mI3hhOyAgICAgICA8ZGVmcz4mI3hhOyAgICAgICAgPHBhdGggdHJhbnNmb3JtPSJzY2FsZSgwLjAxNTYyNSkiIGQ9Ik0gMTIyOCA1MzEgJiMxMDtMIDM0MzEgNTMxICYjMTA7TCAzNDMxIDAgJiMxMDtMIDQ2OSAwICYjMTA7TCA0NjkgNTMxICYjMTA7USA4MjggOTAzIDE0NDggMTUyOSAmIzEwO1EgMjA2OSAyMTU2IDIyMjggMjMzOCAmIzEwO1EgMjUzMSAyNjc4IDI2NTEgMjkxNCAmIzEwO1EgMjc3MiAzMTUwIDI3NzIgMzM3OCAmIzEwO1EgMjc3MiAzNzUwIDI1MTEgMzk4NCAmIzEwO1EgMjI1MCA0MjE5IDE4MzEgNDIxOSAmIzEwO1EgMTUzNCA0MjE5IDEyMDQgNDExNiAmIzEwO1EgODc1IDQwMTMgNTAwIDM4MDMgJiMxMDtMIDUwMCA0NDQxICYjMTA7USA4ODEgNDU5NCAxMjEyIDQ2NzIgJiMxMDtRIDE1NDQgNDc1MCAxODE5IDQ3NTAgJiMxMDtRIDI1NDQgNDc1MCAyOTc1IDQzODcgJiMxMDtRIDM0MDYgNDAyNSAzNDA2IDM0MTkgJiMxMDtRIDM0MDYgMzEzMSAzMjk4IDI4NzMgJiMxMDtRIDMxOTEgMjYxNiAyOTA2IDIyNjYgJiMxMDtRIDI4MjggMjE3NSAyNDA5IDE3NDIgJiMxMDtRIDE5OTEgMTMwOSAxMjI4IDUzMSAmIzEwO3oiIGlkPSJEZWphVnVTYW5zLTMyIi8+JiN4YTsgICAgICAgPC9kZWZzPiYjeGE7ICAgICAgIDx1c2UgeGxpbms6aHJlZj0iI0RlamFWdVNhbnMtMzIiLz4mI3hhOyAgICAgICA8dXNlIHg9IjYzLjYyMzA0NyIgeGxpbms6aHJlZj0iI0RlamFWdVNhbnMtMzAiLz4mI3hhOyAgICAgIDwvZz4mI3hhOyAgICAgPC9nPiYjeGE7ICAgIDwvZz4mI3hhOyAgICA8ZyBpZD0ieHRpY2tfMyI+JiN4YTsgICAgIDxnIGlkPSJsaW5lMmRfNSI+JiN4YTsgICAgICA8cGF0aCBzdHlsZT0iZmlsbDogbm9uZTsgc3Ryb2tlOiAjYjBiMGIwOyBzdHJva2Utd2lkdGg6IDAuODsgc3Ryb2tlLWxpbmVjYXA6IHNxdWFyZSIgY2xpcC1wYXRoPSJ1cmwoI3BkMzk4ZGZlODlkKSIgZD0iTSAzODkuNjQxMDU4IDIxMi42MzAzNzUgJiMxMDtMIDM4OS42NDEwNTggMjYuODgiLz4mI3hhOyAgICAgPC9nPiYjeGE7ICAgICA8ZyBpZD0ibGluZTJkXzYiPiYjeGE7ICAgICAgPGc+JiN4YTsgICAgICAgPHVzZSBzdHlsZT0ic3Ryb2tlOiAjMDAwMDAwOyBzdHJva2Utd2lkdGg6IDAuOCIgeT0iMjEyLjYzMDM3NSIgeD0iMzg5LjY0MTA1OCIgeGxpbms6aHJlZj0iI205ZmM1ZDc0ZDkyIi8+JiN4YTsgICAgICA8L2c+JiN4YTsgICAgIDwvZz4mI3hhOyAgICAgPGcgaWQ9InRleHRfMyI+JiN4YTsgICAgICAmI3hhOyAgICAgIDxnIHRyYW5zZm9ybT0idHJhbnNsYXRlKDM4My4yNzg1NTggMjI3LjIyODgxMykgc2NhbGUoMC4xIC0wLjEpIj4mI3hhOyAgICAgICA8ZGVmcz4mI3hhOyAgICAgICAgPHBhdGggdHJhbnNmb3JtPSJzY2FsZSgwLjAxNTYyNSkiIGQ9Ik0gMjQxOSA0MTE2ICYjMTA7TCA4MjUgMTYyNSAmIzEwO0wgMjQxOSAxNjI1ICYjMTA7TCAyNDE5IDQxMTYgJiMxMDt6JiMxMDtNIDIyNTMgNDY2NiAmIzEwO0wgMzA0NyA0NjY2ICYjMTA7TCAzMDQ3IDE2MjUgJiMxMDtMIDM3MTMgMTYyNSAmIzEwO0wgMzcxMyAxMTAwICYjMTA7TCAzMDQ3IDExMDAgJiMxMDtMIDMwNDcgMCAmIzEwO0wgMjQxOSAwICYjMTA7TCAyNDE5IDExMDAgJiMxMDtMIDMxMyAxMTAwICYjMTA7TCAzMTMgMTcwOSAmIzEwO0wgMjI1MyA0NjY2ICYjMTA7eiIgaWQ9IkRlamFWdVNhbnMtMzQiLz4mI3hhOyAgICAgICA8L2RlZnM+JiN4YTsgICAgICAgPHVzZSB4bGluazpocmVmPSIjRGVqYVZ1U2Fucy0zNCIvPiYjeGE7ICAgICAgIDx1c2UgeD0iNjMuNjIzMDQ3IiB4bGluazpocmVmPSIjRGVqYVZ1U2Fucy0zMCIvPiYjeGE7ICAgICAgPC9nPiYjeGE7ICAgICA8L2c+JiN4YTsgICAgPC9nPiYjeGE7ICAgIDxnIGlkPSJ4dGlja180Ij4mI3hhOyAgICAgPGcgaWQ9ImxpbmUyZF83Ij4mI3hhOyAgICAgIDxwYXRoIHN0eWxlPSJmaWxsOiBub25lOyBzdHJva2U6ICNiMGIwYjA7IHN0cm9rZS13aWR0aDogMC44OyBzdHJva2UtbGluZWNhcDogc3F1YXJlIiBjbGlwLXBhdGg9InVybCgjcGQzOThkZmU4OWQpIiBkPSJNIDUzNi43NjA2MzUgMjEyLjYzMDM3NSAmIzEwO0wgNTM2Ljc2MDYzNSAyNi44OCIvPiYjeGE7ICAgICA8L2c+JiN4YTsgICAgIDxnIGlkPSJsaW5lMmRfOCI+JiN4YTsgICAgICA8Zz4mI3hhOyAgICAgICA8dXNlIHN0eWxlPSJzdHJva2U6ICMwMDAwMDA7IHN0cm9rZS13aWR0aDogMC44IiB5PSIyMTIuNjMwMzc1IiB4PSI1MzYuNzYwNjM1IiB4bGluazpocmVmPSIjbTlmYzVkNzRkOTIiLz4mI3hhOyAgICAgIDwvZz4mI3hhOyAgICAgPC9nPiYjeGE7ICAgICA8ZyBpZD0idGV4dF80Ij4mI3hhOyAgICAgICYjeGE7ICAgICAgPGcgdHJhbnNmb3JtPSJ0cmFuc2xhdGUoNTMwLjM5ODEzNSAyMjcuMjI4ODEzKSBzY2FsZSgwLjEgLTAuMSkiPiYjeGE7ICAgICAgIDxkZWZzPiYjeGE7ICAgICAgICA8cGF0aCB0cmFuc2Zvcm09InNjYWxlKDAuMDE1NjI1KSIgZD0iTSAyMTEzIDI1ODQgJiMxMDtRIDE2ODggMjU4NCAxNDM5IDIyOTMgJiMxMDtRIDExOTEgMjAwMyAxMTkxIDE0OTcgJiMxMDtRIDExOTEgOTk0IDE0MzkgNzAxICYjMTA7USAxNjg4IDQwOSAyMTEzIDQwOSAmIzEwO1EgMjUzOCA0MDkgMjc4NiA3MDEgJiMxMDtRIDMwMzQgOTk0IDMwMzQgMTQ5NyAmIzEwO1EgMzAzNCAyMDAzIDI3ODYgMjI5MyAmIzEwO1EgMjUzOCAyNTg0IDIxMTMgMjU4NCAmIzEwO3omIzEwO00gMzM2NiA0NTYzICYjMTA7TCAzMzY2IDM5ODggJiMxMDtRIDMxMjggNDEwMCAyODg2IDQxNTkgJiMxMDtRIDI2NDQgNDIxOSAyNDA2IDQyMTkgJiMxMDtRIDE3ODEgNDIxOSAxNDUxIDM3OTcgJiMxMDtRIDExMjIgMzM3NSAxMDc1IDI1MjIgJiMxMDtRIDEyNTkgMjc5NCAxNTM3IDI5MzkgJiMxMDtRIDE4MTYgMzA4NCAyMTUwIDMwODQgJiMxMDtRIDI4NTMgMzA4NCAzMjYxIDI2NTcgJiMxMDtRIDM2NjkgMjIzMSAzNjY5IDE0OTcgJiMxMDtRIDM2NjkgNzc4IDMyNDQgMzQzICYjMTA7USAyODE5IC05MSAyMTEzIC05MSAmIzEwO1EgMTMwMyAtOTEgODc1IDUyOSAmIzEwO1EgNDQ3IDExNTAgNDQ3IDIzMjggJiMxMDtRIDQ0NyAzNDM0IDk3MiA0MDkyICYjMTA7USAxNDk3IDQ3NTAgMjM4MSA0NzUwICYjMTA7USAyNjE5IDQ3NTAgMjg2MSA0NzAzICYjMTA7USAzMTAzIDQ2NTYgMzM2NiA0NTYzICYjMTA7eiIgaWQ9IkRlamFWdVNhbnMtMzYiLz4mI3hhOyAgICAgICA8L2RlZnM+JiN4YTsgICAgICAgPHVzZSB4bGluazpocmVmPSIjRGVqYVZ1U2Fucy0zNiIvPiYjeGE7ICAgICAgIDx1c2UgeD0iNjMuNjIzMDQ3IiB4bGluazpocmVmPSIjRGVqYVZ1U2Fucy0zMCIvPiYjeGE7ICAgICAgPC9nPiYjeGE7ICAgICA8L2c+JiN4YTsgICAgPC9nPiYjeGE7ICAgIDxnIGlkPSJ4dGlja181Ij4mI3hhOyAgICAgPGcgaWQ9ImxpbmUyZF85Ij4mI3hhOyAgICAgIDxwYXRoIHN0eWxlPSJmaWxsOiBub25lOyBzdHJva2U6ICNiMGIwYjA7IHN0cm9rZS13aWR0aDogMC44OyBzdHJva2UtbGluZWNhcDogc3F1YXJlIiBjbGlwLXBhdGg9InVybCgjcGQzOThkZmU4OWQpIiBkPSJNIDY4My44ODAyMTIgMjEyLjYzMDM3NSAmIzEwO0wgNjgzLjg4MDIxMiAyNi44OCIvPiYjeGE7ICAgICA8L2c+JiN4YTsgICAgIDxnIGlkPSJsaW5lMmRfMTAiPiYjeGE7ICAgICAgPGc+JiN4YTsgICAgICAgPHVzZSBzdHlsZT0ic3Ryb2tlOiAjMDAwMDAwOyBzdHJva2Utd2lkdGg6IDAuOCIgeT0iMjEyLjYzMDM3NSIgeD0iNjgzLjg4MDIxMiIgeGxpbms6aHJlZj0iI205ZmM1ZDc0ZDkyIi8+JiN4YTsgICAgICA8L2c+JiN4YTsgICAgIDwvZz4mI3hhOyAgICAgPGcgaWQ9InRleHRfNSI+JiN4YTsgICAgICAmI3hhOyAgICAgIDxnIHRyYW5zZm9ybT0idHJhbnNsYXRlKDY3Ny41MTc3MTIgMjI3LjIyODgxMykgc2NhbGUoMC4xIC0wLjEpIj4mI3hhOyAgICAgICA8ZGVmcz4mI3hhOyAgICAgICAgPHBhdGggdHJhbnNmb3JtPSJzY2FsZSgwLjAxNTYyNSkiIGQ9Ik0gMjAzNCAyMjE2ICYjMTA7USAxNTg0IDIyMTYgMTMyNiAxOTc1ICYjMTA7USAxMDY5IDE3MzQgMTA2OSAxMzEzICYjMTA7USAxMDY5IDg5MSAxMzI2IDY1MCAmIzEwO1EgMTU4NCA0MDkgMjAzNCA0MDkgJiMxMDtRIDI0ODQgNDA5IDI3NDMgNjUxICYjMTA7USAzMDAzIDg5NCAzMDAzIDEzMTMgJiMxMDtRIDMwMDMgMTczNCAyNzQ1IDE5NzUgJiMxMDtRIDI0ODggMjIxNiAyMDM0IDIyMTYgJiMxMDt6JiMxMDtNIDE0MDMgMjQ4NCAmIzEwO1EgOTk3IDI1ODQgNzcwIDI4NjIgJiMxMDtRIDU0NCAzMTQxIDU0NCAzNTQxICYjMTA7USA1NDQgNDEwMCA5NDIgNDQyNSAmIzEwO1EgMTM0MSA0NzUwIDIwMzQgNDc1MCAmIzEwO1EgMjczMSA0NzUwIDMxMjggNDQyNSAmIzEwO1EgMzUyNSA0MTAwIDM1MjUgMzU0MSAmIzEwO1EgMzUyNSAzMTQxIDMyOTggMjg2MiAmIzEwO1EgMzA3MiAyNTg0IDI2NjkgMjQ4NCAmIzEwO1EgMzEyNSAyMzc4IDMzNzkgMjA2OCAmIzEwO1EgMzYzNCAxNzU5IDM2MzQgMTMxMyAmIzEwO1EgMzYzNCA2MzQgMzIyMCAyNzEgJiMxMDtRIDI4MDYgLTkxIDIwMzQgLTkxICYjMTA7USAxMjYzIC05MSA4NDggMjcxICYjMTA7USA0MzQgNjM0IDQzNCAxMzEzICYjMTA7USA0MzQgMTc1OSA2OTAgMjA2OCAmIzEwO1EgOTQ3IDIzNzggMTQwMyAyNDg0ICYjMTA7eiYjMTA7TSAxMTcyIDM0ODEgJiMxMDtRIDExNzIgMzExOSAxMzk4IDI5MTYgJiMxMDtRIDE2MjUgMjcxMyAyMDM0IDI3MTMgJiMxMDtRIDI0NDEgMjcxMyAyNjcwIDI5MTYgJiMxMDtRIDI5MDAgMzExOSAyOTAwIDM0ODEgJiMxMDtRIDI5MDAgMzg0NCAyNjcwIDQwNDcgJiMxMDtRIDI0NDEgNDI1MCAyMDM0IDQyNTAgJiMxMDtRIDE2MjUgNDI1MCAxMzk4IDQwNDcgJiMxMDtRIDExNzIgMzg0NCAxMTcyIDM0ODEgJiMxMDt6IiBpZD0iRGVqYVZ1U2Fucy0zOCIvPiYjeGE7ICAgICAgIDwvZGVmcz4mI3hhOyAgICAgICA8dXNlIHhsaW5rOmhyZWY9IiNEZWphVnVTYW5zLTM4Ii8+JiN4YTsgICAgICAgPHVzZSB4PSI2My42MjMwNDciIHhsaW5rOmhyZWY9IiNEZWphVnVTYW5zLTMwIi8+JiN4YTsgICAgICA8L2c+JiN4YTsgICAgIDwvZz4mI3hhOyAgICA8L2c+JiN4YTsgICA8L2c+JiN4YTsgICA8ZyBpZD0ibWF0cGxvdGxpYi5heGlzXzIiPiYjeGE7ICAgIDxnIGlkPSJ5dGlja18xIj4mI3hhOyAgICAgPGcgaWQ9ImxpbmUyZF8xMSI+JiN4YTsgICAgICA8cGF0aCBzdHlsZT0iZmlsbDogbm9uZTsgc3Ryb2tlOiAjYjBiMGIwOyBzdHJva2Utd2lkdGg6IDAuODsgc3Ryb2tlLWxpbmVjYXA6IHNxdWFyZSIgY2xpcC1wYXRoPSJ1cmwoI3BkMzk4ZGZlODlkKSIgZD0iTSA2Mi4zIDIwNS4yMDMwNTIgJiMxMDtMIDc1Ny40NCAyMDUuMjAzMDUyIi8+JiN4YTsgICAgIDwvZz4mI3hhOyAgICAgPGcgaWQ9ImxpbmUyZF8xMiI+JiN4YTsgICAgICA8ZGVmcz4mI3hhOyAgICAgICA8cGF0aCBzdHlsZT0ic3Ryb2tlOiAjMDAwMDAwOyBzdHJva2Utd2lkdGg6IDAuOCIgZD0iTSAwIDAgJiMxMDtMIC0zLjUgMCIgaWQ9Im1kMDFmZjYyYWIyIi8+JiN4YTsgICAgICA8L2RlZnM+JiN4YTsgICAgICA8Zz4mI3hhOyAgICAgICA8dXNlIHN0eWxlPSJzdHJva2U6ICMwMDAwMDA7IHN0cm9rZS13aWR0aDogMC44IiB5PSIyMDUuMjAzMDUyIiB4PSI2Mi4zIiB4bGluazpocmVmPSIjbWQwMWZmNjJhYjIiLz4mI3hhOyAgICAgIDwvZz4mI3hhOyAgICAgPC9nPiYjeGE7ICAgICA8ZyBpZD0idGV4dF82Ij4mI3hhOyAgICAgICYjeGE7ICAgICAgPGcgdHJhbnNmb3JtPSJ0cmFuc2xhdGUoNDguOTM3NSAyMDkuMDAyMjcxKSBzY2FsZSgwLjEgLTAuMSkiPiYjeGE7ICAgICAgIDx1c2UgeGxpbms6aHJlZj0iI0RlamFWdVNhbnMtMzAiLz4mI3hhOyAgICAgIDwvZz4mI3hhOyAgICAgPC9nPiYjeGE7ICAgIDwvZz4mI3hhOyAgICA8ZyBpZD0ieXRpY2tfMiI+JiN4YTsgICAgIDxnIGlkPSJsaW5lMmRfMTMiPiYjeGE7ICAgICAgPHBhdGggc3R5bGU9ImZpbGw6IG5vbmU7IHN0cm9rZTogI2IwYjBiMDsgc3Ryb2tlLXdpZHRoOiAwLjg7IHN0cm9rZS1saW5lY2FwOiBzcXVhcmUiIGNsaXAtcGF0aD0idXJsKCNwZDM5OGRmZTg5ZCkiIGQ9Ik0gNjIuMyAxNzQuNzkwOTUgJiMxMDtMIDc1Ny40NCAxNzQuNzkwOTUiLz4mI3hhOyAgICAgPC9nPiYjeGE7ICAgICA8ZyBpZD0ibGluZTJkXzE0Ij4mI3hhOyAgICAgIDxnPiYjeGE7ICAgICAgIDx1c2Ugc3R5bGU9InN0cm9rZTogIzAwMDAwMDsgc3Ryb2tlLXdpZHRoOiAwLjgiIHk9IjE3NC43OTA5NSIgeD0iNjIuMyIgeGxpbms6aHJlZj0iI21kMDFmZjYyYWIyIi8+JiN4YTsgICAgICA8L2c+JiN4YTsgICAgIDwvZz4mI3hhOyAgICAgPGcgaWQ9InRleHRfNyI+JiN4YTsgICAgICAmI3hhOyAgICAgIDxnIHRyYW5zZm9ybT0idHJhbnNsYXRlKDM2LjIxMjUgMTc4LjU5MDE2OSkgc2NhbGUoMC4xIC0wLjEpIj4mI3hhOyAgICAgICA8dXNlIHhsaW5rOmhyZWY9IiNEZWphVnVTYW5zLTMyIi8+JiN4YTsgICAgICAgPHVzZSB4PSI2My42MjMwNDciIHhsaW5rOmhyZWY9IiNEZWphVnVTYW5zLTMwIi8+JiN4YTsgICAgICAgPHVzZSB4PSIxMjcuMjQ2MDk0IiB4bGluazpocmVmPSIjRGVqYVZ1U2Fucy0zMCIvPiYjeGE7ICAgICAgPC9nPiYjeGE7ICAgICA8L2c+JiN4YTsgICAgPC9nPiYjeGE7ICAgIDxnIGlkPSJ5dGlja18zIj4mI3hhOyAgICAgPGcgaWQ9ImxpbmUyZF8xNSI+JiN4YTsgICAgICA8cGF0aCBzdHlsZT0iZmlsbDogbm9uZTsgc3Ryb2tlOiAjYjBiMGIwOyBzdHJva2Utd2lkdGg6IDAuODsgc3Ryb2tlLWxpbmVjYXA6IHNxdWFyZSIgY2xpcC1wYXRoPSJ1cmwoI3BkMzk4ZGZlODlkKSIgZD0iTSA2Mi4zIDE0NC4zNzg4NDkgJiMxMDtMIDc1Ny40NCAxNDQuMzc4ODQ5Ii8+JiN4YTsgICAgIDwvZz4mI3hhOyAgICAgPGcgaWQ9ImxpbmUyZF8xNiI+JiN4YTsgICAgICA8Zz4mI3hhOyAgICAgICA8dXNlIHN0eWxlPSJzdHJva2U6ICMwMDAwMDA7IHN0cm9rZS13aWR0aDogMC44IiB5PSIxNDQuMzc4ODQ5IiB4PSI2Mi4zIiB4bGluazpocmVmPSIjbWQwMWZmNjJhYjIiLz4mI3hhOyAgICAgIDwvZz4mI3hhOyAgICAgPC9nPiYjeGE7ICAgICA8ZyBpZD0idGV4dF84Ij4mI3hhOyAgICAgICYjeGE7ICAgICAgPGcgdHJhbnNmb3JtPSJ0cmFuc2xhdGUoMzYuMjEyNSAxNDguMTc4MDY3KSBzY2FsZSgwLjEgLTAuMSkiPiYjeGE7ICAgICAgIDx1c2UgeGxpbms6aHJlZj0iI0RlamFWdVNhbnMtMzQiLz4mI3hhOyAgICAgICA8dXNlIHg9IjYzLjYyMzA0NyIgeGxpbms6aHJlZj0iI0RlamFWdVNhbnMtMzAiLz4mI3hhOyAgICAgICA8dXNlIHg9IjEyNy4yNDYwOTQiIHhsaW5rOmhyZWY9IiNEZWphVnVTYW5zLTMwIi8+JiN4YTsgICAgICA8L2c+JiN4YTsgICAgIDwvZz4mI3hhOyAgICA8L2c+JiN4YTsgICAgPGcgaWQ9Inl0aWNrXzQiPiYjeGE7ICAgICA8ZyBpZD0ibGluZTJkXzE3Ij4mI3hhOyAgICAgIDxwYXRoIHN0eWxlPSJmaWxsOiBub25lOyBzdHJva2U6ICNiMGIwYjA7IHN0cm9rZS13aWR0aDogMC44OyBzdHJva2UtbGluZWNhcDogc3F1YXJlIiBjbGlwLXBhdGg9InVybCgjcGQzOThkZmU4OWQpIiBkPSJNIDYyLjMgMTEzLjk2Njc0NyAmIzEwO0wgNzU3LjQ0IDExMy45NjY3NDciLz4mI3hhOyAgICAgPC9nPiYjeGE7ICAgICA8ZyBpZD0ibGluZTJkXzE4Ij4mI3hhOyAgICAgIDxnPiYjeGE7ICAgICAgIDx1c2Ugc3R5bGU9InN0cm9rZTogIzAwMDAwMDsgc3Ryb2tlLXdpZHRoOiAwLjgiIHk9IjExMy45NjY3NDciIHg9IjYyLjMiIHhsaW5rOmhyZWY9IiNtZDAxZmY2MmFiMiIvPiYjeGE7ICAgICAgPC9nPiYjeGE7ICAgICA8L2c+JiN4YTsgICAgIDxnIGlkPSJ0ZXh0XzkiPiYjeGE7ICAgICAgJiN4YTsgICAgICA8ZyB0cmFuc2Zvcm09InRyYW5zbGF0ZSgzNi4yMTI1IDExNy43NjU5NjYpIHNjYWxlKDAuMSAtMC4xKSI+JiN4YTsgICAgICAgPHVzZSB4bGluazpocmVmPSIjRGVqYVZ1U2Fucy0zNiIvPiYjeGE7ICAgICAgIDx1c2UgeD0iNjMuNjIzMDQ3IiB4bGluazpocmVmPSIjRGVqYVZ1U2Fucy0zMCIvPiYjeGE7ICAgICAgIDx1c2UgeD0iMTI3LjI0NjA5NCIgeGxpbms6aHJlZj0iI0RlamFWdVNhbnMtMzAiLz4mI3hhOyAgICAgIDwvZz4mI3hhOyAgICAgPC9nPiYjeGE7ICAgIDwvZz4mI3hhOyAgICA8ZyBpZD0ieXRpY2tfNSI+JiN4YTsgICAgIDxnIGlkPSJsaW5lMmRfMTkiPiYjeGE7ICAgICAgPHBhdGggc3R5bGU9ImZpbGw6IG5vbmU7IHN0cm9rZTogI2IwYjBiMDsgc3Ryb2tlLXdpZHRoOiAwLjg7IHN0cm9rZS1saW5lY2FwOiBzcXVhcmUiIGNsaXAtcGF0aD0idXJsKCNwZDM5OGRmZTg5ZCkiIGQ9Ik0gNjIuMyA4My41NTQ2NDUgJiMxMDtMIDc1Ny40NCA4My41NTQ2NDUiLz4mI3hhOyAgICAgPC9nPiYjeGE7ICAgICA8ZyBpZD0ibGluZTJkXzIwIj4mI3hhOyAgICAgIDxnPiYjeGE7ICAgICAgIDx1c2Ugc3R5bGU9InN0cm9rZTogIzAwMDAwMDsgc3Ryb2tlLXdpZHRoOiAwLjgiIHk9IjgzLjU1NDY0NSIgeD0iNjIuMyIgeGxpbms6aHJlZj0iI21kMDFmZjYyYWIyIi8+JiN4YTsgICAgICA8L2c+JiN4YTsgICAgIDwvZz4mI3hhOyAgICAgPGcgaWQ9InRleHRfMTAiPiYjeGE7ICAgICAgJiN4YTsgICAgICA8ZyB0cmFuc2Zvcm09InRyYW5zbGF0ZSgzNi4yMTI1IDg3LjM1Mzg2NCkgc2NhbGUoMC4xIC0wLjEpIj4mI3hhOyAgICAgICA8dXNlIHhsaW5rOmhyZWY9IiNEZWphVnVTYW5zLTM4Ii8+JiN4YTsgICAgICAgPHVzZSB4PSI2My42MjMwNDciIHhsaW5rOmhyZWY9IiNEZWphVnVTYW5zLTMwIi8+JiN4YTsgICAgICAgPHVzZSB4PSIxMjcuMjQ2MDk0IiB4bGluazpocmVmPSIjRGVqYVZ1U2Fucy0zMCIvPiYjeGE7ICAgICAgPC9nPiYjeGE7ICAgICA8L2c+JiN4YTsgICAgPC9nPiYjeGE7ICAgIDxnIGlkPSJ5dGlja182Ij4mI3hhOyAgICAgPGcgaWQ9ImxpbmUyZF8yMSI+JiN4YTsgICAgICA8cGF0aCBzdHlsZT0iZmlsbDogbm9uZTsgc3Ryb2tlOiAjYjBiMGIwOyBzdHJva2Utd2lkdGg6IDAuODsgc3Ryb2tlLWxpbmVjYXA6IHNxdWFyZSIgY2xpcC1wYXRoPSJ1cmwoI3BkMzk4ZGZlODlkKSIgZD0iTSA2Mi4zIDUzLjE0MjU0NCAmIzEwO0wgNzU3LjQ0IDUzLjE0MjU0NCIvPiYjeGE7ICAgICA8L2c+JiN4YTsgICAgIDxnIGlkPSJsaW5lMmRfMjIiPiYjeGE7ICAgICAgPGc+JiN4YTsgICAgICAgPHVzZSBzdHlsZT0ic3Ryb2tlOiAjMDAwMDAwOyBzdHJva2Utd2lkdGg6IDAuOCIgeT0iNTMuMTQyNTQ0IiB4PSI2Mi4zIiB4bGluazpocmVmPSIjbWQwMWZmNjJhYjIiLz4mI3hhOyAgICAgIDwvZz4mI3hhOyAgICAgPC9nPiYjeGE7ICAgICA8ZyBpZD0idGV4dF8xMSI+JiN4YTsgICAgICAmI3hhOyAgICAgIDxnIHRyYW5zZm9ybT0idHJhbnNsYXRlKDI5Ljg1IDU2Ljk0MTc2Mikgc2NhbGUoMC4xIC0wLjEpIj4mI3hhOyAgICAgICA8ZGVmcz4mI3hhOyAgICAgICAgPHBhdGggdHJhbnNmb3JtPSJzY2FsZSgwLjAxNTYyNSkiIGQ9Ik0gNzk0IDUzMSAmIzEwO0wgMTgyNSA1MzEgJiMxMDtMIDE4MjUgNDA5MSAmIzEwO0wgNzAzIDM4NjYgJiMxMDtMIDcwMyA0NDQxICYjMTA7TCAxODE5IDQ2NjYgJiMxMDtMIDI0NTAgNDY2NiAmIzEwO0wgMjQ1MCA1MzEgJiMxMDtMIDM0ODEgNTMxICYjMTA7TCAzNDgxIDAgJiMxMDtMIDc5NCAwICYjMTA7TCA3OTQgNTMxICYjMTA7eiIgaWQ9IkRlamFWdVNhbnMtMzEiLz4mI3hhOyAgICAgICA8L2RlZnM+JiN4YTsgICAgICAgPHVzZSB4bGluazpocmVmPSIjRGVqYVZ1U2Fucy0zMSIvPiYjeGE7ICAgICAgIDx1c2UgeD0iNjMuNjIzMDQ3IiB4bGluazpocmVmPSIjRGVqYVZ1U2Fucy0zMCIvPiYjeGE7ICAgICAgIDx1c2UgeD0iMTI3LjI0NjA5NCIgeGxpbms6aHJlZj0iI0RlamFWdVNhbnMtMzAiLz4mI3hhOyAgICAgICA8dXNlIHg9IjE5MC44NjkxNDEiIHhsaW5rOmhyZWY9IiNEZWphVnVTYW5zLTMwIi8+JiN4YTsgICAgICA8L2c+JiN4YTsgICAgIDwvZz4mI3hhOyAgICA8L2c+JiN4YTsgICAgPGcgaWQ9InRleHRfMTIiPiYjeGE7ICAgICAmI3hhOyAgICAgPGcgdHJhbnNmb3JtPSJ0cmFuc2xhdGUoMjMuNzUgMTY3LjkwNTE4Nykgcm90YXRlKC05MCkgc2NhbGUoMC4xIC0wLjEpIj4mI3hhOyAgICAgIDxkZWZzPiYjeGE7ICAgICAgIDxwYXRoIHRyYW5zZm9ybT0ic2NhbGUoMC4wMTU2MjUpIiBkPSJNIDYyOCA0NjY2ICYjMTA7TCAxNTY5IDQ2NjYgJiMxMDtMIDI3NTkgMTQ5MSAmIzEwO0wgMzk1NiA0NjY2ICYjMTA7TCA0ODk3IDQ2NjYgJiMxMDtMIDQ4OTcgMCAmIzEwO0wgNDI4MSAwICYjMTA7TCA0MjgxIDQwOTcgJiMxMDtMIDMwNzggODk3ICYjMTA7TCAyNDQ0IDg5NyAmIzEwO0wgMTI0MSA0MDk3ICYjMTA7TCAxMjQxIDAgJiMxMDtMIDYyOCAwICYjMTA7TCA2MjggNDY2NiAmIzEwO3oiIGlkPSJEZWphVnVTYW5zLTRkIi8+JiN4YTsgICAgICAgPHBhdGggdHJhbnNmb3JtPSJzY2FsZSgwLjAxNTYyNSkiIGQ9Ik0gMjE5NCAxNzU5ICYjMTA7USAxNDk3IDE3NTkgMTIyOCAxNjAwICYjMTA7USA5NTkgMTQ0MSA5NTkgMTA1NiAmIzEwO1EgOTU5IDc1MCAxMTYxIDU3MCAmIzEwO1EgMTM2MyAzOTEgMTcwOSAzOTEgJiMxMDtRIDIxODggMzkxIDI0NzcgNzMwICYjMTA7USAyNzY2IDEwNjkgMjc2NiAxNjMxICYjMTA7TCAyNzY2IDE3NTkgJiMxMDtMIDIxOTQgMTc1OSAmIzEwO3omIzEwO00gMzM0MSAxOTk3ICYjMTA7TCAzMzQxIDAgJiMxMDtMIDI3NjYgMCAmIzEwO0wgMjc2NiA1MzEgJiMxMDtRIDI1NjkgMjEzIDIyNzUgNjEgJiMxMDtRIDE5ODEgLTkxIDE1NTYgLTkxICYjMTA7USAxMDE5IC05MSA3MDEgMjExICYjMTA7USAzODQgNTEzIDM4NCAxMDE5ICYjMTA7USAzODQgMTYwOSA3NzkgMTkwOSAmIzEwO1EgMTE3NSAyMjA5IDE5NTkgMjIwOSAmIzEwO0wgMjc2NiAyMjA5ICYjMTA7TCAyNzY2IDIyNjYgJiMxMDtRIDI3NjYgMjY2MyAyNTA1IDI4ODAgJiMxMDtRIDIyNDQgMzA5NyAxNzcyIDMwOTcgJiMxMDtRIDE0NzIgMzA5NyAxMTg3IDMwMjUgJiMxMDtRIDkwMyAyOTUzIDY0MSAyODA5ICYjMTA7TCA2NDEgMzM0MSAmIzEwO1EgOTU2IDM0NjMgMTI1MyAzNTIzICYjMTA7USAxNTUwIDM1ODQgMTgzMSAzNTg0ICYjMTA7USAyNTkxIDM1ODQgMjk2NiAzMTkwICYjMTA7USAzMzQxIDI3OTcgMzM0MSAxOTk3ICYjMTA7eiIgaWQ9IkRlamFWdVNhbnMtNjEiLz4mI3hhOyAgICAgICA8cGF0aCB0cmFuc2Zvcm09InNjYWxlKDAuMDE1NjI1KSIgZD0iTSAyOTA2IDE3OTEgJiMxMDtRIDI5MDYgMjQxNiAyNjQ4IDI3NTkgJiMxMDtRIDIzOTEgMzEwMyAxOTI1IDMxMDMgJiMxMDtRIDE0NjMgMzEwMyAxMjA1IDI3NTkgJiMxMDtRIDk0NyAyNDE2IDk0NyAxNzkxICYjMTA7USA5NDcgMTE2OSAxMjA1IDgyNSAmIzEwO1EgMTQ2MyA0ODEgMTkyNSA0ODEgJiMxMDtRIDIzOTEgNDgxIDI2NDggODI1ICYjMTA7USAyOTA2IDExNjkgMjkwNiAxNzkxICYjMTA7eiYjMTA7TSAzNDgxIDQzNCAmIzEwO1EgMzQ4MSAtNDU5IDMwODQgLTg5NSAmIzEwO1EgMjY4OCAtMTMzMSAxODY5IC0xMzMxICYjMTA7USAxNTY2IC0xMzMxIDEyOTcgLTEyODYgJiMxMDtRIDEwMjggLTEyNDEgNzc1IC0xMTQ3ICYjMTA7TCA3NzUgLTU4OCAmIzEwO1EgMTAyOCAtNzI1IDEyNzUgLTc5MCAmIzEwO1EgMTUyMiAtODU2IDE3NzggLTg1NiAmIzEwO1EgMjM0NCAtODU2IDI2MjUgLTU2MSAmIzEwO1EgMjkwNiAtMjY2IDI5MDYgMzMxICYjMTA7TCAyOTA2IDYxNiAmIzEwO1EgMjcyOCAzMDYgMjQ1MCAxNTMgJiMxMDtRIDIxNzIgMCAxNzg0IDAgJiMxMDtRIDExNDEgMCA3NDcgNDkwICYjMTA7USAzNTMgOTgxIDM1MyAxNzkxICYjMTA7USAzNTMgMjYwMyA3NDcgMzA5MyAmIzEwO1EgMTE0MSAzNTg0IDE3ODQgMzU4NCAmIzEwO1EgMjE3MiAzNTg0IDI0NTAgMzQzMSAmIzEwO1EgMjcyOCAzMjc4IDI5MDYgMjk2OSAmIzEwO0wgMjkwNiAzNTAwICYjMTA7TCAzNDgxIDM1MDAgJiMxMDtMIDM0ODEgNDM0ICYjMTA7eiIgaWQ9IkRlamFWdVNhbnMtNjciLz4mI3hhOyAgICAgICA8cGF0aCB0cmFuc2Zvcm09InNjYWxlKDAuMDE1NjI1KSIgZD0iTSAzNTEzIDIxMTMgJiMxMDtMIDM1MTMgMCAmIzEwO0wgMjkzOCAwICYjMTA7TCAyOTM4IDIwOTQgJiMxMDtRIDI5MzggMjU5MSAyNzQ0IDI4MzcgJiMxMDtRIDI1NTAgMzA4NCAyMTYzIDMwODQgJiMxMDtRIDE2OTcgMzA4NCAxNDI4IDI3ODcgJiMxMDtRIDExNTkgMjQ5MSAxMTU5IDE5NzggJiMxMDtMIDExNTkgMCAmIzEwO0wgNTgxIDAgJiMxMDtMIDU4MSAzNTAwICYjMTA7TCAxMTU5IDM1MDAgJiMxMDtMIDExNTkgMjk1NiAmIzEwO1EgMTM2NiAzMjcyIDE2NDUgMzQyOCAmIzEwO1EgMTkyNSAzNTg0IDIyOTEgMzU4NCAmIzEwO1EgMjg5NCAzNTg0IDMyMDMgMzIxMSAmIzEwO1EgMzUxMyAyODM4IDM1MTMgMjExMyAmIzEwO3oiIGlkPSJEZWphVnVTYW5zLTZlIi8+JiN4YTsgICAgICAgPHBhdGggdHJhbnNmb3JtPSJzY2FsZSgwLjAxNTYyNSkiIGQ9Ik0gMzU5NyAxODk0ICYjMTA7TCAzNTk3IDE2MTMgJiMxMDtMIDk1MyAxNjEzICYjMTA7USA5OTEgMTAxOSAxMzExIDcwOCAmIzEwO1EgMTYzMSAzOTcgMjIwMyAzOTcgJiMxMDtRIDI1MzQgMzk3IDI4NDUgNDc4ICYjMTA7USAzMTU2IDU1OSAzNDYzIDcyMiAmIzEwO0wgMzQ2MyAxNzggJiMxMDtRIDMxNTMgNDcgMjgyOCAtMjIgJiMxMDtRIDI1MDMgLTkxIDIxNjkgLTkxICYjMTA7USAxMzMxIC05MSA4NDIgMzk2ICYjMTA7USAzNTMgODg0IDM1MyAxNzE2ICYjMTA7USAzNTMgMjU3NSA4MTcgMzA3OSAmIzEwO1EgMTI4MSAzNTg0IDIwNjkgMzU4NCAmIzEwO1EgMjc3NSAzNTg0IDMxODYgMzEyOSAmIzEwO1EgMzU5NyAyNjc1IDM1OTcgMTg5NCAmIzEwO3omIzEwO00gMzAyMiAyMDYzICYjMTA7USAzMDE2IDI1MzQgMjc1OCAyODE1ICYjMTA7USAyNTAwIDMwOTcgMjA3NSAzMDk3ICYjMTA7USAxNTk0IDMwOTcgMTMwNSAyODI1ICYjMTA7USAxMDE2IDI1NTMgOTcyIDIwNTkgJiMxMDtMIDMwMjIgMjA2MyAmIzEwO3oiIGlkPSJEZWphVnVTYW5zLTY1Ii8+JiN4YTsgICAgICAgPHBhdGggdHJhbnNmb3JtPSJzY2FsZSgwLjAxNTYyNSkiIGQ9Ik0gMTE3MiA0NDk0ICYjMTA7TCAxMTcyIDM1MDAgJiMxMDtMIDIzNTYgMzUwMCAmIzEwO0wgMjM1NiAzMDUzICYjMTA7TCAxMTcyIDMwNTMgJiMxMDtMIDExNzIgMTE1MyAmIzEwO1EgMTE3MiA3MjUgMTI4OSA2MDMgJiMxMDtRIDE0MDYgNDgxIDE3NjYgNDgxICYjMTA7TCAyMzU2IDQ4MSAmIzEwO0wgMjM1NiAwICYjMTA7TCAxNzY2IDAgJiMxMDtRIDExMDAgMCA4NDcgMjQ4ICYjMTA7USA1OTQgNDk3IDU5NCAxMTUzICYjMTA7TCA1OTQgMzA1MyAmIzEwO0wgMTcyIDMwNTMgJiMxMDtMIDE3MiAzNTAwICYjMTA7TCA1OTQgMzUwMCAmIzEwO0wgNTk0IDQ0OTQgJiMxMDtMIDExNzIgNDQ5NCAmIzEwO3oiIGlkPSJEZWphVnVTYW5zLTc0Ii8+JiN4YTsgICAgICAgPHBhdGggdHJhbnNmb3JtPSJzY2FsZSgwLjAxNTYyNSkiIGQ9Ik0gNjAzIDM1MDAgJiMxMDtMIDExNzggMzUwMCAmIzEwO0wgMTE3OCAwICYjMTA7TCA2MDMgMCAmIzEwO0wgNjAzIDM1MDAgJiMxMDt6JiMxMDtNIDYwMyA0ODYzICYjMTA7TCAxMTc4IDQ4NjMgJiMxMDtMIDExNzggNDEzNCAmIzEwO0wgNjAzIDQxMzQgJiMxMDtMIDYwMyA0ODYzICYjMTA7eiIgaWQ9IkRlamFWdVNhbnMtNjkiLz4mI3hhOyAgICAgICA8cGF0aCB0cmFuc2Zvcm09InNjYWxlKDAuMDE1NjI1KSIgZD0iTSAzMTIyIDMzNjYgJiMxMDtMIDMxMjIgMjgyOCAmIzEwO1EgMjg3OCAyOTYzIDI2MzMgMzAzMCAmIzEwO1EgMjM4OCAzMDk3IDIxMzggMzA5NyAmIzEwO1EgMTU3OCAzMDk3IDEyNjggMjc0MiAmIzEwO1EgOTU5IDIzODggOTU5IDE3NDcgJiMxMDtRIDk1OSAxMTA2IDEyNjggNzUxICYjMTA7USAxNTc4IDM5NyAyMTM4IDM5NyAmIzEwO1EgMjM4OCAzOTcgMjYzMyA0NjQgJiMxMDtRIDI4NzggNTMxIDMxMjIgNjY2ICYjMTA7TCAzMTIyIDEzNCAmIzEwO1EgMjg4MSAyMiAyNjIzIC0zNCAmIzEwO1EgMjM2NiAtOTEgMjA3NSAtOTEgJiMxMDtRIDEyODQgLTkxIDgxOCA0MDYgJiMxMDtRIDM1MyA5MDMgMzUzIDE3NDcgJiMxMDtRIDM1MyAyNjAzIDgyMyAzMDkzICYjMTA7USAxMjk0IDM1ODQgMjExMyAzNTg0ICYjMTA7USAyMzc4IDM1ODQgMjYzMSAzNTI5ICYjMTA7USAyODg0IDM0NzUgMzEyMiAzMzY2ICYjMTA7eiIgaWQ9IkRlamFWdVNhbnMtNjMiLz4mI3hhOyAgICAgICA8cGF0aCB0cmFuc2Zvcm09InNjYWxlKDAuMDE1NjI1KSIgaWQ9IkRlamFWdVNhbnMtMjAiLz4mI3hhOyAgICAgICA8cGF0aCB0cmFuc2Zvcm09InNjYWxlKDAuMDE1NjI1KSIgZD0iTSA2MjggNDY2NiAmIzEwO0wgMzMwOSA0NjY2ICYjMTA7TCAzMzA5IDQxMzQgJiMxMDtMIDEyNTkgNDEzNCAmIzEwO0wgMTI1OSAyNzU5ICYjMTA7TCAzMTA5IDI3NTkgJiMxMDtMIDMxMDkgMjIyOCAmIzEwO0wgMTI1OSAyMjI4ICYjMTA7TCAxMjU5IDAgJiMxMDtMIDYyOCAwICYjMTA7TCA2MjggNDY2NiAmIzEwO3oiIGlkPSJEZWphVnVTYW5zLTQ2Ii8+JiN4YTsgICAgICAgPHBhdGggdHJhbnNmb3JtPSJzY2FsZSgwLjAxNTYyNSkiIGQ9Ik0gNjAzIDQ4NjMgJiMxMDtMIDExNzggNDg2MyAmIzEwO0wgMTE3OCAwICYjMTA7TCA2MDMgMCAmIzEwO0wgNjAzIDQ4NjMgJiMxMDt6IiBpZD0iRGVqYVZ1U2Fucy02YyIvPiYjeGE7ICAgICAgIDxwYXRoIHRyYW5zZm9ybT0ic2NhbGUoMC4wMTU2MjUpIiBkPSJNIDI5MDYgMjk2OSAmIzEwO0wgMjkwNiA0ODYzICYjMTA7TCAzNDgxIDQ4NjMgJiMxMDtMIDM0ODEgMCAmIzEwO0wgMjkwNiAwICYjMTA7TCAyOTA2IDUyNSAmIzEwO1EgMjcyNSAyMTMgMjQ0OCA2MSAmIzEwO1EgMjE3MiAtOTEgMTc4NCAtOTEgJiMxMDtRIDExNTAgLTkxIDc1MSA0MTUgJiMxMDtRIDM1MyA5MjIgMzUzIDE3NDcgJiMxMDtRIDM1MyAyNTcyIDc1MSAzMDc4ICYjMTA7USAxMTUwIDM1ODQgMTc4NCAzNTg0ICYjMTA7USAyMTcyIDM1ODQgMjQ0OCAzNDMyICYjMTA7USAyNzI1IDMyODEgMjkwNiAyOTY5ICYjMTA7eiYjMTA7TSA5NDcgMTc0NyAmIzEwO1EgOTQ3IDExMTMgMTIwOCA3NTIgJiMxMDtRIDE0NjkgMzkxIDE5MjUgMzkxICYjMTA7USAyMzgxIDM5MSAyNjQzIDc1MiAmIzEwO1EgMjkwNiAxMTEzIDI5MDYgMTc0NyAmIzEwO1EgMjkwNiAyMzgxIDI2NDMgMjc0MiAmIzEwO1EgMjM4MSAzMTAzIDE5MjUgMzEwMyAmIzEwO1EgMTQ2OSAzMTAzIDEyMDggMjc0MiAmIzEwO1EgOTQ3IDIzODEgOTQ3IDE3NDcgJiMxMDt6IiBpZD0iRGVqYVZ1U2Fucy02NCIvPiYjeGE7ICAgICAgIDxwYXRoIHRyYW5zZm9ybT0ic2NhbGUoMC4wMTU2MjUpIiBkPSJNIDU1MCA0ODYzICYjMTA7TCAxODc1IDQ4NjMgJiMxMDtMIDE4NzUgNDQxNiAmIzEwO0wgMTEyNSA0NDE2ICYjMTA7TCAxMTI1IC0zOTcgJiMxMDtMIDE4NzUgLTM5NyAmIzEwO0wgMTg3NSAtODQ0ICYjMTA7TCA1NTAgLTg0NCAmIzEwO0wgNTUwIDQ4NjMgJiMxMDt6IiBpZD0iRGVqYVZ1U2Fucy01YiIvPiYjeGE7ICAgICAgIDxwYXRoIHRyYW5zZm9ybT0ic2NhbGUoMC4wMTU2MjUpIiBkPSJNIC04NCAtMTMzMSAmIzEwO0wgODU2IDM1MDAgJiMxMDtMIDE0MzQgMzUwMCAmIzEwO0wgMTAwOSAxMzIyICYjMTA7USA5OTcgMTI1NiA5ODcgMTE3NSAmIzEwO1EgOTc4IDEwOTQgOTc4IDEwMTMgJiMxMDtRIDk3OCA3MjIgMTE2MSA1NjUgJiMxMDtRIDEzNDQgNDA5IDE2ODQgNDA5ICYjMTA7USAyMTQ3IDQwOSAyNDMxIDY3MSAmIzEwO1EgMjcxNiA5MzQgMjgxNiAxNDU5ICYjMTA7TCAzMjEzIDM1MDAgJiMxMDtMIDM3ODggMzUwMCAmIzEwO0wgMzI2NiA4MDkgJiMxMDtRIDMyNTMgNzUwIDMyNDggNzA2ICYjMTA7USAzMjQ0IDY2MyAzMjQ0IDYyOCAmIzEwO1EgMzI0NCA1MzEgMzI4MyA0ODYgJiMxMDtRIDMzMjIgNDQxIDM0MDYgNDQxICYjMTA7USAzNDM4IDQ0MSAzNDkyIDQ1NiAmIzEwO1EgMzU0NyA0NzIgMzY0NyA1MTMgJiMxMDtMIDM1NTkgNTAgJiMxMDtRIDM0MjIgLTE5IDMyOTcgLTU1ICYjMTA7USAzMTcyIC05MSAzMDUzIC05MSAmIzEwO1EgMjg0NyAtOTEgMjczMCA0MCAmIzEwO1EgMjYxMyAxNzIgMjYxMyA0MDMgJiMxMDtRIDI0MzggMTUzIDIxOTUgMzEgJiMxMDtRIDE5NTMgLTkxIDE2MjUgLTkxICYjMTA7USAxMzM0IC05MSAxMTE3IDQzICYjMTA7USA5MDAgMTc4IDgzMSAzOTcgJiMxMDtMIDQ5NCAtMTMzMSAmIzEwO0wgLTg0IC0xMzMxICYjMTA7eiIgaWQ9IkRlamFWdVNhbnMtT2JsaXF1ZS0zYmMiLz4mI3hhOyAgICAgICA8cGF0aCB0cmFuc2Zvcm09InNjYWxlKDAuMDE1NjI1KSIgZD0iTSAtMTkgNDY2NiAmIzEwO0wgMzkyOCA0NjY2ICYjMTA7TCAzOTI4IDQxMzQgJiMxMDtMIDIyNzIgNDEzNCAmIzEwO0wgMjI3MiAwICYjMTA7TCAxNjM4IDAgJiMxMDtMIDE2MzggNDEzNCAmIzEwO0wgLTE5IDQxMzQgJiMxMDtMIC0xOSA0NjY2ICYjMTA7eiIgaWQ9IkRlamFWdVNhbnMtNTQiLz4mI3hhOyAgICAgICA8cGF0aCB0cmFuc2Zvcm09InNjYWxlKDAuMDE1NjI1KSIgZD0iTSAxOTQ3IDQ4NjMgJiMxMDtMIDE5NDcgLTg0NCAmIzEwO0wgNjIyIC04NDQgJiMxMDtMIDYyMiAtMzk3ICYjMTA7TCAxMzY5IC0zOTcgJiMxMDtMIDEzNjkgNDQxNiAmIzEwO0wgNjIyIDQ0MTYgJiMxMDtMIDYyMiA0ODYzICYjMTA7TCAxOTQ3IDQ4NjMgJiMxMDt6IiBpZD0iRGVqYVZ1U2Fucy01ZCIvPiYjeGE7ICAgICAgPC9kZWZzPiYjeGE7ICAgICAgPHVzZSB0cmFuc2Zvcm09InRyYW5zbGF0ZSgwIDAuMDE1NjI1KSIgeGxpbms6aHJlZj0iI0RlamFWdVNhbnMtNGQiLz4mI3hhOyAgICAgIDx1c2UgdHJhbnNmb3JtPSJ0cmFuc2xhdGUoODYuMjc5Mjk3IDAuMDE1NjI1KSIgeGxpbms6aHJlZj0iI0RlamFWdVNhbnMtNjEiLz4mI3hhOyAgICAgIDx1c2UgdHJhbnNmb3JtPSJ0cmFuc2xhdGUoMTQ3LjU1ODU5NCAwLjAxNTYyNSkiIHhsaW5rOmhyZWY9IiNEZWphVnVTYW5zLTY3Ii8+JiN4YTsgICAgICA8dXNlIHRyYW5zZm9ybT0idHJhbnNsYXRlKDIxMS4wMzUxNTYgMC4wMTU2MjUpIiB4bGluazpocmVmPSIjRGVqYVZ1U2Fucy02ZSIvPiYjeGE7ICAgICAgPHVzZSB0cmFuc2Zvcm09InRyYW5zbGF0ZSgyNzQuNDE0MDYyIDAuMDE1NjI1KSIgeGxpbms6aHJlZj0iI0RlamFWdVNhbnMtNjUiLz4mI3hhOyAgICAgIDx1c2UgdHJhbnNmb3JtPSJ0cmFuc2xhdGUoMzM1LjkzNzUgMC4wMTU2MjUpIiB4bGluazpocmVmPSIjRGVqYVZ1U2Fucy03NCIvPiYjeGE7ICAgICAgPHVzZSB0cmFuc2Zvcm09InRyYW5zbGF0ZSgzNzUuMTQ2NDg0IDAuMDE1NjI1KSIgeGxpbms6aHJlZj0iI0RlamFWdVNhbnMtNjkiLz4mI3hhOyAgICAgIDx1c2UgdHJhbnNmb3JtPSJ0cmFuc2xhdGUoNDAyLjkyOTY4OCAwLjAxNTYyNSkiIHhsaW5rOmhyZWY9IiNEZWphVnVTYW5zLTYzIi8+JiN4YTsgICAgICA8dXNlIHRyYW5zZm9ybT0idHJhbnNsYXRlKDQ1Ny45MTAxNTYgMC4wMTU2MjUpIiB4bGluazpocmVmPSIjRGVqYVZ1U2Fucy0yMCIvPiYjeGE7ICAgICAgPHVzZSB0cmFuc2Zvcm09InRyYW5zbGF0ZSg0ODkuNjk3MjY2IDAuMDE1NjI1KSIgeGxpbms6aHJlZj0iI0RlamFWdVNhbnMtNDYiLz4mI3hhOyAgICAgIDx1c2UgdHJhbnNmb3JtPSJ0cmFuc2xhdGUoNTQ3LjIxNjc5NyAwLjAxNTYyNSkiIHhsaW5rOmhyZWY9IiNEZWphVnVTYW5zLTY5Ii8+JiN4YTsgICAgICA8dXNlIHRyYW5zZm9ybT0idHJhbnNsYXRlKDU3NSAwLjAxNTYyNSkiIHhsaW5rOmhyZWY9IiNEZWphVnVTYW5zLTY1Ii8+JiN4YTsgICAgICA8dXNlIHRyYW5zZm9ybT0idHJhbnNsYXRlKDYzNi41MjM0MzggMC4wMTU2MjUpIiB4bGluazpocmVmPSIjRGVqYVZ1U2Fucy02YyIvPiYjeGE7ICAgICAgPHVzZSB0cmFuc2Zvcm09InRyYW5zbGF0ZSg2NjQuMzA2NjQxIDAuMDE1NjI1KSIgeGxpbms6aHJlZj0iI0RlamFWdVNhbnMtNjQiLz4mI3hhOyAgICAgIDx1c2UgdHJhbnNmb3JtPSJ0cmFuc2xhdGUoNzI3Ljc4MzIwMyAwLjAxNTYyNSkiIHhsaW5rOmhyZWY9IiNEZWphVnVTYW5zLTIwIi8+JiN4YTsgICAgICA8dXNlIHRyYW5zZm9ybT0idHJhbnNsYXRlKDc1OS41NzAzMTIgMC4wMTU2MjUpIiB4bGluazpocmVmPSIjRGVqYVZ1U2Fucy01YiIvPiYjeGE7ICAgICAgPHVzZSB0cmFuc2Zvcm09InRyYW5zbGF0ZSg3OTguNTgzOTg0IDAuMDE1NjI1KSIgeGxpbms6aHJlZj0iI0RlamFWdVNhbnMtT2JsaXF1ZS0zYmMiLz4mI3hhOyAgICAgIDx1c2UgdHJhbnNmb3JtPSJ0cmFuc2xhdGUoODYyLjIwNzAzMSAwLjAxNTYyNSkiIHhsaW5rOmhyZWY9IiNEZWphVnVTYW5zLTU0Ii8+JiN4YTsgICAgICA8dXNlIHRyYW5zZm9ybT0idHJhbnNsYXRlKDkyMy4yOTEwMTYgMC4wMTU2MjUpIiB4bGluazpocmVmPSIjRGVqYVZ1U2Fucy01ZCIvPiYjeGE7ICAgICA8L2c+JiN4YTsgICAgPC9nPiYjeGE7ICAgPC9nPiYjeGE7ICAgPGcgaWQ9ImxpbmUyZF8yMyI+JiN4YTsgICAgPHBhdGggc3R5bGU9ImZpbGw6IG5vbmU7IHN0cm9rZTogIzQ0MDE1NDsgc3Ryb2tlLXdpZHRoOiAxLjU7IHN0cm9rZS1saW5lY2FwOiBzcXVhcmUiIGNsaXAtcGF0aD0idXJsKCNwZDM5OGRmZTg5ZCkiIGQ9Ik0gOTUuNDAxOTA1IDE4Ny40MTE0MjQgJiMxMDtMIDk1Ljg0MzU1OCAyMDQuMTg3MTc2ICYjMTA7TCA5Ni4yODUyMTEgMTk1Ljc5ODMxNCAmIzEwO0wgOTYuNzI2ODY0IDE5My4wMDE2MTIgJiMxMDtMIDk3LjE2ODUxNyAxOTEuNjAyOTY1ICYjMTA7TCA5Ny42MTAxNzEgMTkwLjc2MzU1MiAmIzEwO0wgOTguNDkzNDc3IDE4OS44MDM3NzQgJiMxMDtMIDk5LjM3Njc4MyAxODkuMjcwMTQxICYjMTA7TCAxMDAuNzAxNzQzIDE4OC44MDI3MDUgJiMxMDtMIDEwMi40NjgzNTUgMTg4LjQ1MTU3ICYjMTA7TCAxMDMuNzkzMzE1IDE4OC4yODQ5OTkgJiMxMDtMIDEwNC4yMzQ5NjggMTg3Ljk4MTg1MSAmIzEwO0wgMTA4LjIwOTg0NyAxODguMjMyMjUgJiMxMDtMIDExNS4yNzYyOTcgMTg4LjQxNjI1MSAmIzEwO0wgMTMwLjI5MjUwNSAxODguNTM3NjUxICYjMTA7TCAxMzMuODI1NzMgMTg4LjU1MDQ2OSAmIzEwO0wgMTM0LjI2NzM4MyAxODguMzA0ODU1ICYjMTA7TCAxNDkuNzI1MjQ0IDE4OC41MzEzNDMgJiMxMDtMIDE1OC41NTgzMDcgMTg4LjUxMzc5NSAmIzEwO0wgMTcyLjY5MTIwOSAxODguMjExMzgzICYjMTA7TCAxNzMuMTMyODYyIDE4OC4zNjI5ODcgJiMxMDtMIDI0Ni44ODg5NDEgMTg3Ljg3ODY3OCAmIzEwO0wgMjY0Ljk5NjcyIDE4Ny43ODU2MjQgJiMxMDtMIDI3Ni40Nzk3MDMgMTg3LjY5Mjc3MiAmIzEwO0wgMzA0Ljc0NTUwNSAxODcuMzAzNTcxICYjMTA7TCAzMjUuNTAzMjA0IDE4Ny4xMTI2MTMgJiMxMDtMIDM1Mi44ODU3IDE4Ni42NDEzOTQgJiMxMDtMIDM2OS42Njg1MjEgMTg2LjM5MTE3NSAmIzEwO0wgMzk4LjgxNzYzIDE4NS43OTcwMjkgJiMxMDtMIDQwOS44NTg5NTkgMTg1LjYxNzYzNCAmIzEwO0wgNDM5Ljg5MTM3NCAxODQuOTQ2OTMxICYjMTA7TCA0NDEuMjE2MzMzIDE4NC44Nzk3NDkgJiMxMDtMIDQ3My40NTcwMTUgMTg0LjA1OTI0NSAmIzEwO0wgNTE2LjczOTAyNSAxODIuNjc4MzUyICYjMTA7TCA1NTYuNDg3ODEgMTgxLjEzMzg2MyAmIzEwO0wgNTg4LjI4NjgzOCAxNzkuNjU1MTA0ICYjMTA7TCA2MjkuODAyMjM1IDE3Ny4zMjE5NzUgJiMxMDtMIDY2Mi4wNDI5MTYgMTc1LjA5MjQyMSAmIzEwO0wgNjk0LjcyNTI1IDE3Mi4zOTQ4ICYjMTA7TCA3MDguNDE2NDk5IDE3MS4xMTg1NjQgJiMxMDtMIDcxNS45MjQ2MDIgMTcwLjMxNTg4MiAmIzEwO0wgNzQ1LjA3MzcxMSAxNjcuMDA0MzI3ICYjMTA7TCA3NTcuNDQgMTY1LjM5MTIyNiAmIzEwO0wgNzU3LjQ0IDE2NS4zOTEyMjYiLz4mI3hhOyAgIDwvZz4mI3hhOyAgIDxnIGlkPSJsaW5lMmRfMjQiPiYjeGE7ICAgIDxwYXRoIHN0eWxlPSJmaWxsOiBub25lOyBzdHJva2U6ICMzMTY4OGU7IHN0cm9rZS13aWR0aDogMS41OyBzdHJva2UtbGluZWNhcDogc3F1YXJlIiBjbGlwLXBhdGg9InVybCgjcGQzOThkZmU4OWQpIiBkPSJNIDk1LjQwMTkwNSAxNTYuNzE4Njk0ICYjMTA7TCA5NS44NDM1NTggMTg4LjE3NzAwNSAmIzEwO0wgOTYuMjg1MjExIDE3Mi40NDYxNzMgJiMxMDtMIDk2LjcyNjg2NCAxNjcuMjAxODgxICYjMTA7TCA5Ny4xNjg1MTcgMTY0LjU3OTI2NiAmIzEwO0wgOTcuNjEwMTcxIDE2My4wMDUzNTIgJiMxMDtMIDk4LjA1MTgyNCAxNjEuOTU1ODE2ICYjMTA7TCA5OC45MzUxMyAxNjAuNjQzMzkgJiMxMDtMIDk5LjgxODQzNiAxNTkuODU1NTAyICYjMTA7TCAxMDEuMTQzMzk2IDE1OS4xMjc4MTEgJiMxMDtMIDEwMi40NjgzNTUgMTU4LjY3Mjg0NSAmIzEwO0wgMTAzLjc5MzMxNSAxNTguMzYxNjQ1ICYjMTA7TCAxMDQuMjM0OTY4IDE1Ny43MjI3MDIgJiMxMDtMIDEwNi44ODQ4ODcgMTU4LjEwNDY2NCAmIzEwO0wgMTEwLjg1OTc2NiAxNTguNDIyMTQgJiMxMDtMIDExNy40ODQ1NjMgMTU4LjY4NDIxNCAmIzEwO0wgMTI5LjQwOTE5OSAxNTguODkwODcgJiMxMDtMIDEzMy44MjU3MyAxNTguOTM4MjA4ICYjMTA7TCAxMzQuMjY3MzgzIDE1OC40NzUwNTkgJiMxMDtMIDE1My43MDAxMjMgMTU4LjY2ODEzMSAmIzEwO0wgMTU3LjIzMzM0OCAxNTguNjkxNzc2ICYjMTA7TCAxNTcuNjc1MDAxIDE1OC41MjE0MTEgJiMxMDtMIDE3MC45MjQ1OTYgMTU3Ljk4MjAzICYjMTA7TCAxNzIuNjkxMjA5IDE1Ny45MjQ2NiAmIzEwO0wgMTczLjEzMjg2MiAxNTguMzA0OTE1ICYjMTA7TCAxODkuMDMyMzc2IDE1Ny43MDMzOTkgJiMxMDtMIDIwMi43MjM2MjQgMTU3LjMzNDYxNCAmIzEwO0wgMjAzLjYwNjkzIDE1Ny40MzI5NDggJiMxMDtMIDIxMi44ODE2NDcgMTU3LjM2OTI2NiAmIzEwO0wgMjEzLjMyMzMgMTU2Ljg1NDk4MyAmIzEwO0wgMjE2Ljg1NjUyNSAxNTYuODUzMTg4ICYjMTA7TCAyMTcuMjk4MTc4IDE1Ny4xODE5MjUgJiMxMDtMIDIzNy4xNzI1NzEgMTU2LjI2MDY2NyAmIzEwO0wgMjUzLjUxMzczOCAxNTUuNjU1ODUgJiMxMDtMIDI1My45NTUzOTEgMTU1LjM5NDI5NiAmIzEwO0wgMjY5LjQxMzI1MiAxNTQuOTY5MjI0ICYjMTA7TCAyNjkuODU0OTA1IDE1NS4wNzk0MjYgJiMxMDtMIDI4Ny4wNzkzNzkgMTUzLjgzMTMyNiAmIzEwO0wgMzA5LjYwMzY5IDE1Mi40NDU2MTEgJiMxMDtMIDMxOC40MzY3NTMgMTUyLjAzNDU2OSAmIzEwO0wgMzE4Ljg3ODQwNyAxNTIuMTU2Nzg2ICYjMTA7TCAzMzQuNzc3OTIxIDE1MC40MDE4NzcgJiMxMDtMIDM1MC4yMzU3ODEgMTQ4LjkwNDcyNSAmIzEwO0wgMzY2LjU3Njk0OCAxNDcuNjk4OTI3ICYjMTA7TCAzODMuMzU5NzY5IDE0NS40MjA2MzIgJiMxMDtMIDM5NS43MjYwNTcgMTQzLjcxNTk2MiAmIzEwO0wgNDAwLjE0MjU4OSAxNDMuMTI5MzY4ICYjMTA7TCA0MDAuNTg0MjQyIDE0My4yOTU4MTIgJiMxMDtMIDQxNi40ODM3NTYgMTQwLjcxMjg4NCAmIzEwO0wgNDI4Ljg1MDA0NSAxMzguODU2OTQ3ICYjMTA7TCA0MjkuMjkxNjk4IDEzOC4yMzY2ODIgJiMxMDtMIDQzMy4yNjY1NzYgMTM3LjQ0NDMyNSAmIzEwO0wgNDMzLjcwODIzIDEzOC4xMjM3OTcgJiMxMDtMIDQzOS44OTEzNzQgMTM2LjQ4MTM3MSAmIzEwO0wgNDQwLjMzMzAyNyAxMzYuMTE1Nzc3ICYjMTA7TCA0NjEuMDkwNzI2IDEzMi4xMzAyMyAmIzEwO0wgNDY1LjA2NTYwNCAxMzEuMzk0ODQgJiMxMDtMIDQ2NS41MDcyNTggMTMxLjA2OTY3MSAmIzEwO0wgNDgzLjE3MzM4NCAxMjUuOTgwOTk3ICYjMTA7TCA0ODUuMzgxNjUgMTI1LjM2MTY2ICYjMTA7TCA0ODUuODIzMzAzIDEyNS4wMTk2NTUgJiMxMDtMIDQ4Ny41ODk5MTYgMTI0LjUzMTg0NyAmIzEwO0wgNDg4LjAzMTU2OSAxMjQuODI2MDcxICYjMTA7TCA0OTAuNjgxNDg4IDEyMy43NzEwOTYgJiMxMDtMIDUwOS42NzI1NzQgMTE3LjgzOTEwNCAmIzEwO0wgNTIwLjI3MjI1IDExMy45MDQ1ODUgJiMxMDtMIDUyMC43MTM5MDMgMTEzLjg4ODk0MSAmIzEwO0wgNTIzLjM2MzgyMiAxMTMuMDA3NDg5ICYjMTA7TCA1MjMuODA1NDc1IDExMi4zOTUxNDUgJiMxMDtMIDUyNC42ODg3ODIgMTEyLjE1NDUyOSAmIzEwO0wgNTI1LjEzMDQzNSAxMTIuMzI3MTY4ICYjMTA7TCA1NDAuMTQ2NjQzIDEwNi41MTQ1NDkgJiMxMDtMIDU0MC41ODgyOTYgMTA2LjEzMjU5NSAmIzEwO0wgNTQ3LjIxMzA5MyAxMDMuOTY5NjY4ICYjMTA7TCA1NTQuNzIxMTk3IDEwMC44NDU0NjUgJiMxMDtMIDU2Ni4yMDQxNzkgOTYuNzM5NTU2ICYjMTA7TCA1NjYuNjQ1ODMyIDk2LjMxMDUxNCAmIzEwO0wgNTY3LjA4NzQ4NiA5Ni41NDgzMTggJiMxMDtMIDU2Ny41MjkxMzkgOTYuMzg3NDQgJiMxMDtMIDU2Ny45NzA3OTIgOTYuMDU4NzcyICYjMTA7TCA1NzguMTI4ODE1IDkyLjM4Nzc4NyAmIzEwO0wgNTgwLjc3ODczNCA5MS40ODIyODIgJiMxMDtMIDU4OC4yODY4MzggODkuMzkwODI5ICYjMTA7TCA1OTQuMDI4MzI5IDg3LjM0MTkxNSAmIzEwO0wgNjAyLjQxOTczOSA4NS4zMTkzODIgJiMxMDtMIDYwNi4zOTQ2MTcgODQuMjg2NjE4ICYjMTA7TCA2MDYuODM2MjcxIDg0LjM4OTkwNCAmIzEwO0wgNjA3LjcxOTU3NyA4NC4xMDY5OTMgJiMxMDtMIDYwOC4xNjEyMyA4My43MDkxNzMgJiMxMDtMIDYxNC4zNDQzNzQgODIuNDkyMzg1ICYjMTA7TCA2MjQuMDYwNzQ0IDgwLjM3NjMzNyAmIzEwO0wgNjI5LjM2MDU4MiA3OS40OTA0NjYgJiMxMDtMIDY0Mi4xNjg1MjQgNzcuMjM1MDA1ICYjMTA7TCA2NTQuNTM0ODEyIDc1LjM0NDQ1NiAmIzEwO0wgNjU5LjM5Mjk5NyA3NC41NzgzNzcgJiMxMDtMIDY2Ny4zNDI3NTQgNzMuNTgxMjYzICYjMTA7TCA2ODIuMzU4OTYyIDcxLjQwMzc0MiAmIzEwO0wgNjg4LjEwMDQ1MyA3MC41MzU3NTUgJiMxMDtMIDY5NC43MjUyNSA2OS41NDQ3MDggJiMxMDtMIDcwMy45OTk5NjcgNjguMDg1OTAyICYjMTA7TCA3MTguMTMyODY4IDY1LjY3MDM2OSAmIzEwO0wgNzIwLjM0MTEzNCA2NS4yNzc2NjMgJiMxMDtMIDcyOC4yOTA4OTEgNjMuODMwOTM3ICYjMTA7TCA3NDIuNDIzNzkyIDYwLjkwNjM5NiAmIzEwO0wgNzUwLjgxNTIwMyA1OC45ODQ4MDEgJiMxMDtMIDc1NC4zNDg0MjggNTguMTM2NTU5ICYjMTA7TCA3NTcuNDQgNTcuMzc3Njk2ICYjMTA7TCA3NTcuNDQgNTcuMzc3Njk2Ii8+JiN4YTsgICA8L2c+JiN4YTsgICA8ZyBpZD0ibGluZTJkXzI1Ij4mI3hhOyAgICA8cGF0aCBzdHlsZT0iZmlsbDogbm9uZTsgc3Ryb2tlOiAjMzViNzc5OyBzdHJva2Utd2lkdGg6IDEuNTsgc3Ryb2tlLWxpbmVjYXA6IHNxdWFyZSIgY2xpcC1wYXRoPSJ1cmwoI3BkMzk4ZGZlODlkKSIgZD0iTSA5NS40MDE5MDUgMTQ5LjU2NjA5MiAmIzEwO0wgOTUuODQzNTU4IDE4NC4yOTMxMjYgJiMxMDtMIDk2LjI4NTIxMSAxNjYuOTI3Nzg1ICYjMTA7TCA5Ni43MjY4NjQgMTYxLjEzODYwMiAmIzEwO0wgOTcuMTY4NTE3IDE1OC4yNDM1MDUgJiMxMDtMIDk3LjYxMDE3MSAxNTYuNTA2MDc4ICYjMTA7TCA5OC4wNTE4MjQgMTU1LjM0NzUxOCAmIzEwO0wgOTguOTM1MTMgMTUzLjg5ODc4NyAmIzEwO0wgOTkuODE4NDM2IDE1My4wMjkxMDUgJiMxMDtMIDEwMC43MDE3NDMgMTUyLjQ0OTA3MSAmIzEwO0wgMTAyLjAyNjcwMiAxNTEuODY4ODc5ICYjMTA7TCAxMDMuNzkzMzE1IDE1MS4zODA0NzIgJiMxMDtMIDEwNC4yMzQ5NjggMTUwLjY2Mzg1NSAmIzEwO0wgMTA2Ljg4NDg4NyAxNTEuMDkwMzk5ICYjMTA7TCAxMTAuNDE4MTEyIDE1MS40MTU3NSAmIzEwO0wgMTE2LjE1OTYwNCAxNTEuNjk2NTU4ICYjMTA7TCAxMjYuMzE3NjI2IDE1MS45MjkyMzkgJiMxMDtMIDEzMy44MjU3MyAxNTIuMDI4NSAmIzEwO0wgMTM0LjI2NzM4MyAxNTEuNTE2Mzc0ICYjMTA7TCAxNTYuMzUwMDQyIDE1MS42OTYxMzYgJiMxMDtMIDE1Ny4yMzMzNDggMTUxLjcwMTUwNyAmIzEwO0wgMTU3LjY3NTAwMSAxNTEuNTAyNTEyICYjMTA7TCAxNzAuMDQxMjkgMTUwLjkzODc3MyAmIzEwO0wgMTcyLjY5MTIwOSAxNTAuODQzMTQxICYjMTA7TCAxNzMuMTMyODYyIDE1MS4yNzkxNjIgJiMxMDtMIDE4Ni44MjQxMSAxNTAuNjI3NjQxICYjMTA7TCAyMDIuNzIzNjI0IDE1MC4wOTQ3OTUgJiMxMDtMIDIwMy4xNjUyNzcgMTUwLjIxMzY3ICYjMTA7TCAyMTIuODgxNjQ3IDE1MC4xMzExNjkgJiMxMDtMIDIxMy4zMjMzIDE0OS41MjAyMzkgJiMxMDtMIDIxNi44NTY1MjUgMTQ5LjUwNTI3NyAmIzEwO0wgMjE3LjI5ODE3OCAxNDkuODk2Nzg5ICYjMTA7TCAyMzQuNTIyNjUyIDE0OC45MTk0MzUgJiMxMDtMIDI1My41MTM3MzggMTQ4LjA2OTcyOSAmIzEwO0wgMjUzLjk1NTM5MSAxNDcuNzQ4NjY1ICYjMTA7TCAyNjkuNDEzMjUyIDE0Ny4xOTkyNTggJiMxMDtMIDI2OS44NTQ5MDUgMTQ3LjMzMzg3NyAmIzEwO0wgMjg1LjMxMjc2NiAxNDUuOTcyNzYzICYjMTA7TCAzMDguNzIwMzg0IDE0NC4xODIxODQgJiMxMDtMIDMxOC40MzY3NTMgMTQzLjYxNzQ0OCAmIzEwO0wgMzE4Ljg3ODQwNyAxNDMuNzcwNzUxICYjMTA7TCAzMzMuMDExMzA4IDE0MS44NTEwMDYgJiMxMDtMIDM0OS4zNTI0NzUgMTM5Ljg2Mjg2MSAmIzEwO0wgMzY2LjU3Njk0OCAxMzguMzA4NjU0ICYjMTA7TCAzODEuMTUxNTAzIDEzNS44Mzg0MjUgJiMxMDtMIDQwMC4xNDI1ODkgMTMyLjY2MDM0MyAmIzEwO0wgNDAwLjU4NDI0MiAxMzIuODY1MjcgJiMxMDtMIDQxNC43MTcxNDMgMTI5Ljk5ODkzOSAmIzEwO0wgNDI4Ljg1MDA0NSAxMjcuMzU1MzIyICYjMTA7TCA0MjkuMjkxNjk4IDEyNi41NzUyMTEgJiMxMDtMIDQzMy4yNjY1NzYgMTI1LjU5MTc0ICYjMTA7TCA0MzMuNzA4MjMgMTI2LjQ1MTQzMyAmIzEwO0wgNDM5Ljg5MTM3NCAxMjQuNDAwMDE2ICYjMTA7TCA0NDAuMzMzMDI3IDEyMy45Mzk5OTMgJiMxMDtMIDQ1OC44ODI0NiAxMTkuNDk3OTI4ICYjMTA7TCA0NjUuMDY1NjA0IDExOC4wNzEzNjUgJiMxMDtMIDQ2NS41MDcyNTggMTE3LjY1OTk5MiAmIzEwO0wgNDgxLjg0ODQyNSAxMTEuNzc5MjU5ICYjMTA7TCA0ODUuMzgxNjUgMTEwLjU0MDkyICYjMTA7TCA0ODUuODIzMzAzIDExMC4xMDExMzMgJiMxMDtMIDQ4Ny41ODk5MTYgMTA5LjQ5MTEzNiAmIzEwO0wgNDg4LjAzMTU2OSAxMDkuODkwMDc4ICYjMTA7TCA0OTAuNjgxNDg4IDEwOC41NTI4OTUgJiMxMDtMIDUwOS4yMzA5MjEgMTAxLjM2OTQxNSAmIzEwO0wgNTIwLjI3MjI1IDk2LjI2NDM3NyAmIzEwO0wgNTIwLjcxMzkwMyA5Ni4yNDY5NDQgJiMxMDtMIDUyMy4zNjM4MjIgOTUuMTQ5MzU0ICYjMTA7TCA1MjMuODA1NDc1IDk0LjM4NDgzICYjMTA7TCA1MjQuNjg4NzgyIDk0LjA4OTM3NiAmIzEwO0wgNTI1LjEzMDQzNSA5NC4zMDYxOTkgJiMxMDtMIDU0MC4xNDY2NDMgODcuMDgzNjAyICYjMTA7TCA1NDAuNTg4Mjk2IDg2LjYwOTk0NSAmIzEwO0wgNTQ3LjIxMzA5MyA4My45NTcyOTIgJiMxMDtMIDU1NC4yNzk1NDQgODAuMjc0NDA2ICYjMTA7TCA1NjQuODc5MjIgNzUuNjcwNDk3ICYjMTA7TCA1NjYuMjA0MTc5IDc1LjA3ODQ0NiAmIzEwO0wgNTY2LjY0NTgzMiA3NC41NDU3MDUgJiMxMDtMIDU2Ny4wODc0ODYgNzQuODQ3OTI2ICYjMTA7TCA1NjcuNTI5MTM5IDc0LjY1MzcxMiAmIzEwO0wgNTY3Ljk3MDc5MiA3NC4yNDc0NiAmIzEwO0wgNTc2LjgwMzg1NSA3MC4zODI3MDkgJiMxMDtMIDU4MC43Nzg3MzQgNjguNjk2Nzg3ICYjMTA7TCA1ODguMjg2ODM4IDY2LjIzMTMxICYjMTA7TCA1OTQuMDI4MzI5IDYzLjc2MDEyNyAmIzEwO0wgNjAxLjUzNjQzMyA2MS43MDE3NiAmIzEwO0wgNjA2LjM5NDYxNyA2MC4yNDkwMzkgJiMxMDtMIDYwNi44MzYyNzEgNjAuNDI2ICYjMTA7TCA2MDcuNzE5NTc3IDYwLjA5NTIzOCAmIzEwO0wgNjA4LjE2MTIzIDU5LjU1OTExNCAmIzEwO0wgNjEzLjkwMjcyMSA1OC4zNTU3NjUgJiMxMDtMIDYyMS40MTA4MjUgNTYuMzQ4Nzg1ICYjMTA7TCA2MjIuNzM1Nzg0IDU1Ljk3MTMzMiAmIzEwO0wgNjIzLjE3NzQzOCA1Ni4wMzM5OTcgJiMxMDtMIDYyOC4wMzU2MjIgNTUuMjg1NTQgJiMxMDtMIDYyOS4zNjA1ODIgNTQuOTgwMDE5ICYjMTA7TCA2MzYuNDI3MDMzIDUzLjUxNzU4NCAmIzEwO0wgNjM4LjYzNTI5OCA1My4xMjg1MyAmIzEwO0wgNjQ1LjcwMTc0OSA1Mi4xNDA4MzcgJiMxMDtMIDY0OS4yMzQ5NzQgNTEuNTY3Njk1ICYjMTA7TCA2NDkuNjc2NjI4IDUxLjY0NTc5NCAmIzEwO0wgNjU2LjMwMTQyNSA1MC41MzA3MzUgJiMxMDtMIDY1Ni43NDMwNzggNTAuMzA2NTg0ICYjMTA7TCA2NjMuODA5NTI5IDQ5LjY3NzU4NyAmIzEwO0wgNjY5LjEwOTM2NyA0OS4wMjI1MzIgJiMxMDtMIDY3Ny45NDI0MyA0Ny43OTIwMjcgJiMxMDtMIDY4NS4wMDg4ODEgNDcuMDYwNDE1ICYjMTA7TCA2OTEuNjMzNjc4IDQ2LjA0OTY4NCAmIzEwO0wgNjkyLjUxNjk4NSA0NS45MDMzOTEgJiMxMDtMIDY5My40MDAyOTEgNDUuOTAyMTk3ICYjMTA7TCA2OTguNzAwMTI5IDQ1LjIzOTgwOCAmIzEwO0wgNzA2LjIwODIzMyA0NC4yMDUwNTEgJiMxMDtMIDcxMy43MTYzMzcgNDMuMTY0MzEyICYjMTA7TCA3MjUuMTk5MzE5IDQxLjQzNjg5OSAmIzEwO0wgNzM0LjAzMjM4MiAzOS45MDMwODkgJiMxMDtMIDc0MS41NDA0ODYgMzguNTgyMTM0ICYjMTA7TCA3NDkuNDkwMjQzIDM3LjAxMjkyOCAmIzEwO0wgNzU3LjQ0IDM1LjMyMzE5OSAmIzEwO0wgNzU3LjQ0IDM1LjMyMzE5OSIvPiYjeGE7ICAgPC9nPiYjeGE7ICAgPGcgaWQ9InBhdGNoXzMiPiYjeGE7ICAgIDxwYXRoIHN0eWxlPSJmaWxsOiBub25lOyBzdHJva2U6ICMwMDAwMDA7IHN0cm9rZS13aWR0aDogMC44OyBzdHJva2UtbGluZWpvaW46IG1pdGVyOyBzdHJva2UtbGluZWNhcDogc3F1YXJlIiBkPSJNIDYyLjMgMjEyLjYzMDM3NSAmIzEwO0wgNjIuMyAyNi44OCIvPiYjeGE7ICAgPC9nPiYjeGE7ICAgPGcgaWQ9InBhdGNoXzQiPiYjeGE7ICAgIDxwYXRoIHN0eWxlPSJmaWxsOiBub25lOyBzdHJva2U6ICMwMDAwMDA7IHN0cm9rZS13aWR0aDogMC44OyBzdHJva2UtbGluZWpvaW46IG1pdGVyOyBzdHJva2UtbGluZWNhcDogc3F1YXJlIiBkPSJNIDc1Ny40NCAyMTIuNjMwMzc1ICYjMTA7TCA3NTcuNDQgMjYuODgiLz4mI3hhOyAgIDwvZz4mI3hhOyAgIDxnIGlkPSJwYXRjaF81Ij4mI3hhOyAgICA8cGF0aCBzdHlsZT0iZmlsbDogbm9uZTsgc3Ryb2tlOiAjMDAwMDAwOyBzdHJva2Utd2lkdGg6IDAuODsgc3Ryb2tlLWxpbmVqb2luOiBtaXRlcjsgc3Ryb2tlLWxpbmVjYXA6IHNxdWFyZSIgZD0iTSA2Mi4zIDIxMi42MzAzNzUgJiMxMDtMIDc1Ny40NCAyMTIuNjMwMzc1Ii8+JiN4YTsgICA8L2c+JiN4YTsgICA8ZyBpZD0icGF0Y2hfNiI+JiN4YTsgICAgPHBhdGggc3R5bGU9ImZpbGw6IG5vbmU7IHN0cm9rZTogIzAwMDAwMDsgc3Ryb2tlLXdpZHRoOiAwLjg7IHN0cm9rZS1saW5lam9pbjogbWl0ZXI7IHN0cm9rZS1saW5lY2FwOiBzcXVhcmUiIGQ9Ik0gNjIuMyAyNi44OCAmIzEwO0wgNzU3LjQ0IDI2Ljg4Ii8+JiN4YTsgICA8L2c+JiN4YTsgICA8ZyBpZD0idGV4dF8xMyI+JiN4YTsgICAgJiN4YTsgICAgPGcgdHJhbnNmb3JtPSJ0cmFuc2xhdGUoNDAzLjI3IDIwLjg4KSBzY2FsZSgwLjEyIC0wLjEyKSI+JiN4YTsgICAgIDxkZWZzPiYjeGE7ICAgICAgPHBhdGggdHJhbnNmb3JtPSJzY2FsZSgwLjAxNTYyNSkiIGQ9Ik0gMTI1OSAyMjI4ICYjMTA7TCAxMjU5IDUxOSAmIzEwO0wgMjI3MiA1MTkgJiMxMDtRIDI3ODEgNTE5IDMwMjYgNzMwICYjMTA7USAzMjcyIDk0MSAzMjcyIDEzNzUgJiMxMDtRIDMyNzIgMTgxMyAzMDI2IDIwMjAgJiMxMDtRIDI3ODEgMjIyOCAyMjcyIDIyMjggJiMxMDtMIDEyNTkgMjIyOCAmIzEwO3omIzEwO00gMTI1OSA0MTQ3ICYjMTA7TCAxMjU5IDI3NDEgJiMxMDtMIDIxOTQgMjc0MSAmIzEwO1EgMjY1NiAyNzQxIDI4ODIgMjkxNCAmIzEwO1EgMzEwOSAzMDg4IDMxMDkgMzQ0NCAmIzEwO1EgMzEwOSAzNzk3IDI4ODIgMzk3MiAmIzEwO1EgMjY1NiA0MTQ3IDIxOTQgNDE0NyAmIzEwO0wgMTI1OSA0MTQ3ICYjMTA7eiYjMTA7TSA2MjggNDY2NiAmIzEwO0wgMjI0MSA0NjY2ICYjMTA7USAyOTYzIDQ2NjYgMzM1MyA0MzY2ICYjMTA7USAzNzQ0IDQwNjYgMzc0NCAzNTEzICYjMTA7USAzNzQ0IDMwODQgMzU0NCAyODMxICYjMTA7USAzMzQ0IDI1NzggMjk1NiAyNTE2ICYjMTA7USAzNDIyIDI0MTYgMzY4MCAyMDk4ICYjMTA7USAzOTM4IDE3ODEgMzkzOCAxMzA2ICYjMTA7USAzOTM4IDY4MSAzNTEzIDM0MCAmIzEwO1EgMzA4OCAwIDIzMDMgMCAmIzEwO0wgNjI4IDAgJiMxMDtMIDYyOCA0NjY2ICYjMTA7eiIgaWQ9IkRlamFWdVNhbnMtNDIiLz4mI3hhOyAgICAgIDxwYXRoIHRyYW5zZm9ybT0ic2NhbGUoMC4wMTU2MjUpIiBkPSJNIDM1MyAzNTAwICYjMTA7TCAzMDg0IDM1MDAgJiMxMDtMIDMwODQgMjk3NSAmIzEwO0wgOTIyIDQ1OSAmIzEwO0wgMzA4NCA0NTkgJiMxMDtMIDMwODQgMCAmIzEwO0wgMjc1IDAgJiMxMDtMIDI3NSA1MjUgJiMxMDtMIDI0MzggMzA0MSAmIzEwO0wgMzUzIDMwNDEgJiMxMDtMIDM1MyAzNTAwICYjMTA7eiIgaWQ9IkRlamFWdVNhbnMtN2EiLz4mI3hhOyAgICAgPC9kZWZzPiYjeGE7ICAgICA8dXNlIHRyYW5zZm9ybT0idHJhbnNsYXRlKDAgMC4wOTM3NSkiIHhsaW5rOmhyZWY9IiNEZWphVnVTYW5zLTQyIi8+JiN4YTsgICAgIDx1c2UgdHJhbnNmb3JtPSJ0cmFuc2xhdGUoNjkuNTYwNTQ3IC0xNi4zMTI1KSBzY2FsZSgwLjcpIiB4bGluazpocmVmPSIjRGVqYVZ1U2Fucy03YSIvPiYjeGE7ICAgIDwvZz4mI3hhOyAgIDwvZz4mI3hhOyAgPC9nPiYjeGE7ICA8ZyBpZD0iYXhlc18yIj4mI3hhOyAgIDxnIGlkPSJwYXRjaF83Ij4mI3hhOyAgICA8cGF0aCBzdHlsZT0iZmlsbDogI2ZmZmZmZiIgZD0iTSA2Mi4zIDQ0Mi45ODg3NSAmIzEwO0wgNzU3LjQ0IDQ0Mi45ODg3NSAmIzEwO0wgNzU3LjQ0IDI1Ny4yMzgzNzUgJiMxMDtMIDYyLjMgMjU3LjIzODM3NSAmIzEwO3oiLz4mI3hhOyAgIDwvZz4mI3hhOyAgIDxnIGlkPSJtYXRwbG90bGliLmF4aXNfMyI+JiN4YTsgICAgPGcgaWQ9Inh0aWNrXzYiPiYjeGE7ICAgICA8ZyBpZD0ibGluZTJkXzI2Ij4mI3hhOyAgICAgIDxwYXRoIHN0eWxlPSJmaWxsOiBub25lOyBzdHJva2U6ICNiMGIwYjA7IHN0cm9rZS13aWR0aDogMC44OyBzdHJva2UtbGluZWNhcDogc3F1YXJlIiBjbGlwLXBhdGg9InVybCgjcDZiNzhjNmQyYzkpIiBkPSJNIDk1LjQwMTkwNSA0NDIuOTg4NzUgJiMxMDtMIDk1LjQwMTkwNSAyNTcuMjM4Mzc1Ii8+JiN4YTsgICAgIDwvZz4mI3hhOyAgICAgPGcgaWQ9ImxpbmUyZF8yNyI+JiN4YTsgICAgICA8Zz4mI3hhOyAgICAgICA8dXNlIHN0eWxlPSJzdHJva2U6ICMwMDAwMDA7IHN0cm9rZS13aWR0aDogMC44IiB5PSI0NDIuOTg4NzUiIHg9Ijk1LjQwMTkwNSIgeGxpbms6aHJlZj0iI205ZmM1ZDc0ZDkyIi8+JiN4YTsgICAgICA8L2c+JiN4YTsgICAgIDwvZz4mI3hhOyAgICAgPGcgaWQ9InRleHRfMTQiPiYjeGE7ICAgICAgJiN4YTsgICAgICA8ZyB0cmFuc2Zvcm09InRyYW5zbGF0ZSg5Mi4yMjA2NTUgNDU3LjU4NzE4OCkgc2NhbGUoMC4xIC0wLjEpIj4mI3hhOyAgICAgICA8dXNlIHhsaW5rOmhyZWY9IiNEZWphVnVTYW5zLTMwIi8+JiN4YTsgICAgICA8L2c+JiN4YTsgICAgIDwvZz4mI3hhOyAgICA8L2c+JiN4YTsgICAgPGcgaWQ9Inh0aWNrXzciPiYjeGE7ICAgICA8ZyBpZD0ibGluZTJkXzI4Ij4mI3hhOyAgICAgIDxwYXRoIHN0eWxlPSJmaWxsOiBub25lOyBzdHJva2U6ICNiMGIwYjA7IHN0cm9rZS13aWR0aDogMC44OyBzdHJva2UtbGluZWNhcDogc3F1YXJlIiBjbGlwLXBhdGg9InVybCgjcDZiNzhjNmQyYzkpIiBkPSJNIDI0Mi41MjE0ODEgNDQyLjk4ODc1ICYjMTA7TCAyNDIuNTIxNDgxIDI1Ny4yMzgzNzUiLz4mI3hhOyAgICAgPC9nPiYjeGE7ICAgICA8ZyBpZD0ibGluZTJkXzI5Ij4mI3hhOyAgICAgIDxnPiYjeGE7ICAgICAgIDx1c2Ugc3R5bGU9InN0cm9rZTogIzAwMDAwMDsgc3Ryb2tlLXdpZHRoOiAwLjgiIHk9IjQ0Mi45ODg3NSIgeD0iMjQyLjUyMTQ4MSIgeGxpbms6aHJlZj0iI205ZmM1ZDc0ZDkyIi8+JiN4YTsgICAgICA8L2c+JiN4YTsgICAgIDwvZz4mI3hhOyAgICAgPGcgaWQ9InRleHRfMTUiPiYjeGE7ICAgICAgJiN4YTsgICAgICA8ZyB0cmFuc2Zvcm09InRyYW5zbGF0ZSgyMzYuMTU4OTgxIDQ1Ny41ODcxODgpIHNjYWxlKDAuMSAtMC4xKSI+JiN4YTsgICAgICAgPHVzZSB4bGluazpocmVmPSIjRGVqYVZ1U2Fucy0zMiIvPiYjeGE7ICAgICAgIDx1c2UgeD0iNjMuNjIzMDQ3IiB4bGluazpocmVmPSIjRGVqYVZ1U2Fucy0zMCIvPiYjeGE7ICAgICAgPC9nPiYjeGE7ICAgICA8L2c+JiN4YTsgICAgPC9nPiYjeGE7ICAgIDxnIGlkPSJ4dGlja184Ij4mI3hhOyAgICAgPGcgaWQ9ImxpbmUyZF8zMCI+JiN4YTsgICAgICA8cGF0aCBzdHlsZT0iZmlsbDogbm9uZTsgc3Ryb2tlOiAjYjBiMGIwOyBzdHJva2Utd2lkdGg6IDAuODsgc3Ryb2tlLWxpbmVjYXA6IHNxdWFyZSIgY2xpcC1wYXRoPSJ1cmwoI3A2Yjc4YzZkMmM5KSIgZD0iTSAzODkuNjQxMDU4IDQ0Mi45ODg3NSAmIzEwO0wgMzg5LjY0MTA1OCAyNTcuMjM4Mzc1Ii8+JiN4YTsgICAgIDwvZz4mI3hhOyAgICAgPGcgaWQ9ImxpbmUyZF8zMSI+JiN4YTsgICAgICA8Zz4mI3hhOyAgICAgICA8dXNlIHN0eWxlPSJzdHJva2U6ICMwMDAwMDA7IHN0cm9rZS13aWR0aDogMC44IiB5PSI0NDIuOTg4NzUiIHg9IjM4OS42NDEwNTgiIHhsaW5rOmhyZWY9IiNtOWZjNWQ3NGQ5MiIvPiYjeGE7ICAgICAgPC9nPiYjeGE7ICAgICA8L2c+JiN4YTsgICAgIDxnIGlkPSJ0ZXh0XzE2Ij4mI3hhOyAgICAgICYjeGE7ICAgICAgPGcgdHJhbnNmb3JtPSJ0cmFuc2xhdGUoMzgzLjI3ODU1OCA0NTcuNTg3MTg4KSBzY2FsZSgwLjEgLTAuMSkiPiYjeGE7ICAgICAgIDx1c2UgeGxpbms6aHJlZj0iI0RlamFWdVNhbnMtMzQiLz4mI3hhOyAgICAgICA8dXNlIHg9IjYzLjYyMzA0NyIgeGxpbms6aHJlZj0iI0RlamFWdVNhbnMtMzAiLz4mI3hhOyAgICAgIDwvZz4mI3hhOyAgICAgPC9nPiYjeGE7ICAgIDwvZz4mI3hhOyAgICA8ZyBpZD0ieHRpY2tfOSI+JiN4YTsgICAgIDxnIGlkPSJsaW5lMmRfMzIiPiYjeGE7ICAgICAgPHBhdGggc3R5bGU9ImZpbGw6IG5vbmU7IHN0cm9rZTogI2IwYjBiMDsgc3Ryb2tlLXdpZHRoOiAwLjg7IHN0cm9rZS1saW5lY2FwOiBzcXVhcmUiIGNsaXAtcGF0aD0idXJsKCNwNmI3OGM2ZDJjOSkiIGQ9Ik0gNTM2Ljc2MDYzNSA0NDIuOTg4NzUgJiMxMDtMIDUzNi43NjA2MzUgMjU3LjIzODM3NSIvPiYjeGE7ICAgICA8L2c+JiN4YTsgICAgIDxnIGlkPSJsaW5lMmRfMzMiPiYjeGE7ICAgICAgPGc+JiN4YTsgICAgICAgPHVzZSBzdHlsZT0ic3Ryb2tlOiAjMDAwMDAwOyBzdHJva2Utd2lkdGg6IDAuOCIgeT0iNDQyLjk4ODc1IiB4PSI1MzYuNzYwNjM1IiB4bGluazpocmVmPSIjbTlmYzVkNzRkOTIiLz4mI3hhOyAgICAgIDwvZz4mI3hhOyAgICAgPC9nPiYjeGE7ICAgICA8ZyBpZD0idGV4dF8xNyI+JiN4YTsgICAgICAmI3hhOyAgICAgIDxnIHRyYW5zZm9ybT0idHJhbnNsYXRlKDUzMC4zOTgxMzUgNDU3LjU4NzE4OCkgc2NhbGUoMC4xIC0wLjEpIj4mI3hhOyAgICAgICA8dXNlIHhsaW5rOmhyZWY9IiNEZWphVnVTYW5zLTM2Ii8+JiN4YTsgICAgICAgPHVzZSB4PSI2My42MjMwNDciIHhsaW5rOmhyZWY9IiNEZWphVnVTYW5zLTMwIi8+JiN4YTsgICAgICA8L2c+JiN4YTsgICAgIDwvZz4mI3hhOyAgICA8L2c+JiN4YTsgICAgPGcgaWQ9Inh0aWNrXzEwIj4mI3hhOyAgICAgPGcgaWQ9ImxpbmUyZF8zNCI+JiN4YTsgICAgICA8cGF0aCBzdHlsZT0iZmlsbDogbm9uZTsgc3Ryb2tlOiAjYjBiMGIwOyBzdHJva2Utd2lkdGg6IDAuODsgc3Ryb2tlLWxpbmVjYXA6IHNxdWFyZSIgY2xpcC1wYXRoPSJ1cmwoI3A2Yjc4YzZkMmM5KSIgZD0iTSA2ODMuODgwMjEyIDQ0Mi45ODg3NSAmIzEwO0wgNjgzLjg4MDIxMiAyNTcuMjM4Mzc1Ii8+JiN4YTsgICAgIDwvZz4mI3hhOyAgICAgPGcgaWQ9ImxpbmUyZF8zNSI+JiN4YTsgICAgICA8Zz4mI3hhOyAgICAgICA8dXNlIHN0eWxlPSJzdHJva2U6ICMwMDAwMDA7IHN0cm9rZS13aWR0aDogMC44IiB5PSI0NDIuOTg4NzUiIHg9IjY4My44ODAyMTIiIHhsaW5rOmhyZWY9IiNtOWZjNWQ3NGQ5MiIvPiYjeGE7ICAgICAgPC9nPiYjeGE7ICAgICA8L2c+JiN4YTsgICAgIDxnIGlkPSJ0ZXh0XzE4Ij4mI3hhOyAgICAgICYjeGE7ICAgICAgPGcgdHJhbnNmb3JtPSJ0cmFuc2xhdGUoNjc3LjUxNzcxMiA0NTcuNTg3MTg4KSBzY2FsZSgwLjEgLTAuMSkiPiYjeGE7ICAgICAgIDx1c2UgeGxpbms6aHJlZj0iI0RlamFWdVNhbnMtMzgiLz4mI3hhOyAgICAgICA8dXNlIHg9IjYzLjYyMzA0NyIgeGxpbms6aHJlZj0iI0RlamFWdVNhbnMtMzAiLz4mI3hhOyAgICAgIDwvZz4mI3hhOyAgICAgPC9nPiYjeGE7ICAgIDwvZz4mI3hhOyAgIDwvZz4mI3hhOyAgIDxnIGlkPSJtYXRwbG90bGliLmF4aXNfNCI+JiN4YTsgICAgPGcgaWQ9Inl0aWNrXzciPiYjeGE7ICAgICA8ZyBpZD0ibGluZTJkXzM2Ij4mI3hhOyAgICAgIDxwYXRoIHN0eWxlPSJmaWxsOiBub25lOyBzdHJva2U6ICNiMGIwYjA7IHN0cm9rZS13aWR0aDogMC44OyBzdHJva2UtbGluZWNhcDogc3F1YXJlIiBjbGlwLXBhdGg9InVybCgjcDZiNzhjNmQyYzkpIiBkPSJNIDYyLjMgNDE2LjcyNDkyMyAmIzEwO0wgNzU3LjQ0IDQxNi43MjQ5MjMiLz4mI3hhOyAgICAgPC9nPiYjeGE7ICAgICA8ZyBpZD0ibGluZTJkXzM3Ij4mI3hhOyAgICAgIDxnPiYjeGE7ICAgICAgIDx1c2Ugc3R5bGU9InN0cm9rZTogIzAwMDAwMDsgc3Ryb2tlLXdpZHRoOiAwLjgiIHk9IjQxNi43MjQ5MjMiIHg9IjYyLjMiIHhsaW5rOmhyZWY9IiNtZDAxZmY2MmFiMiIvPiYjeGE7ICAgICAgPC9nPiYjeGE7ICAgICA8L2c+JiN4YTsgICAgIDxnIGlkPSJ0ZXh0XzE5Ij4mI3hhOyAgICAgICYjeGE7ICAgICAgPGcgdHJhbnNmb3JtPSJ0cmFuc2xhdGUoMjcuODMyODEzIDQyMC41MjQxNDIpIHNjYWxlKDAuMSAtMC4xKSI+JiN4YTsgICAgICAgPGRlZnM+JiN4YTsgICAgICAgIDxwYXRoIHRyYW5zZm9ybT0ic2NhbGUoMC4wMTU2MjUpIiBkPSJNIDY3OCAyMjcyICYjMTA7TCA0Njg0IDIyNzIgJiMxMDtMIDQ2ODQgMTc0MSAmIzEwO0wgNjc4IDE3NDEgJiMxMDtMIDY3OCAyMjcyICYjMTA7eiIgaWQ9IkRlamFWdVNhbnMtMjIxMiIvPiYjeGE7ICAgICAgIDwvZGVmcz4mI3hhOyAgICAgICA8dXNlIHhsaW5rOmhyZWY9IiNEZWphVnVTYW5zLTIyMTIiLz4mI3hhOyAgICAgICA8dXNlIHg9IjgzLjc4OTA2MiIgeGxpbms6aHJlZj0iI0RlamFWdVNhbnMtMzIiLz4mI3hhOyAgICAgICA8dXNlIHg9IjE0Ny40MTIxMDkiIHhsaW5rOmhyZWY9IiNEZWphVnVTYW5zLTMwIi8+JiN4YTsgICAgICAgPHVzZSB4PSIyMTEuMDM1MTU2IiB4bGluazpocmVmPSIjRGVqYVZ1U2Fucy0zMCIvPiYjeGE7ICAgICAgPC9nPiYjeGE7ICAgICA8L2c+JiN4YTsgICAgPC9nPiYjeGE7ICAgIDxnIGlkPSJ5dGlja184Ij4mI3hhOyAgICAgPGcgaWQ9ImxpbmUyZF8zOCI+JiN4YTsgICAgICA8cGF0aCBzdHlsZT0iZmlsbDogbm9uZTsgc3Ryb2tlOiAjYjBiMGIwOyBzdHJva2Utd2lkdGg6IDAuODsgc3Ryb2tlLWxpbmVjYXA6IHNxdWFyZSIgY2xpcC1wYXRoPSJ1cmwoI3A2Yjc4YzZkMmM5KSIgZD0iTSA2Mi4zIDM5MC4zMDk2NDQgJiMxMDtMIDc1Ny40NCAzOTAuMzA5NjQ0Ii8+JiN4YTsgICAgIDwvZz4mI3hhOyAgICAgPGcgaWQ9ImxpbmUyZF8zOSI+JiN4YTsgICAgICA8Zz4mI3hhOyAgICAgICA8dXNlIHN0eWxlPSJzdHJva2U6ICMwMDAwMDA7IHN0cm9rZS13aWR0aDogMC44IiB5PSIzOTAuMzA5NjQ0IiB4PSI2Mi4zIiB4bGluazpocmVmPSIjbWQwMWZmNjJhYjIiLz4mI3hhOyAgICAgIDwvZz4mI3hhOyAgICAgPC9nPiYjeGE7ICAgICA8ZyBpZD0idGV4dF8yMCI+JiN4YTsgICAgICAmI3hhOyAgICAgIDxnIHRyYW5zZm9ybT0idHJhbnNsYXRlKDI3LjgzMjgxMyAzOTQuMTA4ODYyKSBzY2FsZSgwLjEgLTAuMSkiPiYjeGE7ICAgICAgIDxkZWZzPiYjeGE7ICAgICAgICA8cGF0aCB0cmFuc2Zvcm09InNjYWxlKDAuMDE1NjI1KSIgZD0iTSA2OTEgNDY2NiAmIzEwO0wgMzE2OSA0NjY2ICYjMTA7TCAzMTY5IDQxMzQgJiMxMDtMIDEyNjkgNDEzNCAmIzEwO0wgMTI2OSAyOTkxICYjMTA7USAxNDA2IDMwMzggMTU0MyAzMDYxICYjMTA7USAxNjgxIDMwODQgMTgxOSAzMDg0ICYjMTA7USAyNjAwIDMwODQgMzA1NiAyNjU2ICYjMTA7USAzNTEzIDIyMjggMzUxMyAxNDk3ICYjMTA7USAzNTEzIDc0NCAzMDQ0IDMyNiAmIzEwO1EgMjU3NSAtOTEgMTcyMiAtOTEgJiMxMDtRIDE0MjggLTkxIDExMjMgLTQxICYjMTA7USA4MTkgOSA0OTQgMTA5ICYjMTA7TCA0OTQgNzQ0ICYjMTA7USA3NzUgNTkxIDEwNzUgNTE2ICYjMTA7USAxMzc1IDQ0MSAxNzA5IDQ0MSAmIzEwO1EgMjI1MCA0NDEgMjU2NSA3MjUgJiMxMDtRIDI4ODEgMTAwOSAyODgxIDE0OTcgJiMxMDtRIDI4ODEgMTk4NCAyNTY1IDIyNjggJiMxMDtRIDIyNTAgMjU1MyAxNzA5IDI1NTMgJiMxMDtRIDE0NTYgMjU1MyAxMjA0IDI0OTcgJiMxMDtRIDk1MyAyNDQxIDY5MSAyMzIyICYjMTA7TCA2OTEgNDY2NiAmIzEwO3oiIGlkPSJEZWphVnVTYW5zLTM1Ii8+JiN4YTsgICAgICAgPC9kZWZzPiYjeGE7ICAgICAgIDx1c2UgeGxpbms6aHJlZj0iI0RlamFWdVNhbnMtMjIxMiIvPiYjeGE7ICAgICAgIDx1c2UgeD0iODMuNzg5MDYyIiB4bGluazpocmVmPSIjRGVqYVZ1U2Fucy0zMSIvPiYjeGE7ICAgICAgIDx1c2UgeD0iMTQ3LjQxMjEwOSIgeGxpbms6aHJlZj0iI0RlamFWdVNhbnMtMzUiLz4mI3hhOyAgICAgICA8dXNlIHg9IjIxMS4wMzUxNTYiIHhsaW5rOmhyZWY9IiNEZWphVnVTYW5zLTMwIi8+JiN4YTsgICAgICA8L2c+JiN4YTsgICAgIDwvZz4mI3hhOyAgICA8L2c+JiN4YTsgICAgPGcgaWQ9Inl0aWNrXzkiPiYjeGE7ICAgICA8ZyBpZD0ibGluZTJkXzQwIj4mI3hhOyAgICAgIDxwYXRoIHN0eWxlPSJmaWxsOiBub25lOyBzdHJva2U6ICNiMGIwYjA7IHN0cm9rZS13aWR0aDogMC44OyBzdHJva2UtbGluZWNhcDogc3F1YXJlIiBjbGlwLXBhdGg9InVybCgjcDZiNzhjNmQyYzkpIiBkPSJNIDYyLjMgMzYzLjg5NDM2NSAmIzEwO0wgNzU3LjQ0IDM2My44OTQzNjUiLz4mI3hhOyAgICAgPC9nPiYjeGE7ICAgICA8ZyBpZD0ibGluZTJkXzQxIj4mI3hhOyAgICAgIDxnPiYjeGE7ICAgICAgIDx1c2Ugc3R5bGU9InN0cm9rZTogIzAwMDAwMDsgc3Ryb2tlLXdpZHRoOiAwLjgiIHk9IjM2My44OTQzNjUiIHg9IjYyLjMiIHhsaW5rOmhyZWY9IiNtZDAxZmY2MmFiMiIvPiYjeGE7ICAgICAgPC9nPiYjeGE7ICAgICA8L2c+JiN4YTsgICAgIDxnIGlkPSJ0ZXh0XzIxIj4mI3hhOyAgICAgICYjeGE7ICAgICAgPGcgdHJhbnNmb3JtPSJ0cmFuc2xhdGUoMjcuODMyODEzIDM2Ny42OTM1ODMpIHNjYWxlKDAuMSAtMC4xKSI+JiN4YTsgICAgICAgPHVzZSB4bGluazpocmVmPSIjRGVqYVZ1U2Fucy0yMjEyIi8+JiN4YTsgICAgICAgPHVzZSB4PSI4My43ODkwNjIiIHhsaW5rOmhyZWY9IiNEZWphVnVTYW5zLTMxIi8+JiN4YTsgICAgICAgPHVzZSB4PSIxNDcuNDEyMTA5IiB4bGluazpocmVmPSIjRGVqYVZ1U2Fucy0zMCIvPiYjeGE7ICAgICAgIDx1c2UgeD0iMjExLjAzNTE1NiIgeGxpbms6aHJlZj0iI0RlamFWdVNhbnMtMzAiLz4mI3hhOyAgICAgIDwvZz4mI3hhOyAgICAgPC9nPiYjeGE7ICAgIDwvZz4mI3hhOyAgICA8ZyBpZD0ieXRpY2tfMTAiPiYjeGE7ICAgICA8ZyBpZD0ibGluZTJkXzQyIj4mI3hhOyAgICAgIDxwYXRoIHN0eWxlPSJmaWxsOiBub25lOyBzdHJva2U6ICNiMGIwYjA7IHN0cm9rZS13aWR0aDogMC44OyBzdHJva2UtbGluZWNhcDogc3F1YXJlIiBjbGlwLXBhdGg9InVybCgjcDZiNzhjNmQyYzkpIiBkPSJNIDYyLjMgMzM3LjQ3OTA4NSAmIzEwO0wgNzU3LjQ0IDMzNy40NzkwODUiLz4mI3hhOyAgICAgPC9nPiYjeGE7ICAgICA8ZyBpZD0ibGluZTJkXzQzIj4mI3hhOyAgICAgIDxnPiYjeGE7ICAgICAgIDx1c2Ugc3R5bGU9InN0cm9rZTogIzAwMDAwMDsgc3Ryb2tlLXdpZHRoOiAwLjgiIHk9IjMzNy40NzkwODUiIHg9IjYyLjMiIHhsaW5rOmhyZWY9IiNtZDAxZmY2MmFiMiIvPiYjeGE7ICAgICAgPC9nPiYjeGE7ICAgICA8L2c+JiN4YTsgICAgIDxnIGlkPSJ0ZXh0XzIyIj4mI3hhOyAgICAgICYjeGE7ICAgICAgPGcgdHJhbnNmb3JtPSJ0cmFuc2xhdGUoMzQuMTk1MzEzIDM0MS4yNzgzMDQpIHNjYWxlKDAuMSAtMC4xKSI+JiN4YTsgICAgICAgPHVzZSB4bGluazpocmVmPSIjRGVqYVZ1U2Fucy0yMjEyIi8+JiN4YTsgICAgICAgPHVzZSB4PSI4My43ODkwNjIiIHhsaW5rOmhyZWY9IiNEZWphVnVTYW5zLTM1Ii8+JiN4YTsgICAgICAgPHVzZSB4PSIxNDcuNDEyMTA5IiB4bGluazpocmVmPSIjRGVqYVZ1U2Fucy0zMCIvPiYjeGE7ICAgICAgPC9nPiYjeGE7ICAgICA8L2c+JiN4YTsgICAgPC9nPiYjeGE7ICAgIDxnIGlkPSJ5dGlja18xMSI+JiN4YTsgICAgIDxnIGlkPSJsaW5lMmRfNDQiPiYjeGE7ICAgICAgPHBhdGggc3R5bGU9ImZpbGw6IG5vbmU7IHN0cm9rZTogI2IwYjBiMDsgc3Ryb2tlLXdpZHRoOiAwLjg7IHN0cm9rZS1saW5lY2FwOiBzcXVhcmUiIGNsaXAtcGF0aD0idXJsKCNwNmI3OGM2ZDJjOSkiIGQ9Ik0gNjIuMyAzMTEuMDYzODA2ICYjMTA7TCA3NTcuNDQgMzExLjA2MzgwNiIvPiYjeGE7ICAgICA8L2c+JiN4YTsgICAgIDxnIGlkPSJsaW5lMmRfNDUiPiYjeGE7ICAgICAgPGc+JiN4YTsgICAgICAgPHVzZSBzdHlsZT0ic3Ryb2tlOiAjMDAwMDAwOyBzdHJva2Utd2lkdGg6IDAuOCIgeT0iMzExLjA2MzgwNiIgeD0iNjIuMyIgeGxpbms6aHJlZj0iI21kMDFmZjYyYWIyIi8+JiN4YTsgICAgICA8L2c+JiN4YTsgICAgIDwvZz4mI3hhOyAgICAgPGcgaWQ9InRleHRfMjMiPiYjeGE7ICAgICAgJiN4YTsgICAgICA8ZyB0cmFuc2Zvcm09InRyYW5zbGF0ZSg0OC45Mzc1IDMxNC44NjMwMjUpIHNjYWxlKDAuMSAtMC4xKSI+JiN4YTsgICAgICAgPHVzZSB4bGluazpocmVmPSIjRGVqYVZ1U2Fucy0zMCIvPiYjeGE7ICAgICAgPC9nPiYjeGE7ICAgICA8L2c+JiN4YTsgICAgPC9nPiYjeGE7ICAgIDxnIGlkPSJ5dGlja18xMiI+JiN4YTsgICAgIDxnIGlkPSJsaW5lMmRfNDYiPiYjeGE7ICAgICAgPHBhdGggc3R5bGU9ImZpbGw6IG5vbmU7IHN0cm9rZTogI2IwYjBiMDsgc3Ryb2tlLXdpZHRoOiAwLjg7IHN0cm9rZS1saW5lY2FwOiBzcXVhcmUiIGNsaXAtcGF0aD0idXJsKCNwNmI3OGM2ZDJjOSkiIGQ9Ik0gNjIuMyAyODQuNjQ4NTI3ICYjMTA7TCA3NTcuNDQgMjg0LjY0ODUyNyIvPiYjeGE7ICAgICA8L2c+JiN4YTsgICAgIDxnIGlkPSJsaW5lMmRfNDciPiYjeGE7ICAgICAgPGc+JiN4YTsgICAgICAgPHVzZSBzdHlsZT0ic3Ryb2tlOiAjMDAwMDAwOyBzdHJva2Utd2lkdGg6IDAuOCIgeT0iMjg0LjY0ODUyNyIgeD0iNjIuMyIgeGxpbms6aHJlZj0iI21kMDFmZjYyYWIyIi8+JiN4YTsgICAgICA8L2c+JiN4YTsgICAgIDwvZz4mI3hhOyAgICAgPGcgaWQ9InRleHRfMjQiPiYjeGE7ICAgICAgJiN4YTsgICAgICA8ZyB0cmFuc2Zvcm09InRyYW5zbGF0ZSg0Mi41NzUgMjg4LjQ0Nzc0Nikgc2NhbGUoMC4xIC0wLjEpIj4mI3hhOyAgICAgICA8dXNlIHhsaW5rOmhyZWY9IiNEZWphVnVTYW5zLTM1Ii8+JiN4YTsgICAgICAgPHVzZSB4PSI2My42MjMwNDciIHhsaW5rOmhyZWY9IiNEZWphVnVTYW5zLTMwIi8+JiN4YTsgICAgICA8L2c+JiN4YTsgICAgIDwvZz4mI3hhOyAgICA8L2c+JiN4YTsgICAgPGcgaWQ9Inl0aWNrXzEzIj4mI3hhOyAgICAgPGcgaWQ9ImxpbmUyZF80OCI+JiN4YTsgICAgICA8cGF0aCBzdHlsZT0iZmlsbDogbm9uZTsgc3Ryb2tlOiAjYjBiMGIwOyBzdHJva2Utd2lkdGg6IDAuODsgc3Ryb2tlLWxpbmVjYXA6IHNxdWFyZSIgY2xpcC1wYXRoPSJ1cmwoI3A2Yjc4YzZkMmM5KSIgZD0iTSA2Mi4zIDI1OC4yMzMyNDggJiMxMDtMIDc1Ny40NCAyNTguMjMzMjQ4Ii8+JiN4YTsgICAgIDwvZz4mI3hhOyAgICAgPGcgaWQ9ImxpbmUyZF80OSI+JiN4YTsgICAgICA8Zz4mI3hhOyAgICAgICA8dXNlIHN0eWxlPSJzdHJva2U6ICMwMDAwMDA7IHN0cm9rZS13aWR0aDogMC44IiB5PSIyNTguMjMzMjQ4IiB4PSI2Mi4zIiB4bGluazpocmVmPSIjbWQwMWZmNjJhYjIiLz4mI3hhOyAgICAgIDwvZz4mI3hhOyAgICAgPC9nPiYjeGE7ICAgICA8ZyBpZD0idGV4dF8yNSI+JiN4YTsgICAgICAmI3hhOyAgICAgIDxnIHRyYW5zZm9ybT0idHJhbnNsYXRlKDM2LjIxMjUgMjYyLjAzMjQ2Nykgc2NhbGUoMC4xIC0wLjEpIj4mI3hhOyAgICAgICA8dXNlIHhsaW5rOmhyZWY9IiNEZWphVnVTYW5zLTMxIi8+JiN4YTsgICAgICAgPHVzZSB4PSI2My42MjMwNDciIHhsaW5rOmhyZWY9IiNEZWphVnVTYW5zLTMwIi8+JiN4YTsgICAgICAgPHVzZSB4PSIxMjcuMjQ2MDk0IiB4bGluazpocmVmPSIjRGVqYVZ1U2Fucy0zMCIvPiYjeGE7ICAgICAgPC9nPiYjeGE7ICAgICA8L2c+JiN4YTsgICAgPC9nPiYjeGE7ICAgIDxnIGlkPSJ0ZXh0XzI2Ij4mI3hhOyAgICAgJiN4YTsgICAgIDxnIHRyYW5zZm9ybT0idHJhbnNsYXRlKDIxLjczMjgxMyAzOTguMjYzNTYzKSByb3RhdGUoLTkwKSBzY2FsZSgwLjEgLTAuMSkiPiYjeGE7ICAgICAgPHVzZSB0cmFuc2Zvcm09InRyYW5zbGF0ZSgwIDAuMDE1NjI1KSIgeGxpbms6aHJlZj0iI0RlamFWdVNhbnMtNGQiLz4mI3hhOyAgICAgIDx1c2UgdHJhbnNmb3JtPSJ0cmFuc2xhdGUoODYuMjc5Mjk3IDAuMDE1NjI1KSIgeGxpbms6aHJlZj0iI0RlamFWdVNhbnMtNjEiLz4mI3hhOyAgICAgIDx1c2UgdHJhbnNmb3JtPSJ0cmFuc2xhdGUoMTQ3LjU1ODU5NCAwLjAxNTYyNSkiIHhsaW5rOmhyZWY9IiNEZWphVnVTYW5zLTY3Ii8+JiN4YTsgICAgICA8dXNlIHRyYW5zZm9ybT0idHJhbnNsYXRlKDIxMS4wMzUxNTYgMC4wMTU2MjUpIiB4bGluazpocmVmPSIjRGVqYVZ1U2Fucy02ZSIvPiYjeGE7ICAgICAgPHVzZSB0cmFuc2Zvcm09InRyYW5zbGF0ZSgyNzQuNDE0MDYyIDAuMDE1NjI1KSIgeGxpbms6aHJlZj0iI0RlamFWdVNhbnMtNjUiLz4mI3hhOyAgICAgIDx1c2UgdHJhbnNmb3JtPSJ0cmFuc2xhdGUoMzM1LjkzNzUgMC4wMTU2MjUpIiB4bGluazpocmVmPSIjRGVqYVZ1U2Fucy03NCIvPiYjeGE7ICAgICAgPHVzZSB0cmFuc2Zvcm09InRyYW5zbGF0ZSgzNzUuMTQ2NDg0IDAuMDE1NjI1KSIgeGxpbms6aHJlZj0iI0RlamFWdVNhbnMtNjkiLz4mI3hhOyAgICAgIDx1c2UgdHJhbnNmb3JtPSJ0cmFuc2xhdGUoNDAyLjkyOTY4OCAwLjAxNTYyNSkiIHhsaW5rOmhyZWY9IiNEZWphVnVTYW5zLTYzIi8+JiN4YTsgICAgICA8dXNlIHRyYW5zZm9ybT0idHJhbnNsYXRlKDQ1Ny45MTAxNTYgMC4wMTU2MjUpIiB4bGluazpocmVmPSIjRGVqYVZ1U2Fucy0yMCIvPiYjeGE7ICAgICAgPHVzZSB0cmFuc2Zvcm09InRyYW5zbGF0ZSg0ODkuNjk3MjY2IDAuMDE1NjI1KSIgeGxpbms6aHJlZj0iI0RlamFWdVNhbnMtNDYiLz4mI3hhOyAgICAgIDx1c2UgdHJhbnNmb3JtPSJ0cmFuc2xhdGUoNTQ3LjIxNjc5NyAwLjAxNTYyNSkiIHhsaW5rOmhyZWY9IiNEZWphVnVTYW5zLTY5Ii8+JiN4YTsgICAgICA8dXNlIHRyYW5zZm9ybT0idHJhbnNsYXRlKDU3NSAwLjAxNTYyNSkiIHhsaW5rOmhyZWY9IiNEZWphVnVTYW5zLTY1Ii8+JiN4YTsgICAgICA8dXNlIHRyYW5zZm9ybT0idHJhbnNsYXRlKDYzNi41MjM0MzggMC4wMTU2MjUpIiB4bGluazpocmVmPSIjRGVqYVZ1U2Fucy02YyIvPiYjeGE7ICAgICAgPHVzZSB0cmFuc2Zvcm09InRyYW5zbGF0ZSg2NjQuMzA2NjQxIDAuMDE1NjI1KSIgeGxpbms6aHJlZj0iI0RlamFWdVNhbnMtNjQiLz4mI3hhOyAgICAgIDx1c2UgdHJhbnNmb3JtPSJ0cmFuc2xhdGUoNzI3Ljc4MzIwMyAwLjAxNTYyNSkiIHhsaW5rOmhyZWY9IiNEZWphVnVTYW5zLTIwIi8+JiN4YTsgICAgICA8dXNlIHRyYW5zZm9ybT0idHJhbnNsYXRlKDc1OS41NzAzMTIgMC4wMTU2MjUpIiB4bGluazpocmVmPSIjRGVqYVZ1U2Fucy01YiIvPiYjeGE7ICAgICAgPHVzZSB0cmFuc2Zvcm09InRyYW5zbGF0ZSg3OTguNTgzOTg0IDAuMDE1NjI1KSIgeGxpbms6aHJlZj0iI0RlamFWdVNhbnMtT2JsaXF1ZS0zYmMiLz4mI3hhOyAgICAgIDx1c2UgdHJhbnNmb3JtPSJ0cmFuc2xhdGUoODYyLjIwNzAzMSAwLjAxNTYyNSkiIHhsaW5rOmhyZWY9IiNEZWphVnVTYW5zLTU0Ii8+JiN4YTsgICAgICA8dXNlIHRyYW5zZm9ybT0idHJhbnNsYXRlKDkyMy4yOTEwMTYgMC4wMTU2MjUpIiB4bGluazpocmVmPSIjRGVqYVZ1U2Fucy01ZCIvPiYjeGE7ICAgICA8L2c+JiN4YTsgICAgPC9nPiYjeGE7ICAgPC9nPiYjeGE7ICAgPGcgaWQ9ImxpbmUyZF81MCI+JiN4YTsgICAgPHBhdGggc3R5bGU9ImZpbGw6IG5vbmU7IHN0cm9rZTogIzQ0MDE1NDsgc3Ryb2tlLXdpZHRoOiAxLjU7IHN0cm9rZS1saW5lY2FwOiBzcXVhcmUiIGNsaXAtcGF0aD0idXJsKCNwNmI3OGM2ZDJjOSkiIGQ9Ik0gOTUuNDAxOTA1IDMwOS41NzQxMyAmIzEwO0wgOTYuMjg1MjExIDMwOS42NDI2MDcgJiMxMDtMIDEwMy43OTMzMTUgMzEwLjc0NDI3MyAmIzEwO0wgMTA0LjIzNDk2OCAzMTIuNDM4NjMgJiMxMDtMIDEwNS41NTk5MjggMzExLjkwNzc2NyAmIzEwO0wgMTA3LjMyNjU0IDMxMS40NDUxNTkgJiMxMDtMIDEwOS41MzQ4MDYgMzExLjExMzI4MyAmIzEwO0wgMTEyLjYyNjM3OCAzMTAuOTIwMDQ2ICYjMTA7TCAxMTYuNjAxMjU3IDMxMC45MzM1NjMgJiMxMDtMIDEyMS45MDEwOTUgMzExLjE5NjU0NCAmIzEwO0wgMTI5LjQwOTE5OSAzMTEuODEyNjU0ICYjMTA7TCAxMzYuMDMzOTk2IDMxMi4zNDIzMDkgJiMxMDtMIDE0Mi4yMTcxNCAzMTIuNDU0MTI2ICYjMTA7TCAxNTAuMTY2ODk3IDMxMi44MzUwNzkgJiMxMDtMIDE1Ny4yMzMzNDggMzEzLjMyMTk4MyAmIzEwO0wgMTU3LjY3NTAwMSAzMTMuMTA3NDYgJiMxMDtMIDE2NS4xODMxMDUgMzEzLjI2ODk2NiAmIzEwO0wgMTc1Ljc4Mjc4MSAzMTMuNTQ4OTYgJiMxMDtMIDE4NC4xNzQxOTEgMzEzLjcxNzM3NSAmIzEwO0wgMTkzLjg5MDU2MSAzMTQuMTM3NDk1ICYjMTA7TCAyMDIuNzIzNjI0IDMxNC42Nzg5MzYgJiMxMDtMIDIwMy4xNjUyNzcgMzE0LjMyMjEwOSAmIzEwO0wgMjEyLjg4MTY0NyAzMTQuODQ5Nzc5ICYjMTA7TCAyMTMuMzIzMyAzMTUuMDA0OTgyICYjMTA7TCAyMTYuODU2NTI1IDMxNS4xMDU3OTkgJiMxMDtMIDIxNy4yOTgxNzggMzE1LjM4MzgyICYjMTA7TCAyMjYuNTcyODk1IDMxNS4zNjM4NjEgJiMxMDtMIDIzNy4xNzI1NzEgMzE1LjU3MjU4MiAmIzEwO0wgMjQ4LjY1NTU1MyAzMTYuMDI2MDQyICYjMTA7TCAyNjMuNjcxNzYxIDMxNi42NDkxMTggJiMxMDtMIDI4MC44OTYyMzQgMzE3LjE4Nzc3NSAmIzEwO0wgMjkzLjI2MjUyMyAzMTcuNjc1NzY3ICYjMTA7TCAzMDIuNTM3MjM5IDMxOC4wMTk5NTQgJiMxMDtMIDMxNS43ODY4MzQgMzE4LjUyMzgzNyAmIzEwO0wgMzI1LjA2MTU1MSAzMTguODQ3OTk1ICYjMTA7TCAzMzcuNDI3ODQgMzE5LjMwNzIgJiMxMDtMIDM1Mi4wMDIzOTQgMzE5Ljg2NDM1MyAmIzEwO0wgMzc5LjM4NDg5IDMyMC45MTk2NjQgJiMxMDtMIDQwNi43NjczODcgMzIyLjA2MDgxNiAmIzEwO0wgNDIwLjAxNjk4MSAzMjIuNjc0MTQ4ICYjMTA7TCA0MzMuMjY2NTc2IDMyMy4zMjA1NDkgJiMxMDtMIDQzNC41OTE1MzYgMzIzLjMxNzQ3NCAmIzEwO0wgNDM5Ljg5MTM3NCAzMjMuNTM1MTEyICYjMTA7TCA0NDAuMzMzMDI3IDMyMy43NTk1MDUgJiMxMDtMIDQ1My4xNDA5NjkgMzI0LjIwMzE0OCAmIzEwO0wgNDc2LjEwNjkzNCAzMjUuMzA2OTU1ICYjMTA7TCA1NjEuMzQ1OTk0IDMzMC4wNDU4NzMgJiMxMDtMIDYzNi44Njg2ODYgMzM1LjE2ODI4ICYjMTA7TCA2NDkuMjM0OTc0IDMzNi4xMTE0MDggJiMxMDtMIDY1MC41NTk5MzQgMzM2LjE3NTU1OSAmIzEwO0wgNjk0LjI4MzU5NyAzMzkuODA4ODc3ICYjMTA7TCA3NDguNjA2OTM3IDM0NC45MzM2MzUgJiMxMDtMIDc1Mi4xNDAxNjIgMzQ1LjI3ODU5MSAmIzEwO0wgNzU3LjQ0IDM0NS42OTMzMDMgJiMxMDtMIDc1Ny40NCAzNDUuNjkzMzAzIi8+JiN4YTsgICA8L2c+JiN4YTsgICA8ZyBpZD0ibGluZTJkXzUxIj4mI3hhOyAgICA8cGF0aCBzdHlsZT0iZmlsbDogbm9uZTsgc3Ryb2tlOiAjMzE2ODhlOyBzdHJva2Utd2lkdGg6IDEuNTsgc3Ryb2tlLWxpbmVjYXA6IHNxdWFyZSIgY2xpcC1wYXRoPSJ1cmwoI3A2Yjc4YzZkMmM5KSIgZD0iTSA5NS40MDE5MDUgMzA4LjQ4MDgyOSAmIzEwO0wgOTUuODQzNTU4IDMwOC41NDI4MTUgJiMxMDtMIDEwMy43OTMzMTUgMzExLjcyMDkzNiAmIzEwO0wgMTA0LjIzNDk2OCAzMTUuMzYyMTk5ICYjMTA7TCAxMDUuNTU5OTI4IDMxNC40MjA0MzkgJiMxMDtMIDEwNi44ODQ4ODcgMzEzLjgxMTU4MSAmIzEwO0wgMTA4LjIwOTg0NyAzMTMuNDMyMzU2ICYjMTA7TCAxMDkuOTc2NDU5IDMxMy4xNzU3NTEgJiMxMDtMIDExMi4xODQ3MjUgMzEzLjEyODkzOSAmIzEwO0wgMTE0LjgzNDY0NCAzMTMuMzM3NzMgJiMxMDtMIDExNy45MjYyMTYgMzEzLjgxNzkwOCAmIzEwO0wgMTIxLjkwMTA5NSAzMTQuNjcyNjY4ICYjMTA7TCAxMjcuMjAwOTMzIDMxNi4wNjY2NDMgJiMxMDtMIDEzMy44MjU3MyAzMTguMDQ5MTgzICYjMTA7TCAxMzQuMjY3MzgzIDMxOC4yOTMxMDIgJiMxMDtMIDEzOC4yNDIyNjIgMzE4Ljc1NDA0NCAmIzEwO0wgMTQzLjEwMDQ0NyAzMTkuNTU4MzU2ICYjMTA7TCAxNDguODQxOTM4IDMyMC43NTgxMTYgJiMxMDtMIDE1NS40NjY3MzUgMzIyLjM4MjU0MyAmIzEwO0wgMTU3LjIzMzM0OCAzMjIuODQ5MzMyICYjMTA7TCAxNTcuNjc1MDAxIDMyMi4yNDM1NTMgJiMxMDtMIDE2My40MTY0OTIgMzIzLjM2NDc2NyAmIzEwO0wgMTcwLjA0MTI5IDMyNC45MDMxNjQgJiMxMDtMIDE3Mi42OTEyMDkgMzI1LjU3Nzg5MiAmIzEwO0wgMTczLjEzMjg2MiAzMjUuNDQwMzM0ICYjMTA7TCAxNzguODc0MzUzIDMyNi4zOTI2NTUgJiMxMDtMIDE4NS40OTkxNTEgMzI3LjczMDg0ICYjMTA7TCAxOTIuNTY1NjAxIDMyOS4zODU3NyAmIzEwO0wgMjAwLjUxNTM1OCAzMzEuNDcyMDIyICYjMTA7TCAyMDIuNzIzNjI0IDMzMi4wODcxMzEgJiMxMDtMIDIwMy4xNjUyNzcgMzMxLjAwNzI2MSAmIzEwO0wgMjExLjExNTAzNCAzMzIuNzA3NCAmIzEwO0wgMjEyLjg4MTY0NyAzMzMuMTE1Mjg2ICYjMTA7TCAyMTMuMzIzMyAzMzMuNjkzMzE4ICYjMTA7TCAyMTYuODU2NTI1IDMzNC4yNDkyMzQgJiMxMDtMIDIxNy4yOTgxNzggMzM1LjM4ODAxMSAmIzEwO0wgMjIzLjQ4MTMyMyAzMzYuMDgxMDc0ICYjMTA7TCAyMzAuMTA2MTIgMzM3LjA1NTY1ICYjMTA7TCAyMzcuMTcyNTcxIDMzOC4zMjQ5MjIgJiMxMDtMIDI0NC42ODA2NzUgMzM5Ljg5ODg1OSAmIzEwO0wgMjUzLjA3MjA4NSAzNDEuODk1NDQxICYjMTA7TCAyNTMuNTEzNzM4IDM0Mi4wMDY4MDQgJiMxMDtMIDI1My45NTUzOTEgMzQyLjQ1ODgyMiAmIzEwO0wgMjYxLjQ2MzQ5NSAzNDMuODQ4NjU5ICYjMTA7TCAyNjkuNDEzMjUyIDM0NS41NDU1NjEgJiMxMDtMIDI2OS44NTQ5MDUgMzQ1Ljk1NDAzNCAmIzEwO0wgMjc2LjkyMTM1NiAzNDcuMzY5NjMzICYjMTA7TCAyODQuNDI5NDYgMzQ5LjEwMTI3NiAmIzEwO0wgMjkyLjM3OTIxNyAzNTEuMTY0MDY5ICYjMTA7TCAyOTcuMjM3NDAxIDM1Mi41MzAzMDIgJiMxMDtMIDI5Ny42NzkwNTUgMzUyLjgzOTQwNSAmIzEwO0wgMzA1LjE4NzE1OCAzNTQuNDE0ODg2ICYjMTA7TCAzMTMuMTM2OTE1IDM1Ni4zMTM3MDMgJiMxMDtMIDMxOC40MzY3NTMgMzU3LjcwMDgyOCAmIzEwO0wgMzE4Ljg3ODQwNyAzNTguMDc4NTY2ICYjMTA7TCAzMjUuOTQ0ODU3IDM1OS44MDYzNDEgJiMxMDtMIDMzMy40NTI5NjEgMzYxLjg4NDM0OSAmIzEwO0wgMzQwLjk2MTA2NSAzNjQuMTkyNzM2ICYjMTA7TCAzNDYuMjYwOTAzIDM2NS45NTEzMTEgJiMxMDtMIDM0Ni43MDI1NTYgMzY2LjMyMDY5NCAmIzEwO0wgMzUzLjc2OTAwNyAzNjcuOTYyMjk5ICYjMTA7TCAzNjEuMjc3MTEgMzY5LjkzMzI3NSAmIzEwO0wgMzY4Ljc4NTIxNCAzNzEuOTE3ODM1ICYjMTA7TCAzNzUuNDEwMDEyIDM3My43MDI0NCAmIzEwO0wgMzgyLjQ3NjQ2MiAzNzUuODQ2Mzk4ICYjMTA7TCAzODkuNTQyOTEzIDM3OC4yMjQ3MDUgJiMxMDtMIDM4OS45ODQ1NjYgMzc4LjAxNTI5NiAmIzEwO0wgMzk3LjA1MTAxNyAzODAuODA3NDE1ICYjMTA7TCA0MDAuMTQyNTg5IDM4Mi4xMDMxNDEgJiMxMDtMIDQwMC41ODQyNDIgMzgxLjk1Njg3NCAmIzEwO0wgNDA2Ljc2NzM4NyAzODMuOTI1ODUyICYjMTA7TCA0MTIuOTUwNTMxIDM4Ni4xMTgwODEgJiMxMDtMIDQxOS41NzUzMjggMzg4LjcwMzcxICYjMTA7TCA0MjYuMjAwMTI2IDM5MS41MjM1MDkgJiMxMDtMIDQyOC44NTAwNDUgMzkyLjcxNDY1NyAmIzEwO0wgNDI5LjI5MTY5OCAzOTEuNDk5NjQ2ICYjMTA7TCA0MzMuMjY2NTc2IDM5My40MzMxOTUgJiMxMDtMIDQzMy43MDgyMyAzOTMuMDgwNjUxICYjMTA7TCA0MzkuMDA4MDY4IDM5NS4xNDEyMjUgJiMxMDtMIDQzOS44OTEzNzQgMzk1LjUwNTc2OCAmIzEwO0wgNDQwLjMzMzAyNyAzOTcuMTQ0ODA0ICYjMTA7TCA0NDUuNjMyODY1IDM5OC4yMzk0NzYgJiMxMDtMIDQ1MC45MzI3MDMgMzk5LjU1MzI4MiAmIzEwO0wgNDU2LjY3NDE5NCA0MDEuMjE2Njg0ICYjMTA7TCA0NjIuNDE1Njg1IDQwMy4xMjI1MjQgJiMxMDtMIDQ2NS4wNjU2MDQgNDA0LjA4MTkzMyAmIzEwO0wgNDY1LjUwNzI1OCA0MDQuMDI5ODE4ICYjMTA7TCA0NzAuMzY1NDQyIDQwNS4xMzU4NjUgJiMxMDtMIDQ3NS4yMjM2MjcgNDA2LjQ1ODY0MiAmIzEwO0wgNDgwLjUyMzQ2NSA0MDguMTQzMDk1ICYjMTA7TCA0ODUuMzgxNjUgNDA5LjkwMzQzNyAmIzEwO0wgNDg1LjgyMzMwMyA0MDguODIwOTk3ICYjMTA7TCA0ODcuNTg5OTE2IDQwOS43NDE3NzYgJiMxMDtMIDQ4OC4wMzE1NjkgNDEwLjE5NzA4OSAmIzEwO0wgNDkwLjIzOTgzNSA0MTAuOTI2OTkyICYjMTA7TCA0OTQuNjU2MzY2IDQxMS40MDM5NjQgJiMxMDtMIDQ5OS4wNzI4OTggNDEyLjA5NzgwMSAmIzEwO0wgNTAzLjQ4OTQzIDQxMy4wMDQ4OTUgJiMxMDtMIDUwNy45MDU5NjEgNDEzLjk3NzEwNSAmIzEwO0wgNTEyLjMyMjQ5MyA0MTQuMzc0NTg2ICYjMTA7TCA1MTYuNzM5MDI1IDQxNS4wMTAxMTQgJiMxMDtMIDUyMC4yNzIyNSA0MTUuNjg3NjE4ICYjMTA7TCA1MjAuNzEzOTAzIDQxNC4zMTkwNSAmIzEwO0wgNTIzLjM2MzgyMiA0MTQuNDk3NTgyICYjMTA7TCA1MjMuODA1NDc1IDQxNC44NzU0NzkgJiMxMDtMIDUyNC42ODg3ODIgNDE0Ljc4NzA2MSAmIzEwO0wgNTI1LjEzMDQzNSA0MTUuNjk1MTI1ICYjMTA7TCA1MjkuMTA1MzEzIDQxNC43MjY5ICYjMTA7TCA1MzMuMDgwMTkyIDQxMy45NjY4MDcgJiMxMDtMIDUzNy4wNTUwNyA0MTMuNDEyOTgyICYjMTA7TCA1NDAuMTQ2NjQzIDQxMy4xMjM2OCAmIzEwO0wgNTQwLjU4ODI5NiA0MTMuMTM5Mjk5ICYjMTA7TCA1NDUuMDA0ODI3IDQxMS45Nzc2OTcgJiMxMDtMIDU0NS40NDY0ODEgNDExLjg3NDY3ICYjMTA7TCA1NDUuODg4MTM0IDQxMi4wNzY2NTUgJiMxMDtMIDU0OS44NjMwMTIgNDEwLjU5NzAwMiAmIzEwO0wgNTU1LjE2Mjg1IDQwOC43MTIzMDIgJiMxMDtMIDU1OS41NzkzODIgNDA2LjY0NDk3NyAmIzEwO0wgNTYzLjk5NTkxMyA0MDQuODM5MzE5ICYjMTA7TCA1NjYuMjA0MTc5IDQwNC4wMzQyNzQgJiMxMDtMIDU2Ni42NDU4MzIgNDAyLjk4MzM0ICYjMTA7TCA1NjcuNTI5MTM5IDQwMi4xNzUzMDcgJiMxMDtMIDU2Ny45NzA3OTIgNDAyLjkyMzkzOCAmIzEwO0wgNTcyLjM4NzMyNCAzOTkuOTAyNTczICYjMTA7TCA1NzYuODAzODU1IDM5Ny4xMzUwMTYgJiMxMDtMIDU4MS4yMjAzODcgMzk0LjM4OTA5MyAmIzEwO0wgNTg2LjA3ODU3MiAzOTEuMjA5NTI3ICYjMTA7TCA1ODYuOTYxODc4IDM5MC42NjA4MjggJiMxMDtMIDU4Ny40MDM1MzEgMzkwLjU5NDgwOCAmIzEwO0wgNTkyLjI2MTcxNiAzODYuNTEyMDM4ICYjMTA7TCA1OTYuMjM2NTk1IDM4My4xNzgwMzIgJiMxMDtMIDYwMS41MzY0MzMgMzc4Ljg5MTg0OCAmIzEwO0wgNjA2LjM5NDYxNyAzNzUuMjI3NzY4ICYjMTA7TCA2MDYuODM2MjcxIDM3NS40NDA5OTIgJiMxMDtMIDYwNy43MTk1NzcgMzc0LjU3MDM0NSAmIzEwO0wgNjA4LjE2MTIzIDM3NC4zODk3MDQgJiMxMDtMIDYxMS4yNTI4MDIgMzcxLjQ2NzY1MSAmIzEwO0wgNjExLjY5NDQ1NSAzNzAuNzQwOTY1ICYjMTA7TCA2MTcuNDM1OTQ3IDM2Ni41MjI1NjggJiMxMDtMIDYyNC45NDQwNSAzNjEuMzM5Nzc1ICYjMTA7TCA2MjguMDM1NjIyIDM1OS4zMDAzNSAmIzEwO0wgNjI4LjkxODkyOSAzNTguNDg0MTQ1ICYjMTA7TCA2MzUuMTAyMDczIDM1My44MTQxODUgJiMxMDtMIDYzOS41MTg2MDUgMzUwLjcxMDk1OCAmIzEwO0wgNjQ2LjE0MzQwMiAzNDYuMzczMjQyICYjMTA7TCA2NDkuMjM0OTc0IDM0NC40NDY3NTMgJiMxMDtMIDY0OS42NzY2MjggMzQ0LjQxNzg4ICYjMTA7TCA2NTYuMzAxNDI1IDMzOS44ODg5MzcgJiMxMDtMIDY1Ny42MjYzODUgMzM5LjExNTgyMSAmIzEwO0wgNjY0LjY5MjgzNSAzMzQuODQzODA2ICYjMTA7TCA2NjguMjI2MDYxIDMzMi44Njc0ODYgJiMxMDtMIDY3NC44NTA4NTggMzI5LjczMjUyNyAmIzEwO0wgNjg4Ljk4Mzc1OSAzMjMuMjA1NDQyICYjMTA7TCA2OTMuODQxOTQ0IDMyMS4wMDk4NjQgJiMxMDtMIDY5Ni45MzM1MTYgMzE5LjYzNDMyNiAmIzEwO0wgNjk3LjM3NTE2OSAzMTkuNjA0NDMyICYjMTA7TCA3MDQuNDQxNjIgMzE2LjcyNDg5MiAmIzEwO0wgNzExLjA2NjQxOCAzMTQuMjYwMyAmIzEwO0wgNzE4LjEzMjg2OCAzMTEuNzQ1NTE4ICYjMTA7TCA3MTkuMDE2MTc1IDMxMS40OTM2ODggJiMxMDtMIDcyNi45NjU5MzIgMzA4LjgxOTA4MiAmIzEwO0wgNzMzLjU5MDcyOSAzMDYuNjg2NTI5ICYjMTA7TCA3NDYuODQwMzI0IDMwMi43NzQ5MzYgJiMxMDtMIDc1My45MDY3NzUgMzAwLjgxMzQ1OSAmIzEwO0wgNzU3LjQ0IDI5OS43MzkxMjkgJiMxMDtMIDc1Ny40NCAyOTkuNzM5MTI5Ii8+JiN4YTsgICA8L2c+JiN4YTsgICA8ZyBpZD0ibGluZTJkXzUyIj4mI3hhOyAgICA8cGF0aCBzdHlsZT0iZmlsbDogbm9uZTsgc3Ryb2tlOiAjMzViNzc5OyBzdHJva2Utd2lkdGg6IDEuNTsgc3Ryb2tlLWxpbmVjYXA6IHNxdWFyZSIgY2xpcC1wYXRoPSJ1cmwoI3A2Yjc4YzZkMmM5KSIgZD0iTSA5NS40MDE5MDUgMzA4LjI0NzEwMiAmIzEwO0wgOTUuODQzNTU4IDMwOC4zMjMyMjggJiMxMDtMIDEwMy43OTMzMTUgMzExLjk3MDEzOSAmIzEwO0wgMTA0LjIzNDk2OCAzMTYuMDYyODkxICYjMTA7TCAxMDUuMTE4Mjc0IDMxNS4zMjQ0MTcgJiMxMDtMIDEwNi40NDMyMzQgMzE0LjU1MzQ1OSAmIzEwO0wgMTA3Ljc2ODE5MyAzMTQuMDcxMTkzICYjMTA7TCAxMDkuNTM0ODA2IDMxMy43MzY5ODcgJiMxMDtMIDExMS4zMDE0MTkgMzEzLjY0Nzk1MyAmIzEwO0wgMTEzLjUwOTY4NSAzMTMuNzcyMjIzICYjMTA7TCAxMTYuMTU5NjA0IDMxNC4xNTY3MjQgJiMxMDtMIDExOS42OTI4MjkgMzE0LjkzMTA3MSAmIzEwO0wgMTI0LjEwOTM2MSAzMTYuMTY0NjE5ICYjMTA7TCAxMjkuODUwODUyIDMxOC4wMzQ1NDMgJiMxMDtMIDEzMy44MjU3MyAzMTkuNDQwNzcgJiMxMDtMIDEzNC4yNjczODMgMzE5LjcxNzE3ICYjMTA7TCAxMzguMjQyMjYyIDMyMC4yODcyOTYgJiMxMDtMIDE0Mi42NTg3OTMgMzIxLjE1NTM2OSAmIzEwO0wgMTQ3Ljk1ODYzMSAzMjIuNDM4NzEzICYjMTA7TCAxNTQuMTQxNzc2IDMyNC4xNzk2NTggJiMxMDtMIDE1Ny4yMzMzNDggMzI1LjEyNTU0OCAmIzEwO0wgMTU3LjY3NTAwMSAzMjQuNDIwODk1ICYjMTA7TCAxNjIuOTc0ODM5IDMyNS42Nzg2OCAmIzEwO0wgMTY5LjE1Nzk4MyAzMjcuMzgwNDc4ICYjMTA7TCAxNzIuNjkxMjA5IDMyOC40NDQ1NTQgJiMxMDtMIDE3My4xMzI4NjIgMzI4LjI5MjEyMyAmIzEwO0wgMTc4LjQzMjcgMzI5LjM2ODM4OSAmIzEwO0wgMTg0LjYxNTg0NCAzMzAuODU3NTIzICYjMTA7TCAxOTEuMjQwNjQyIDMzMi42ODA1MzEgJiMxMDtMIDE5OC43NDg3NDYgMzM0Ljk3NjQ5NyAmIzEwO0wgMjAyLjcyMzYyNCAzMzYuMjc0NjA0ICYjMTA7TCAyMDMuMTY1Mjc3IDMzNS4wMDk1MzcgJiMxMDtMIDIxMC4yMzE3MjggMzM2Ljc3NTUwMyAmIzEwO0wgMjEyLjg4MTY0NyAzMzcuNDg5MzA1ICYjMTA7TCAyMTMuMzIzMyAzMzguMTc0NTYyICYjMTA7TCAyMTYuODU2NTI1IDMzOC44MzU5OTkgJiMxMDtMIDIxNy4yOTgxNzggMzQwLjE5NzE4NyAmIzEwO0wgMjIzLjAzOTY3IDM0MC45OTIyMTIgJiMxMDtMIDIyOS4yMjI4MTQgMzQyLjA4MDIzMyAmIzEwO0wgMjM1Ljg0NzYxMSAzNDMuNDc5NTYgJiMxMDtMIDI0Mi45MTQwNjIgMzQ1LjIwNDgyMSAmIzEwO0wgMjUwLjQyMjE2NiAzNDcuMjY3MzU2ICYjMTA7TCAyNTMuNTEzNzM4IDM0OC4xNzgxODQgJiMxMDtMIDI1My45NTUzOTEgMzQ4LjcyOTQ3OCAmIzEwO0wgMjYxLjAyMTg0MiAzNTAuMjg4NjQzICYjMTA7TCAyNjguNTI5OTQ2IDM1Mi4xNzkwMTggJiMxMDtMIDI2OS40MTMyNTIgMzUyLjQxNTk3ICYjMTA7TCAyNjkuODU0OTA1IDM1Mi45MTM2OTEgJiMxMDtMIDI3Ni40Nzk3MDMgMzU0LjUyMjEzICYjMTA7TCAyODMuNTQ2MTUzIDM1Ni40NzEwNTQgJiMxMDtMIDI5MS4wNTQyNTcgMzU4Ljc3OTcxMSAmIzEwO0wgMjk3LjIzNzQwMSAzNjAuODQ3OTA5ICYjMTA7TCAyOTcuNjc5MDU1IDM2MS4yMzYzODkgJiMxMDtMIDMwNC43NDU1MDUgMzYzLjAxMDY3NSAmIzEwO0wgMzEyLjI1MzYwOSAzNjUuMTM3ODI5ICYjMTA7TCAzMTguNDM2NzUzIDM2Ny4wNjE2NDcgJiMxMDtMIDMxOC44Nzg0MDcgMzY3LjUyODAwNSAmIzEwO0wgMzI1LjUwMzIwNCAzNjkuNDgzNTk2ICYjMTA7TCAzMzIuMTI4MDAyIDM3MS42Njk0NzMgJiMxMDtMIDMzOS4xOTQ0NTIgMzc0LjIzNjYwOSAmIzEwO0wgMzQ2LjI2MDkwMyAzNzcuMDI5NTAzICYjMTA7TCAzNDYuNzAyNTU2IDM3Ny41MTA3NzUgJiMxMDtMIDM1My4zMjczNTMgMzc5LjM0MjU2NyAmIzEwO0wgMzYwLjM5MzgwNCAzODEuNTM2MzA2ICYjMTA7TCAzNjkuNjY4NTIxIDM4NC40NzAyNTMgJiMxMDtMIDM3NS44NTE2NjUgMzg2LjQ4NjUxOSAmIzEwO0wgMzgyLjAzNDgwOSAzODguNzMwOTQxICYjMTA7TCAzODguNjU5NjA3IDM5MS4zNzU4MTYgJiMxMDtMIDM4OS41NDI5MTMgMzkxLjc0NjU0NCAmIzEwO0wgMzg5Ljk4NDU2NiAzOTEuNDc4MTI3ICYjMTA7TCAzOTYuNjA5MzY0IDM5NC42NDA2MzEgJiMxMDtMIDQwMC4xNDI1ODkgMzk2LjQyOTEwNiAmIzEwO0wgNDAwLjU4NDI0MiAzOTYuMjQzNTAzICYjMTA7TCA0MDYuMzI1NzMzIDM5OC40MjQwODYgJiMxMDtMIDQxMi4wNjcyMjQgNDAwLjgzOTUyNCAmIzEwO0wgNDE4LjI1MDM2OSA0MDMuNjkyNDcxICYjMTA7TCA0MjQuNDMzNTEzIDQwNi43OTU1MjcgJiMxMDtMIDQyOC44NTAwNDUgNDA5LjE1OTI3OCAmIzEwO0wgNDI5LjI5MTY5OCA0MDcuNjE3MjExICYjMTA7TCA0MzMuMjY2NTc2IDQwOS45NTY0MzggJiMxMDtMIDQzMy43MDgyMyA0MDkuNDk5NjE0ICYjMTA7TCA0MzguNTY2NDE0IDQxMS43NDI2MDQgJiMxMDtMIDQzOS44OTEzNzQgNDEyLjM5MzM2MiAmIzEwO0wgNDQwLjMzMzAyNyA0MTQuNDUwNzUxICYjMTA7TCA0NDUuMTkxMjEyIDQxNS41NzEyMzggJiMxMDtMIDQ1MC4wNDkzOTcgNDE2LjkxODk1NCAmIzEwO0wgNDU0LjkwNzU4MiA0MTguNDg3OTQ3ICYjMTA7TCA0NjAuMjA3NDIgNDIwLjQ0NTI2OSAmIzEwO0wgNDY1LjA2NTYwNCA0MjIuNDU4ODU0ICYjMTA7TCA0NjUuNTA3MjU4IDQyMi4zNzUzODUgJiMxMDtMIDQ2OS45MjM3ODkgNDIzLjQ3NDc1OSAmIzEwO0wgNDc0LjM0MDMyMSA0MjQuNzk2MjEzICYjMTA7TCA0NzguNzU2ODUzIDQyNi4zMzUxNDMgJiMxMDtMIDQ4My42MTUwMzcgNDI4LjI3Mzg3NiAmIzEwO0wgNDg1LjM4MTY1IDQyOS4wNDE2NzQgJiMxMDtMIDQ4NS44MjMzMDMgNDI3LjYwMDczNCAmIzEwO0wgNDg3LjU4OTkxNiA0MjguNjkxMzQ2ICYjMTA7TCA0ODguMDMxNTY5IDQyOS4yNjE5NSAmIzEwO0wgNDg5LjM1NjUyOCA0MjkuNzg0Mjk0ICYjMTA7TCA0ODkuNzk4MTgyIDQzMC4xMDE1NzkgJiMxMDtMIDQ5My43NzMwNiA0MzAuNDE2MzYyICYjMTA7TCA0OTcuNzQ3OTM5IDQzMC45NTAyOTIgJiMxMDtMIDUwMS43MjI4MTcgNDMxLjcwMDA3ICYjMTA7TCA1MDUuNjk3Njk2IDQzMi42NjI1MDUgJiMxMDtMIDUwNy40NjQzMDggNDMzLjA5MzQxOSAmIzEwO0wgNTExLjQzOTE4NyA0MzMuMjc4MDM1ICYjMTA7TCA1MTUuNDE0MDY1IDQzMy43MDMzNjQgJiMxMDtMIDUxOS4zODg5NDQgNDM0LjM2NjI3OCAmIzEwO0wgNTIwLjI3MjI1IDQzNC41NDU1NTEgJiMxMDtMIDUyMC43MTM5MDMgNDMyLjc5NTE3MiAmIzEwO0wgNTIzLjM2MzgyMiA0MzIuODcxMjQyICYjMTA7TCA1MjMuODA1NDc1IDQzMy4zMTkwMzUgJiMxMDtMIDUyNC42ODg3ODIgNDMzLjE1NjY1NiAmIzEwO0wgNTI1LjEzMDQzNSA0MzQuMjYwMjI3ICYjMTA7TCA1MjkuMTA1MzEzIDQzMi43Nzg4MzIgJiMxMDtMIDUzMy4wODAxOTIgNDMxLjU1NTcwNyAmIzEwO0wgNTM3LjA1NTA3IDQzMC41ODg1ODIgJiMxMDtMIDU0MC4xNDY2NDMgNDMwLjAxMTk1OCAmIzEwO0wgNTQwLjU4ODI5NiA0MjkuOTk5MzM3ICYjMTA7TCA1NDQuNTYzMTc0IDQyOC4zODczMTQgJiMxMDtMIDU0NS40NDY0ODEgNDI4LjA2MTQ4NyAmIzEwO0wgNTQ1Ljg4ODEzNCA0MjguMjc5NDQ0ICYjMTA7TCA1NDkuODYzMDEyIDQyNi4wODczNDQgJiMxMDtMIDU1My4zOTYyMzcgNDI0LjM3NTk2OCAmIzEwO0wgNTU0LjI3OTU0NCA0MjMuOTAzODk2ICYjMTA7TCA1NTguMjU0NDIyIDQyMS4xNDAwODcgJiMxMDtMIDU2Mi4yMjkzMDEgNDE4LjYzNzc3OCAmIzEwO0wgNTY2LjIwNDE3OSA0MTYuMzk2MDc4ICYjMTA7TCA1NjYuNjQ1ODMyIDQxNS4wMzgxNjEgJiMxMDtMIDU2Ny41MjkxMzkgNDEzLjkyOTUyICYjMTA7TCA1NjcuOTcwNzkyIDQxNC44MjkzNjkgJiMxMDtMIDU3Mi4zODczMjQgNDEwLjYxMjQ1NSAmIzEwO0wgNTc2LjgwMzg1NSA0MDYuNzA2MDExICYjMTA7TCA1ODAuNzc4NzM0IDQwMy4yNDM1OTQgJiMxMDtMIDU4NS42MzY5MTkgMzk4LjczMzc4NCAmIzEwO0wgNTg2Ljk2MTg3OCAzOTcuNTYxMzE4ICYjMTA7TCA1ODcuNDAzNTMxIDM5Ny40NjE0MyAmIzEwO0wgNTkyLjI2MTcxNiAzOTEuNzcwMjgyICYjMTA7TCA1OTcuNTYxNTU0IDM4NS42MTc3MDYgJiMxMDtMIDYwMi44NjEzOTIgMzc5LjcyMzIgJiMxMDtMIDYwNi4zOTQ2MTcgMzc1Ljk5MzY3NiAmIzEwO0wgNjA2LjgzNjI3MSAzNzYuMjk2NjgzICYjMTA7TCA2MDcuNzE5NTc3IDM3NS4wODYwNzIgJiMxMDtMIDYwOC4xNjEyMyAzNzQuODQ3MzQxICYjMTA7TCA2MTEuMjUyODAyIDM3MC44MDYxNjYgJiMxMDtMIDYxMS42OTQ0NTUgMzY5Ljc2MzI5NCAmIzEwO0wgNjE3LjQzNTk0NyAzNjMuODc2MzU4ICYjMTA7TCA2MjQuOTQ0MDUgMzU2LjU2MjkzMyAmIzEwO0wgNjI4LjAzNTYyMiAzNTMuNjgyODI5ICYjMTA7TCA2MjguOTE4OTI5IDM1Mi41MjIzNDcgJiMxMDtMIDYzNS4xMDIwNzMgMzQ1Ljk1Mzg2NyAmIzEwO0wgNjM5LjA3Njk1MiAzNDEuOTc2ODg5ICYjMTA7TCA2NDUuNzAxNzQ5IDMzNS43OTM5OTUgJiMxMDtMIDY0OS4yMzQ5NzQgMzMyLjYyMTQ1OCAmIzEwO0wgNjQ5LjY3NjYyOCAzMzIuNTk0MTIyICYjMTA7TCA2NTYuMzAxNDI1IDMyNi4wOTQ5MjQgJiMxMDtMIDY1Ny4xODQ3MzEgMzI1LjM5ODc3MiAmIzEwO0wgNjY0LjY5MjgzNSAzMTguODM2Mjc3ICYjMTA7TCA2NjguMjI2MDYxIDMxNS45NTUxOTIgJiMxMDtMIDY3NS4yOTI1MTEgMzExLjA2ODcyICYjMTA7TCA2ODUuMDA4ODgxIDMwNC43ODE2MDYgJiMxMDtMIDY4NS44OTIxODcgMzA0LjAxOTQ3OCAmIzEwO0wgNjkyLjUxNjk4NSAyOTkuMjYzNDUyICYjMTA7TCA2OTMuNDAwMjkxIDI5OC43MjkxNTkgJiMxMDtMIDY5Ni45MzM1MTYgMjk2LjM1NDUzNyAmIzEwO0wgNjk3LjM3NTE2OSAyOTYuMjYyMjAxICYjMTA7TCA3MDUuMzI0OTI2IDI5MS40NzQ2NzMgJiMxMDtMIDcxMS41MDgwNzEgMjg3Ljk4MjY2MyAmIzEwO0wgNzE4LjEzMjg2OCAyODQuMzM5MjA1ICYjMTA7TCA3MTkuNDU3ODI4IDI4My42OTM0NDMgJiMxMDtMIDczMC4wNTc1MDQgMjc4LjI5NDIzICYjMTA7TCA3MzguNDQ4OTE0IDI3NC4yMDg5OCAmIzEwO0wgNzQ1Ljk1NzAxOCAyNzAuNzYxNjU5ICYjMTA7TCA3NTcuNDQgMjY1LjY4MTU3NCAmIzEwO0wgNzU3LjQ0IDI2NS42ODE1NzQiLz4mI3hhOyAgIDwvZz4mI3hhOyAgIDxnIGlkPSJwYXRjaF84Ij4mI3hhOyAgICA8cGF0aCBzdHlsZT0iZmlsbDogbm9uZTsgc3Ryb2tlOiAjMDAwMDAwOyBzdHJva2Utd2lkdGg6IDAuODsgc3Ryb2tlLWxpbmVqb2luOiBtaXRlcjsgc3Ryb2tlLWxpbmVjYXA6IHNxdWFyZSIgZD0iTSA2Mi4zIDQ0Mi45ODg3NSAmIzEwO0wgNjIuMyAyNTcuMjM4Mzc1Ii8+JiN4YTsgICA8L2c+JiN4YTsgICA8ZyBpZD0icGF0Y2hfOSI+JiN4YTsgICAgPHBhdGggc3R5bGU9ImZpbGw6IG5vbmU7IHN0cm9rZTogIzAwMDAwMDsgc3Ryb2tlLXdpZHRoOiAwLjg7IHN0cm9rZS1saW5lam9pbjogbWl0ZXI7IHN0cm9rZS1saW5lY2FwOiBzcXVhcmUiIGQ9Ik0gNzU3LjQ0IDQ0Mi45ODg3NSAmIzEwO0wgNzU3LjQ0IDI1Ny4yMzgzNzUiLz4mI3hhOyAgIDwvZz4mI3hhOyAgIDxnIGlkPSJwYXRjaF8xMCI+JiN4YTsgICAgPHBhdGggc3R5bGU9ImZpbGw6IG5vbmU7IHN0cm9rZTogIzAwMDAwMDsgc3Ryb2tlLXdpZHRoOiAwLjg7IHN0cm9rZS1saW5lam9pbjogbWl0ZXI7IHN0cm9rZS1saW5lY2FwOiBzcXVhcmUiIGQ9Ik0gNjIuMyA0NDIuOTg4NzUgJiMxMDtMIDc1Ny40NCA0NDIuOTg4NzUiLz4mI3hhOyAgIDwvZz4mI3hhOyAgIDxnIGlkPSJwYXRjaF8xMSI+JiN4YTsgICAgPHBhdGggc3R5bGU9ImZpbGw6IG5vbmU7IHN0cm9rZTogIzAwMDAwMDsgc3Ryb2tlLXdpZHRoOiAwLjg7IHN0cm9rZS1saW5lam9pbjogbWl0ZXI7IHN0cm9rZS1saW5lY2FwOiBzcXVhcmUiIGQ9Ik0gNjIuMyAyNTcuMjM4Mzc1ICYjMTA7TCA3NTcuNDQgMjU3LjIzODM3NSIvPiYjeGE7ICAgPC9nPiYjeGE7ICAgPGcgaWQ9InRleHRfMjciPiYjeGE7ICAgICYjeGE7ICAgIDxnIHRyYW5zZm9ybT0idHJhbnNsYXRlKDQwMy4wMyAyNTEuMjM4Mzc1KSBzY2FsZSgwLjEyIC0wLjEyKSI+JiN4YTsgICAgIDxkZWZzPiYjeGE7ICAgICAgPHBhdGggdHJhbnNmb3JtPSJzY2FsZSgwLjAxNTYyNSkiIGQ9Ik0gMjA1OSAtMzI1ICYjMTA7USAxODE2IC05NTAgMTU4NCAtMTE0MCAmIzEwO1EgMTM1MyAtMTMzMSA5NjYgLTEzMzEgJiMxMDtMIDUwNiAtMTMzMSAmIzEwO0wgNTA2IC04NTAgJiMxMDtMIDg0NCAtODUwICYjMTA7USAxMDgxIC04NTAgMTIxMiAtNzM3ICYjMTA7USAxMzQ0IC02MjUgMTUwMyAtMjA2ICYjMTA7TCAxNjA2IDU2ICYjMTA7TCAxOTEgMzUwMCAmIzEwO0wgODAwIDM1MDAgJiMxMDtMIDE4OTQgNzYzICYjMTA7TCAyOTg4IDM1MDAgJiMxMDtMIDM1OTcgMzUwMCAmIzEwO0wgMjA1OSAtMzI1ICYjMTA7eiIgaWQ9IkRlamFWdVNhbnMtNzkiLz4mI3hhOyAgICAgPC9kZWZzPiYjeGE7ICAgICA8dXNlIHRyYW5zZm9ybT0idHJhbnNsYXRlKDAgMC4wOTM3NSkiIHhsaW5rOmhyZWY9IiNEZWphVnVTYW5zLTQyIi8+JiN4YTsgICAgIDx1c2UgdHJhbnNmb3JtPSJ0cmFuc2xhdGUoNjkuNTYwNTQ3IC0xNi4zMTI1KSBzY2FsZSgwLjcpIiB4bGluazpocmVmPSIjRGVqYVZ1U2Fucy03OSIvPiYjeGE7ICAgIDwvZz4mI3hhOyAgIDwvZz4mI3hhOyAgIDxnIGlkPSJsZWdlbmRfMSI+JiN4YTsgICAgPGcgaWQ9InBhdGNoXzEyIj4mI3hhOyAgICAgPHBhdGggc3R5bGU9ImZpbGw6ICNmZmZmZmY7IG9wYWNpdHk6IDAuODsgc3Ryb2tlOiAjY2NjY2NjOyBzdHJva2UtbGluZWpvaW46IG1pdGVyIiBkPSJNIDY5LjMgNDM3Ljk4ODc1ICYjMTA7TCAxODEuMjk4NDM4IDQzNy45ODg3NSAmIzEwO1EgMTgzLjI5ODQzOCA0MzcuOTg4NzUgMTgzLjI5ODQzOCA0MzUuOTg4NzUgJiMxMDtMIDE4My4yOTg0MzggMzc4LjI3NjI1ICYjMTA7USAxODMuMjk4NDM4IDM3Ni4yNzYyNSAxODEuMjk4NDM4IDM3Ni4yNzYyNSAmIzEwO0wgNjkuMyAzNzYuMjc2MjUgJiMxMDtRIDY3LjMgMzc2LjI3NjI1IDY3LjMgMzc4LjI3NjI1ICYjMTA7TCA2Ny4zIDQzNS45ODg3NSAmIzEwO1EgNjcuMyA0MzcuOTg4NzUgNjkuMyA0MzcuOTg4NzUgJiMxMDt6Ii8+JiN4YTsgICAgPC9nPiYjeGE7ICAgIDxnIGlkPSJ0ZXh0XzI4Ij4mI3hhOyAgICAgJiN4YTsgICAgIDxnIHRyYW5zZm9ybT0idHJhbnNsYXRlKDEwNC45ODY3MTkgMzg3Ljg3NDY4OCkgc2NhbGUoMC4xIC0wLjEpIj4mI3hhOyAgICAgIDxkZWZzPiYjeGE7ICAgICAgIDxwYXRoIHRyYW5zZm9ybT0ic2NhbGUoMC4wMTU2MjUpIiBkPSJNIDI2MzEgMjk2MyAmIzEwO1EgMjUzNCAzMDE5IDI0MjAgMzA0NSAmIzEwO1EgMjMwNiAzMDcyIDIxNjkgMzA3MiAmIzEwO1EgMTY4MSAzMDcyIDE0MjAgMjc1NSAmIzEwO1EgMTE1OSAyNDM4IDExNTkgMTg0NCAmIzEwO0wgMTE1OSAwICYjMTA7TCA1ODEgMCAmIzEwO0wgNTgxIDM1MDAgJiMxMDtMIDExNTkgMzUwMCAmIzEwO0wgMTE1OSAyOTU2ICYjMTA7USAxMzQxIDMyNzUgMTYzMSAzNDI5ICYjMTA7USAxOTIyIDM1ODQgMjMzOCAzNTg0ICYjMTA7USAyMzk3IDM1ODQgMjQ2OSAzNTc2ICYjMTA7USAyNTQxIDM1NjkgMjYyOCAzNTUzICYjMTA7TCAyNjMxIDI5NjMgJiMxMDt6IiBpZD0iRGVqYVZ1U2Fucy03MiIvPiYjeGE7ICAgICAgPC9kZWZzPiYjeGE7ICAgICAgPHVzZSB4bGluazpocmVmPSIjRGVqYVZ1U2Fucy00ZCIvPiYjeGE7ICAgICAgPHVzZSB4PSI4Ni4yNzkyOTciIHhsaW5rOmhyZWY9IiNEZWphVnVTYW5zLTYxIi8+JiN4YTsgICAgICA8dXNlIHg9IjE0Ny41NTg1OTQiIHhsaW5rOmhyZWY9IiNEZWphVnVTYW5zLTc0Ii8+JiN4YTsgICAgICA8dXNlIHg9IjE4Ni43Njc1NzgiIHhsaW5rOmhyZWY9IiNEZWphVnVTYW5zLTY1Ii8+JiN4YTsgICAgICA8dXNlIHg9IjI0OC4yOTEwMTYiIHhsaW5rOmhyZWY9IiNEZWphVnVTYW5zLTcyIi8+JiN4YTsgICAgICA8dXNlIHg9IjI4OS40MDQyOTciIHhsaW5rOmhyZWY9IiNEZWphVnVTYW5zLTY5Ii8+JiN4YTsgICAgICA8dXNlIHg9IjMxNy4xODc1IiB4bGluazpocmVmPSIjRGVqYVZ1U2Fucy02MSIvPiYjeGE7ICAgICAgPHVzZSB4PSIzNzguNDY2Nzk3IiB4bGluazpocmVmPSIjRGVqYVZ1U2Fucy02YyIvPiYjeGE7ICAgICA8L2c+JiN4YTsgICAgPC9nPiYjeGE7ICAgIDxnIGlkPSJwYXRjaF8xMyI+JiN4YTsgICAgIDxwYXRoIHN0eWxlPSJmaWxsOiAjNDQwMTU0OyBzdHJva2U6ICM0NDAxNTQ7IHN0cm9rZS1saW5lam9pbjogbWl0ZXIiIGQ9Ik0gNzEuMyA0MDIuNTUyODEzICYjMTA7TCA5MS4zIDQwMi41NTI4MTMgJiMxMDtMIDkxLjMgMzk1LjU1MjgxMyAmIzEwO0wgNzEuMyAzOTUuNTUyODEzICYjMTA7eiIvPiYjeGE7ICAgIDwvZz4mI3hhOyAgICA8ZyBpZD0idGV4dF8yOSI+JiN4YTsgICAgICYjeGE7ICAgICA8ZyB0cmFuc2Zvcm09InRyYW5zbGF0ZSg5OS4zIDQwMi41NTI4MTMpIHNjYWxlKDAuMSAtMC4xKSI+JiN4YTsgICAgICA8ZGVmcz4mI3hhOyAgICAgICA8cGF0aCB0cmFuc2Zvcm09InNjYWxlKDAuMDE1NjI1KSIgZD0iTSAxMjU5IDQxNDcgJiMxMDtMIDEyNTkgMjM5NCAmIzEwO0wgMjA1MyAyMzk0ICYjMTA7USAyNDk0IDIzOTQgMjczNCAyNjIyICYjMTA7USAyOTc1IDI4NTAgMjk3NSAzMjcyICYjMTA7USAyOTc1IDM2OTEgMjczNCAzOTE5ICYjMTA7USAyNDk0IDQxNDcgMjA1MyA0MTQ3ICYjMTA7TCAxMjU5IDQxNDcgJiMxMDt6JiMxMDtNIDYyOCA0NjY2ICYjMTA7TCAyMDUzIDQ2NjYgJiMxMDtRIDI4MzggNDY2NiAzMjM5IDQzMTEgJiMxMDtRIDM2NDEgMzk1NiAzNjQxIDMyNzIgJiMxMDtRIDM2NDEgMjU4MSAzMjM5IDIyMjggJiMxMDtRIDI4MzggMTg3NSAyMDUzIDE4NzUgJiMxMDtMIDEyNTkgMTg3NSAmIzEwO0wgMTI1OSAwICYjMTA7TCA2MjggMCAmIzEwO0wgNjI4IDQ2NjYgJiMxMDt6IiBpZD0iRGVqYVZ1U2Fucy01MCIvPiYjeGE7ICAgICAgIDxwYXRoIHRyYW5zZm9ybT0ic2NhbGUoMC4wMTU2MjUpIiBkPSJNIDYyOCA0NjY2ICYjMTA7TCAxMjU5IDQ2NjYgJiMxMDtMIDEyNTkgNTMxICYjMTA7TCAzNTMxIDUzMSAmIzEwO0wgMzUzMSAwICYjMTA7TCA2MjggMCAmIzEwO0wgNjI4IDQ2NjYgJiMxMDt6IiBpZD0iRGVqYVZ1U2Fucy00YyIvPiYjeGE7ICAgICAgIDxwYXRoIHRyYW5zZm9ybT0ic2NhbGUoMC4wMTU2MjUpIiBkPSJNIDIxODggNDA0NCAmIzEwO0wgMTMzMSAxNzIyICYjMTA7TCAzMDQ3IDE3MjIgJiMxMDtMIDIxODggNDA0NCAmIzEwO3omIzEwO00gMTgzMSA0NjY2ICYjMTA7TCAyNTQ3IDQ2NjYgJiMxMDtMIDQzMjUgMCAmIzEwO0wgMzY2OSAwICYjMTA7TCAzMjQ0IDExOTcgJiMxMDtMIDExNDEgMTE5NyAmIzEwO0wgNzE2IDAgJiMxMDtMIDUwIDAgJiMxMDtMIDE4MzEgNDY2NiAmIzEwO3oiIGlkPSJEZWphVnVTYW5zLTQxIi8+JiN4YTsgICAgICA8L2RlZnM+JiN4YTsgICAgICA8dXNlIHhsaW5rOmhyZWY9IiNEZWphVnVTYW5zLTUwIi8+JiN4YTsgICAgICA8dXNlIHg9IjYwLjMwMjczNCIgeGxpbms6aHJlZj0iI0RlamFWdVNhbnMtNGMiLz4mI3hhOyAgICAgIDx1c2UgeD0iMTE4LjI2NTYyNSIgeGxpbms6aHJlZj0iI0RlamFWdVNhbnMtNDEiLz4mI3hhOyAgICAgPC9nPiYjeGE7ICAgIDwvZz4mI3hhOyAgICA8ZyBpZD0icGF0Y2hfMTQiPiYjeGE7ICAgICA8cGF0aCBzdHlsZT0iZmlsbDogIzMxNjg4ZTsgc3Ryb2tlOiAjMzE2ODhlOyBzdHJva2UtbGluZWpvaW46IG1pdGVyIiBkPSJNIDcxLjMgNDE3LjIzMDkzOCAmIzEwO0wgOTEuMyA0MTcuMjMwOTM4ICYjMTA7TCA5MS4zIDQxMC4yMzA5MzggJiMxMDtMIDcxLjMgNDEwLjIzMDkzOCAmIzEwO3oiLz4mI3hhOyAgICA8L2c+JiN4YTsgICAgPGcgaWQ9InRleHRfMzAiPiYjeGE7ICAgICAmI3hhOyAgICAgPGcgdHJhbnNmb3JtPSJ0cmFuc2xhdGUoOTkuMyA0MTcuMjMwOTM4KSBzY2FsZSgwLjEgLTAuMSkiPiYjeGE7ICAgICAgPGRlZnM+JiN4YTsgICAgICAgPHBhdGggdHJhbnNmb3JtPSJzY2FsZSgwLjAxNTYyNSkiIGQ9Ik0gMzQyNSA0NTEzICYjMTA7TCAzNDI1IDM4OTcgJiMxMDtRIDMwNjYgNDA2OSAyNzQ3IDQxNTMgJiMxMDtRIDI0MjggNDIzOCAyMTMxIDQyMzggJiMxMDtRIDE2MTYgNDIzOCAxMzM2IDQwMzggJiMxMDtRIDEwNTYgMzgzOCAxMDU2IDM0NjkgJiMxMDtRIDEwNTYgMzE1OSAxMjQyIDMwMDEgJiMxMDtRIDE0MjggMjg0NCAxOTQ3IDI3NDcgJiMxMDtMIDIzMjggMjY2OSAmIzEwO1EgMzAzNCAyNTM0IDMzNzAgMjE5NSAmIzEwO1EgMzcwNiAxODU2IDM3MDYgMTI4OCAmIzEwO1EgMzcwNiA2MDkgMzI1MSAyNTkgJiMxMDtRIDI3OTcgLTkxIDE5MTkgLTkxICYjMTA7USAxNTg4IC05MSAxMjE0IC0xNiAmIzEwO1EgODQxIDU5IDQ0MSAyMDYgJiMxMDtMIDQ0MSA4NTYgJiMxMDtRIDgyNSA2NDEgMTE5NCA1MzEgJiMxMDtRIDE1NjMgNDIyIDE5MTkgNDIyICYjMTA7USAyNDU5IDQyMiAyNzUzIDYzNCAmIzEwO1EgMzA0NyA4NDcgMzA0NyAxMjQxICYjMTA7USAzMDQ3IDE1ODQgMjgzNiAxNzc4ICYjMTA7USAyNjI1IDE5NzIgMjE0NCAyMDY5ICYjMTA7TCAxNzU5IDIxNDQgJiMxMDtRIDEwNTMgMjI4NCA3MzcgMjU4NCAmIzEwO1EgNDIyIDI4ODQgNDIyIDM0MTkgJiMxMDtRIDQyMiA0MDM4IDg1OCA0Mzk0ICYjMTA7USAxMjk0IDQ3NTAgMjA1OSA0NzUwICYjMTA7USAyMzg4IDQ3NTAgMjcyOCA0NjkwICYjMTA7USAzMDY5IDQ2MzEgMzQyNSA0NTEzICYjMTA7eiIgaWQ9IkRlamFWdVNhbnMtNTMiLz4mI3hhOyAgICAgICA8cGF0aCB0cmFuc2Zvcm09InNjYWxlKDAuMDE1NjI1KSIgZD0iTSAxMTU5IDUyNSAmIzEwO0wgMTE1OSAtMTMzMSAmIzEwO0wgNTgxIC0xMzMxICYjMTA7TCA1ODEgMzUwMCAmIzEwO0wgMTE1OSAzNTAwICYjMTA7TCAxMTU5IDI5NjkgJiMxMDtRIDEzNDEgMzI4MSAxNjE3IDM0MzIgJiMxMDtRIDE4OTQgMzU4NCAyMjc4IDM1ODQgJiMxMDtRIDI5MTYgMzU4NCAzMzE0IDMwNzggJiMxMDtRIDM3MTMgMjU3MiAzNzEzIDE3NDcgJiMxMDtRIDM3MTMgOTIyIDMzMTQgNDE1ICYjMTA7USAyOTE2IC05MSAyMjc4IC05MSAmIzEwO1EgMTg5NCAtOTEgMTYxNyA2MSAmIzEwO1EgMTM0MSAyMTMgMTE1OSA1MjUgJiMxMDt6JiMxMDtNIDMxMTYgMTc0NyAmIzEwO1EgMzExNiAyMzgxIDI4NTUgMjc0MiAmIzEwO1EgMjU5NCAzMTAzIDIxMzggMzEwMyAmIzEwO1EgMTY4MSAzMTAzIDE0MjAgMjc0MiAmIzEwO1EgMTE1OSAyMzgxIDExNTkgMTc0NyAmIzEwO1EgMTE1OSAxMTEzIDE0MjAgNzUyICYjMTA7USAxNjgxIDM5MSAyMTM4IDM5MSAmIzEwO1EgMjU5NCAzOTEgMjg1NSA3NTIgJiMxMDtRIDMxMTYgMTExMyAzMTE2IDE3NDcgJiMxMDt6IiBpZD0iRGVqYVZ1U2Fucy03MCIvPiYjeGE7ICAgICAgPC9kZWZzPiYjeGE7ICAgICAgPHVzZSB4bGluazpocmVmPSIjRGVqYVZ1U2Fucy01MyIvPiYjeGE7ICAgICAgPHVzZSB4PSI2My40NzY1NjIiIHhsaW5rOmhyZWY9IiNEZWphVnVTYW5zLTc0Ii8+JiN4YTsgICAgICA8dXNlIHg9IjEwMi42ODU1NDciIHhsaW5rOmhyZWY9IiNEZWphVnVTYW5zLTY1Ii8+JiN4YTsgICAgICA8dXNlIHg9IjE2NC4yMDg5ODQiIHhsaW5rOmhyZWY9IiNEZWphVnVTYW5zLTY1Ii8+JiN4YTsgICAgICA8dXNlIHg9IjIyNS43MzI0MjIiIHhsaW5rOmhyZWY9IiNEZWphVnVTYW5zLTZjIi8+JiN4YTsgICAgICA8dXNlIHg9IjI1My41MTU2MjUiIHhsaW5rOmhyZWY9IiNEZWphVnVTYW5zLTIwIi8+JiN4YTsgICAgICA8dXNlIHg9IjI4NS4zMDI3MzQiIHhsaW5rOmhyZWY9IiNEZWphVnVTYW5zLTc0Ii8+JiN4YTsgICAgICA8dXNlIHg9IjMyNC41MTE3MTkiIHhsaW5rOmhyZWY9IiNEZWphVnVTYW5zLTc5Ii8+JiN4YTsgICAgICA8dXNlIHg9IjM4My42OTE0MDYiIHhsaW5rOmhyZWY9IiNEZWphVnVTYW5zLTcwIi8+JiN4YTsgICAgICA8dXNlIHg9IjQ0Ny4xNjc5NjkiIHhsaW5rOmhyZWY9IiNEZWphVnVTYW5zLTY1Ii8+JiN4YTsgICAgICA8dXNlIHg9IjUwOC42OTE0MDYiIHhsaW5rOmhyZWY9IiNEZWphVnVTYW5zLTIwIi8+JiN4YTsgICAgICA8dXNlIHg9IjU0MC40Nzg1MTYiIHhsaW5rOmhyZWY9IiNEZWphVnVTYW5zLTM0Ii8+JiN4YTsgICAgICA8dXNlIHg9IjYwNC4xMDE1NjIiIHhsaW5rOmhyZWY9IiNEZWphVnVTYW5zLTM0Ii8+JiN4YTsgICAgICA8dXNlIHg9IjY2Ny43MjQ2MDkiIHhsaW5rOmhyZWY9IiNEZWphVnVTYW5zLTMwIi8+JiN4YTsgICAgICA8dXNlIHg9IjczMS4zNDc2NTYiIHhsaW5rOmhyZWY9IiNEZWphVnVTYW5zLTQyIi8+JiN4YTsgICAgIDwvZz4mI3hhOyAgICA8L2c+JiN4YTsgICAgPGcgaWQ9InBhdGNoXzE1Ij4mI3hhOyAgICAgPHBhdGggc3R5bGU9ImZpbGw6ICMzNWI3Nzk7IHN0cm9rZTogIzM1Yjc3OTsgc3Ryb2tlLWxpbmVqb2luOiBtaXRlciIgZD0iTSA3MS4zIDQzMS45MDkwNjMgJiMxMDtMIDkxLjMgNDMxLjkwOTA2MyAmIzEwO0wgOTEuMyA0MjQuOTA5MDYzICYjMTA7TCA3MS4zIDQyNC45MDkwNjMgJiMxMDt6Ii8+JiN4YTsgICAgPC9nPiYjeGE7ICAgIDxnIGlkPSJ0ZXh0XzMxIj4mI3hhOyAgICAgJiN4YTsgICAgIDxnIHRyYW5zZm9ybT0idHJhbnNsYXRlKDk5LjMgNDMxLjkwOTA2Mykgc2NhbGUoMC4xIC0wLjEpIj4mI3hhOyAgICAgIDx1c2UgeGxpbms6aHJlZj0iI0RlamFWdVNhbnMtNTMiLz4mI3hhOyAgICAgIDx1c2UgeD0iNjMuNDc2NTYyIiB4bGluazpocmVmPSIjRGVqYVZ1U2Fucy03NCIvPiYjeGE7ICAgICAgPHVzZSB4PSIxMDIuNjg1NTQ3IiB4bGluazpocmVmPSIjRGVqYVZ1U2Fucy02NSIvPiYjeGE7ICAgICAgPHVzZSB4PSIxNjQuMjA4OTg0IiB4bGluazpocmVmPSIjRGVqYVZ1U2Fucy02NSIvPiYjeGE7ICAgICAgPHVzZSB4PSIyMjUuNzMyNDIyIiB4bGluazpocmVmPSIjRGVqYVZ1U2Fucy02YyIvPiYjeGE7ICAgICAgPHVzZSB4PSIyNTMuNTE1NjI1IiB4bGluazpocmVmPSIjRGVqYVZ1U2Fucy0yMCIvPiYjeGE7ICAgICAgPHVzZSB4PSIyODUuMzAyNzM0IiB4bGluazpocmVmPSIjRGVqYVZ1U2Fucy03NCIvPiYjeGE7ICAgICAgPHVzZSB4PSIzMjQuNTExNzE5IiB4bGluazpocmVmPSIjRGVqYVZ1U2Fucy03OSIvPiYjeGE7ICAgICAgPHVzZSB4PSIzODMuNjkxNDA2IiB4bGluazpocmVmPSIjRGVqYVZ1U2Fucy03MCIvPiYjeGE7ICAgICAgPHVzZSB4PSI0NDcuMTY3OTY5IiB4bGluazpocmVmPSIjRGVqYVZ1U2Fucy02NSIvPiYjeGE7ICAgICAgPHVzZSB4PSI1MDguNjkxNDA2IiB4bGluazpocmVmPSIjRGVqYVZ1U2Fucy0yMCIvPiYjeGE7ICAgICAgPHVzZSB4PSI1NDAuNDc4NTE2IiB4bGluazpocmVmPSIjRGVqYVZ1U2Fucy0zNCIvPiYjeGE7ICAgICAgPHVzZSB4PSI2MDQuMTAxNTYyIiB4bGluazpocmVmPSIjRGVqYVZ1U2Fucy0zNCIvPiYjeGE7ICAgICAgPHVzZSB4PSI2NjcuNzI0NjA5IiB4bGluazpocmVmPSIjRGVqYVZ1U2Fucy0zMCIvPiYjeGE7ICAgICAgPHVzZSB4PSI3MzEuMzQ3NjU2IiB4bGluazpocmVmPSIjRGVqYVZ1U2Fucy00NiIvPiYjeGE7ICAgICA8L2c+JiN4YTsgICAgPC9nPiYjeGE7ICAgPC9nPiYjeGE7ICA8L2c+JiN4YTsgIDxnIGlkPSJ0ZXh0XzMyIj4mI3hhOyAgICYjeGE7ICAgPGcgdHJhbnNmb3JtPSJ0cmFuc2xhdGUoMzI3LjYwNTYyNSA0ODUuMDU5NTc1KSBzY2FsZSgwLjEyIC0wLjEyKSI+JiN4YTsgICAgPGRlZnM+JiN4YTsgICAgIDxwYXRoIHRyYW5zZm9ybT0ic2NhbGUoMC4wMTU2MjUpIiBkPSJNIDU0NCAxMzgxICYjMTA7TCA1NDQgMzUwMCAmIzEwO0wgMTExOSAzNTAwICYjMTA7TCAxMTE5IDE0MDMgJiMxMDtRIDExMTkgOTA2IDEzMTIgNjU3ICYjMTA7USAxNTA2IDQwOSAxODk0IDQwOSAmIzEwO1EgMjM1OSA0MDkgMjYyOSA3MDYgJiMxMDtRIDI5MDAgMTAwMyAyOTAwIDE1MTYgJiMxMDtMIDI5MDAgMzUwMCAmIzEwO0wgMzQ3NSAzNTAwICYjMTA7TCAzNDc1IDAgJiMxMDtMIDI5MDAgMCAmIzEwO0wgMjkwMCA1MzggJiMxMDtRIDI2OTEgMjE5IDI0MTQgNjQgJiMxMDtRIDIxMzggLTkxIDE3NzIgLTkxICYjMTA7USAxMTY5IC05MSA4NTYgMjg0ICYjMTA7USA1NDQgNjU5IDU0NCAxMzgxICYjMTA7eiYjMTA7TSAxOTkxIDM1ODQgJiMxMDtMIDE5OTEgMzU4NCAmIzEwO3oiIGlkPSJEZWphVnVTYW5zLTc1Ii8+JiN4YTsgICAgIDxwYXRoIHRyYW5zZm9ybT0ic2NhbGUoMC4wMTU2MjUpIiBkPSJNIDE5NTkgMzA5NyAmIzEwO1EgMTQ5NyAzMDk3IDEyMjggMjczNiAmIzEwO1EgOTU5IDIzNzUgOTU5IDE3NDcgJiMxMDtRIDk1OSAxMTE5IDEyMjYgNzU4ICYjMTA7USAxNDk0IDM5NyAxOTU5IDM5NyAmIzEwO1EgMjQxOSAzOTcgMjY4NyA3NTkgJiMxMDtRIDI5NTYgMTEyMiAyOTU2IDE3NDcgJiMxMDtRIDI5NTYgMjM2OSAyNjg3IDI3MzMgJiMxMDtRIDI0MTkgMzA5NyAxOTU5IDMwOTcgJiMxMDt6JiMxMDtNIDE5NTkgMzU4NCAmIzEwO1EgMjcwOSAzNTg0IDMxMzcgMzA5NiAmIzEwO1EgMzU2NiAyNjA5IDM1NjYgMTc0NyAmIzEwO1EgMzU2NiA4ODggMzEzNyAzOTggJiMxMDtRIDI3MDkgLTkxIDE5NTkgLTkxICYjMTA7USAxMjA2IC05MSA3NzkgMzk4ICYjMTA7USAzNTMgODg4IDM1MyAxNzQ3ICYjMTA7USAzNTMgMjYwOSA3NzkgMzA5NiAmIzEwO1EgMTIwNiAzNTg0IDE5NTkgMzU4NCAmIzEwO3oiIGlkPSJEZWphVnVTYW5zLTZmIi8+JiN4YTsgICAgIDxwYXRoIHRyYW5zZm9ybT0ic2NhbGUoMC4wMTU2MjUpIiBkPSJNIDI4MzQgMzM5NyAmIzEwO0wgMjgzNCAyODUzICYjMTA7USAyNTkxIDI5NzggMjMyOCAzMDQwICYjMTA7USAyMDY2IDMxMDMgMTc4NCAzMTAzICYjMTA7USAxMzU2IDMxMDMgMTE0MiAyOTcyICYjMTA7USA5MjggMjg0MSA5MjggMjU3OCAmIzEwO1EgOTI4IDIzNzggMTA4MSAyMjY0ICYjMTA7USAxMjM0IDIxNTAgMTY5NyAyMDQ3ICYjMTA7TCAxODk0IDIwMDMgJiMxMDtRIDI1MDYgMTg3MiAyNzY0IDE2MzMgJiMxMDtRIDMwMjIgMTM5NCAzMDIyIDk2NiAmIzEwO1EgMzAyMiA0NzggMjYzNiAxOTMgJiMxMDtRIDIyNTAgLTkxIDE1NzUgLTkxICYjMTA7USAxMjk0IC05MSA5ODkgLTM2ICYjMTA7USA2ODQgMTkgMzQ3IDEyOCAmIzEwO0wgMzQ3IDcyMiAmIzEwO1EgNjY2IDU1NiA5NzUgNDczICYjMTA7USAxMjg0IDM5MSAxNTg4IDM5MSAmIzEwO1EgMTk5NCAzOTEgMjIxMiA1MzAgJiMxMDtRIDI0MzEgNjY5IDI0MzEgOTIyICYjMTA7USAyNDMxIDExNTYgMjI3MyAxMjgxICYjMTA7USAyMTE2IDE0MDYgMTU4MSAxNTIyICYjMTA7TCAxMzgxIDE1NjkgJiMxMDtRIDg0NyAxNjgxIDYwOSAxOTE0ICYjMTA7USAzNzIgMjE0NyAzNzIgMjU1MyAmIzEwO1EgMzcyIDMwNDcgNzIyIDMzMTUgJiMxMDtRIDEwNzIgMzU4NCAxNzE2IDM1ODQgJiMxMDtRIDIwMzQgMzU4NCAyMzE1IDM1MzcgJiMxMDtRIDI1OTcgMzQ5MSAyODM0IDMzOTcgJiMxMDt6IiBpZD0iRGVqYVZ1U2Fucy03MyIvPiYjeGE7ICAgICA8cGF0aCB0cmFuc2Zvcm09InNjYWxlKDAuMDE1NjI1KSIgZD0iTSAxNjAwIDQzNDcgJiMxMDtRIDEzNTAgNDM0NyAxMTc4IDQxNzMgJiMxMDtRIDEwMDYgNDAwMCAxMDA2IDM3NTAgJiMxMDtRIDEwMDYgMzUwMyAxMTc4IDMzMzMgJiMxMDtRIDEzNTAgMzE2MyAxNjAwIDMxNjMgJiMxMDtRIDE4NTAgMzE2MyAyMDIyIDMzMzMgJiMxMDtRIDIxOTQgMzUwMyAyMTk0IDM3NTAgJiMxMDtRIDIxOTQgMzk5NyAyMDIwIDQxNzIgJiMxMDtRIDE4NDcgNDM0NyAxNjAwIDQzNDcgJiMxMDt6JiMxMDtNIDE2MDAgNDc1MCAmIzEwO1EgMTgwMCA0NzUwIDE5ODQgNDY3MyAmIzEwO1EgMjE2OSA0NTk3IDIzMDMgNDQ1MyAmIzEwO1EgMjQ0NyA0MzEzIDI1MTkgNDEzNCAmIzEwO1EgMjU5MSAzOTU2IDI1OTEgMzc1MCAmIzEwO1EgMjU5MSAzMzM4IDIzMDIgMzA1MiAmIzEwO1EgMjAxMyAyNzY2IDE1OTQgMjc2NiAmIzEwO1EgMTE3MiAyNzY2IDg5MCAzMDQ3ICYjMTA7USA2MDkgMzMyOCA2MDkgMzc1MCAmIzEwO1EgNjA5IDQxNjkgODk2IDQ0NTkgJiMxMDtRIDExODQgNDc1MCAxNjAwIDQ3NTAgJiMxMDt6IiBpZD0iRGVqYVZ1U2Fucy1iMCIvPiYjeGE7ICAgIDwvZGVmcz4mI3hhOyAgICA8dXNlIHhsaW5rOmhyZWY9IiNEZWphVnVTYW5zLTQxIi8+JiN4YTsgICAgPHVzZSB4PSI2OC40MDgyMDMiIHhsaW5rOmhyZWY9IiNEZWphVnVTYW5zLTZlIi8+JiN4YTsgICAgPHVzZSB4PSIxMzEuNzg3MTA5IiB4bGluazpocmVmPSIjRGVqYVZ1U2Fucy02NyIvPiYjeGE7ICAgIDx1c2UgeD0iMTk1LjI2MzY3MiIgeGxpbms6aHJlZj0iI0RlamFWdVNhbnMtNzUiLz4mI3hhOyAgICA8dXNlIHg9IjI1OC42NDI1NzgiIHhsaW5rOmhyZWY9IiNEZWphVnVTYW5zLTZjIi8+JiN4YTsgICAgPHVzZSB4PSIyODYuNDI1NzgxIiB4bGluazpocmVmPSIjRGVqYVZ1U2Fucy02MSIvPiYjeGE7ICAgIDx1c2UgeD0iMzQ3LjcwNTA3OCIgeGxpbms6aHJlZj0iI0RlamFWdVNhbnMtNzIiLz4mI3hhOyAgICA8dXNlIHg9IjM4OC44MTgzNTkiIHhsaW5rOmhyZWY9IiNEZWphVnVTYW5zLTIwIi8+JiN4YTsgICAgPHVzZSB4PSI0MjAuNjA1NDY5IiB4bGluazpocmVmPSIjRGVqYVZ1U2Fucy01MCIvPiYjeGE7ICAgIDx1c2UgeD0iNDc3LjI4MzIwMyIgeGxpbms6aHJlZj0iI0RlamFWdVNhbnMtNmYiLz4mI3hhOyAgICA8dXNlIHg9IjUzOC40NjQ4NDQiIHhsaW5rOmhyZWY9IiNEZWphVnVTYW5zLTczIi8+JiN4YTsgICAgPHVzZSB4PSI1OTAuNTY0NDUzIiB4bGluazpocmVmPSIjRGVqYVZ1U2Fucy02OSIvPiYjeGE7ICAgIDx1c2UgeD0iNjE4LjM0NzY1NiIgeGxpbms6aHJlZj0iI0RlamFWdVNhbnMtNzQiLz4mI3hhOyAgICA8dXNlIHg9IjY1Ny41NTY2NDEiIHhsaW5rOmhyZWY9IiNEZWphVnVTYW5zLTZmIi8+JiN4YTsgICAgPHVzZSB4PSI3MTguNzM4MjgxIiB4bGluazpocmVmPSIjRGVqYVZ1U2Fucy02ZSIvPiYjeGE7ICAgIDx1c2UgeD0iNzgyLjExNzE4OCIgeGxpbms6aHJlZj0iI0RlamFWdVNhbnMtMjAiLz4mI3hhOyAgICA8dXNlIHg9IjgxMy45MDQyOTciIHhsaW5rOmhyZWY9IiNEZWphVnVTYW5zLTViIi8+JiN4YTsgICAgPHVzZSB4PSI4NTIuOTE3OTY5IiB4bGluazpocmVmPSIjRGVqYVZ1U2Fucy1iMCIvPiYjeGE7ICAgIDx1c2UgeD0iOTAyLjkxNzk2OSIgeGxpbms6aHJlZj0iI0RlamFWdVNhbnMtNWQiLz4mI3hhOyAgIDwvZz4mI3hhOyAgPC9nPiYjeGE7IDwvZz4mI3hhOyA8ZGVmcz4mI3hhOyAgPGNsaXBQYXRoIGlkPSJwZDM5OGRmZTg5ZCI+JiN4YTsgICA8cmVjdCBoZWlnaHQ9IjE4NS43NTAzNzUiIHdpZHRoPSI2OTUuMTQiIHk9IjI2Ljg4IiB4PSI2Mi4zIi8+JiN4YTsgIDwvY2xpcFBhdGg+JiN4YTsgIDxjbGlwUGF0aCBpZD0icDZiNzhjNmQyYzkiPiYjeGE7ICAgPHJlY3QgaGVpZ2h0PSIxODUuNzUwMzc1IiB3aWR0aD0iNjk1LjE0IiB5PSIyNTcuMjM4Mzc1IiB4PSI2Mi4zIi8+JiN4YTsgIDwvY2xpcFBhdGg+JiN4YTsgPC9kZWZzPiYjeGE7PC9zdmc+;movable=1;resizable=1;rotatable=1;deletable=1;editable=1;locked=0;connectable=1;" parent="VRnodTBKfb1ULuzcWVuv-7" vertex="1">
          <mxGeometry width="864.2258086362223" height="553.6455938697319" as="geometry" />
        </mxCell>
        <mxCell id="VRnodTBKfb1ULuzcWVuv-2" value="" style="endArrow=none;dashed=1;html=1;strokeWidth=1;rounded=0;fillColor=#e51400;strokeColor=#B20000;" parent="VRnodTBKfb1ULuzcWVuv-7" edge="1">
          <mxGeometry width="50" height="50" relative="1" as="geometry">
            <mxPoint x="355.5" y="500" as="sourcePoint" />
            <mxPoint x="355.5" y="280" as="targetPoint" />
          </mxGeometry>
        </mxCell>
        <mxCell id="VRnodTBKfb1ULuzcWVuv-3" value="" style="endArrow=none;dashed=1;html=1;strokeWidth=1;rounded=0;fillColor=#e51400;strokeColor=#B20000;" parent="VRnodTBKfb1ULuzcWVuv-7" edge="1">
          <mxGeometry width="50" height="50" relative="1" as="geometry">
            <mxPoint x="355.5" y="250" as="sourcePoint" />
            <mxPoint x="355.5" y="20" as="targetPoint" />
          </mxGeometry>
        </mxCell>
      </root>
    </mxGraphModel>
  </diagram>
</mxfile>
